%TF.GenerationSoftware,KiCad,Pcbnew,(5.1.10)-1*%
%TF.CreationDate,2021-10-08T19:19:36+02:00*%
%TF.ProjectId,board,626f6172-642e-46b6-9963-61645f706362,rev?*%
%TF.SameCoordinates,Original*%
%TF.FileFunction,Legend,Top*%
%TF.FilePolarity,Positive*%
%FSLAX46Y46*%
G04 Gerber Fmt 4.6, Leading zero omitted, Abs format (unit mm)*
G04 Created by KiCad (PCBNEW (5.1.10)-1) date 2021-10-08 19:19:36*
%MOMM*%
%LPD*%
G01*
G04 APERTURE LIST*
%ADD10C,0.300000*%
%ADD11C,0.120000*%
%ADD12C,0.200000*%
%ADD13C,0.150000*%
G04 APERTURE END LIST*
D10*
X73128571Y-98307142D02*
X74271428Y-98307142D01*
X73128571Y-95607142D02*
X74271428Y-95607142D01*
X73700000Y-96178571D02*
X73700000Y-95035714D01*
X85028571Y-103047142D02*
X86171428Y-103047142D01*
X84728571Y-100407142D02*
X85871428Y-100407142D01*
X85300000Y-100978571D02*
X85300000Y-99835714D01*
X73064285Y-100130000D02*
X74492857Y-100130000D01*
X73350000Y-102207142D02*
X73564285Y-102278571D01*
X73921428Y-102278571D01*
X74064285Y-102207142D01*
X74135714Y-102135714D01*
X74207142Y-101992857D01*
X74207142Y-101850000D01*
X74135714Y-101707142D01*
X74064285Y-101635714D01*
X73921428Y-101564285D01*
X73635714Y-101492857D01*
X73492857Y-101421428D01*
X73421428Y-101350000D01*
X73350000Y-101207142D01*
X73350000Y-101064285D01*
X73421428Y-100921428D01*
X73492857Y-100850000D01*
X73635714Y-100778571D01*
X73992857Y-100778571D01*
X74207142Y-100850000D01*
X74492857Y-100130000D02*
X76064285Y-100130000D01*
X74850000Y-102278571D02*
X74850000Y-100778571D01*
X74850000Y-101492857D02*
X75707142Y-101492857D01*
X75707142Y-102278571D02*
X75707142Y-100778571D01*
X76064285Y-100130000D02*
X77564285Y-100130000D01*
X76421428Y-102278571D02*
X76421428Y-100778571D01*
X76778571Y-100778571D01*
X76992857Y-100850000D01*
X77135714Y-100992857D01*
X77207142Y-101135714D01*
X77278571Y-101421428D01*
X77278571Y-101635714D01*
X77207142Y-101921428D01*
X77135714Y-102064285D01*
X76992857Y-102207142D01*
X76778571Y-102278571D01*
X76421428Y-102278571D01*
X77564285Y-100130000D02*
X79135714Y-100130000D01*
X77921428Y-102278571D02*
X77921428Y-100778571D01*
X78778571Y-102278571D01*
X78778571Y-100778571D01*
X82444285Y-106858571D02*
X82444285Y-105358571D01*
X83158571Y-106858571D02*
X83158571Y-105358571D01*
X84015714Y-106858571D01*
X84015714Y-105358571D01*
X104700000Y-97178571D02*
X104985714Y-97178571D01*
X105128571Y-97250000D01*
X105271428Y-97392857D01*
X105342857Y-97678571D01*
X105342857Y-98178571D01*
X105271428Y-98464285D01*
X105128571Y-98607142D01*
X104985714Y-98678571D01*
X104700000Y-98678571D01*
X104557142Y-98607142D01*
X104414285Y-98464285D01*
X104342857Y-98178571D01*
X104342857Y-97678571D01*
X104414285Y-97392857D01*
X104557142Y-97250000D01*
X104700000Y-97178571D01*
X105985714Y-97178571D02*
X105985714Y-98392857D01*
X106057142Y-98535714D01*
X106128571Y-98607142D01*
X106271428Y-98678571D01*
X106557142Y-98678571D01*
X106700000Y-98607142D01*
X106771428Y-98535714D01*
X106842857Y-98392857D01*
X106842857Y-97178571D01*
X107342857Y-97178571D02*
X108200000Y-97178571D01*
X107771428Y-98678571D02*
X107771428Y-97178571D01*
X104071428Y-103392857D02*
X102928571Y-103392857D01*
X103507142Y-101171428D02*
X103507142Y-100028571D01*
X104078571Y-100600000D02*
X102935714Y-100600000D01*
D11*
%TO.C,C9*%
X113960000Y-102511252D02*
X113960000Y-101088748D01*
X111240000Y-102511252D02*
X111240000Y-101088748D01*
%TO.C,C1*%
X92510000Y-97160000D02*
X92010000Y-97160000D01*
X92260000Y-96910000D02*
X92260000Y-97410000D01*
X89504437Y-97650000D02*
X88440000Y-98714437D01*
X91895563Y-97650000D02*
X92960000Y-98714437D01*
X91895563Y-97650000D02*
X91760000Y-97650000D01*
X89504437Y-97650000D02*
X89640000Y-97650000D01*
X88440000Y-98714437D02*
X88440000Y-102170000D01*
X92960000Y-98714437D02*
X92960000Y-102170000D01*
X92960000Y-102170000D02*
X91760000Y-102170000D01*
X88440000Y-102170000D02*
X89640000Y-102170000D01*
%TO.C,C2*%
X90686267Y-77590000D02*
X90393733Y-77590000D01*
X90686267Y-78610000D02*
X90393733Y-78610000D01*
%TO.C,C3*%
X90636267Y-79930000D02*
X90343733Y-79930000D01*
X90636267Y-80950000D02*
X90343733Y-80950000D01*
%TO.C,C4*%
X90666267Y-82140000D02*
X90373733Y-82140000D01*
X90666267Y-83160000D02*
X90373733Y-83160000D01*
%TO.C,C5*%
X90666267Y-85200000D02*
X90373733Y-85200000D01*
X90666267Y-84180000D02*
X90373733Y-84180000D01*
%TO.C,C6*%
X90636267Y-86170000D02*
X90343733Y-86170000D01*
X90636267Y-87190000D02*
X90343733Y-87190000D01*
%TO.C,C7*%
X96533733Y-98730000D02*
X96826267Y-98730000D01*
X96533733Y-99750000D02*
X96826267Y-99750000D01*
%TO.C,C8*%
X100533733Y-81070000D02*
X100826267Y-81070000D01*
X100533733Y-82090000D02*
X100826267Y-82090000D01*
%TO.C,D1*%
X87920000Y-93320000D02*
X87920000Y-95170000D01*
X86720000Y-93320000D02*
X86720000Y-95170000D01*
X86720000Y-95170000D02*
X87920000Y-95170000D01*
%TO.C,D2*%
X100050000Y-94000000D02*
X96150000Y-94000000D01*
X100050000Y-92000000D02*
X96150000Y-92000000D01*
X100050000Y-94000000D02*
X100050000Y-92000000D01*
%TO.C,J1*%
X81980000Y-99120000D02*
X83310000Y-99120000D01*
X81980000Y-100450000D02*
X81980000Y-99120000D01*
X81980000Y-101720000D02*
X84640000Y-101720000D01*
X84640000Y-101720000D02*
X84640000Y-104320000D01*
X81980000Y-101720000D02*
X81980000Y-104320000D01*
X81980000Y-104320000D02*
X84640000Y-104320000D01*
%TO.C,J2*%
X74750000Y-99540000D02*
X77410000Y-99540000D01*
X74750000Y-96940000D02*
X74750000Y-99540000D01*
X77410000Y-96940000D02*
X77410000Y-99540000D01*
X74750000Y-96940000D02*
X77410000Y-96940000D01*
X74750000Y-95670000D02*
X74750000Y-94340000D01*
X74750000Y-94340000D02*
X76080000Y-94340000D01*
%TO.C,J3*%
X104770000Y-99370000D02*
X106100000Y-99370000D01*
X104770000Y-100700000D02*
X104770000Y-99370000D01*
X104770000Y-101970000D02*
X107430000Y-101970000D01*
X107430000Y-101970000D02*
X107430000Y-104570000D01*
X104770000Y-101970000D02*
X104770000Y-104570000D01*
X104770000Y-104570000D02*
X107430000Y-104570000D01*
%TO.C,J4*%
X79280000Y-91750000D02*
X80610000Y-91750000D01*
X79280000Y-93080000D02*
X79280000Y-91750000D01*
X81880000Y-91750000D02*
X84480000Y-91750000D01*
X81880000Y-94350000D02*
X81880000Y-91750000D01*
X79280000Y-94350000D02*
X81880000Y-94350000D01*
X84480000Y-91750000D02*
X84480000Y-96950000D01*
X79280000Y-94350000D02*
X79280000Y-96950000D01*
X79280000Y-96950000D02*
X84480000Y-96950000D01*
%TO.C,J5*%
X82190000Y-76110000D02*
X83520000Y-76110000D01*
X82190000Y-77440000D02*
X82190000Y-76110000D01*
X84790000Y-76110000D02*
X87390000Y-76110000D01*
X84790000Y-78710000D02*
X84790000Y-76110000D01*
X82190000Y-78710000D02*
X84790000Y-78710000D01*
X87390000Y-76110000D02*
X87390000Y-88930000D01*
X82190000Y-78710000D02*
X82190000Y-88930000D01*
X82190000Y-88930000D02*
X87390000Y-88930000D01*
D12*
%TO.C,L1*%
X115950000Y-85600000D02*
X115950000Y-95600000D01*
X104450000Y-85600000D02*
X115950000Y-85600000D01*
X104450000Y-95600000D02*
X104450000Y-85600000D01*
X115950000Y-95600000D02*
X104450000Y-95600000D01*
D11*
%TO.C,R1*%
X89897500Y-93707776D02*
X89897500Y-94217224D01*
X90942500Y-93707776D02*
X90942500Y-94217224D01*
%TO.C,R2*%
X98077500Y-85015276D02*
X98077500Y-85524724D01*
X99122500Y-85015276D02*
X99122500Y-85524724D01*
%TO.C,R3*%
X102162500Y-84985276D02*
X102162500Y-85494724D01*
X101117500Y-84985276D02*
X101117500Y-85494724D01*
%TO.C,VR1*%
X96220000Y-91200000D02*
X98670000Y-91200000D01*
X98020000Y-87980000D02*
X96220000Y-87980000D01*
%TO.C,C9*%
D13*
X110657142Y-101966666D02*
X110704761Y-102014285D01*
X110752380Y-102157142D01*
X110752380Y-102252380D01*
X110704761Y-102395238D01*
X110609523Y-102490476D01*
X110514285Y-102538095D01*
X110323809Y-102585714D01*
X110180952Y-102585714D01*
X109990476Y-102538095D01*
X109895238Y-102490476D01*
X109800000Y-102395238D01*
X109752380Y-102252380D01*
X109752380Y-102157142D01*
X109800000Y-102014285D01*
X109847619Y-101966666D01*
X110752380Y-101490476D02*
X110752380Y-101300000D01*
X110704761Y-101204761D01*
X110657142Y-101157142D01*
X110514285Y-101061904D01*
X110323809Y-101014285D01*
X109942857Y-101014285D01*
X109847619Y-101061904D01*
X109800000Y-101109523D01*
X109752380Y-101204761D01*
X109752380Y-101395238D01*
X109800000Y-101490476D01*
X109847619Y-101538095D01*
X109942857Y-101585714D01*
X110180952Y-101585714D01*
X110276190Y-101538095D01*
X110323809Y-101490476D01*
X110371428Y-101395238D01*
X110371428Y-101204761D01*
X110323809Y-101109523D01*
X110276190Y-101061904D01*
X110180952Y-101014285D01*
%TO.C,C1*%
X94257142Y-100076666D02*
X94304761Y-100124285D01*
X94352380Y-100267142D01*
X94352380Y-100362380D01*
X94304761Y-100505238D01*
X94209523Y-100600476D01*
X94114285Y-100648095D01*
X93923809Y-100695714D01*
X93780952Y-100695714D01*
X93590476Y-100648095D01*
X93495238Y-100600476D01*
X93400000Y-100505238D01*
X93352380Y-100362380D01*
X93352380Y-100267142D01*
X93400000Y-100124285D01*
X93447619Y-100076666D01*
X94352380Y-99124285D02*
X94352380Y-99695714D01*
X94352380Y-99410000D02*
X93352380Y-99410000D01*
X93495238Y-99505238D01*
X93590476Y-99600476D01*
X93638095Y-99695714D01*
%TO.C,C2*%
X87603333Y-78557142D02*
X87555714Y-78604761D01*
X87412857Y-78652380D01*
X87317619Y-78652380D01*
X87174761Y-78604761D01*
X87079523Y-78509523D01*
X87031904Y-78414285D01*
X86984285Y-78223809D01*
X86984285Y-78080952D01*
X87031904Y-77890476D01*
X87079523Y-77795238D01*
X87174761Y-77700000D01*
X87317619Y-77652380D01*
X87412857Y-77652380D01*
X87555714Y-77700000D01*
X87603333Y-77747619D01*
X87984285Y-77747619D02*
X88031904Y-77700000D01*
X88127142Y-77652380D01*
X88365238Y-77652380D01*
X88460476Y-77700000D01*
X88508095Y-77747619D01*
X88555714Y-77842857D01*
X88555714Y-77938095D01*
X88508095Y-78080952D01*
X87936666Y-78652380D01*
X88555714Y-78652380D01*
X92458095Y-77682380D02*
X93077142Y-77682380D01*
X92743809Y-78063333D01*
X92886666Y-78063333D01*
X92981904Y-78110952D01*
X93029523Y-78158571D01*
X93077142Y-78253809D01*
X93077142Y-78491904D01*
X93029523Y-78587142D01*
X92981904Y-78634761D01*
X92886666Y-78682380D01*
X92600952Y-78682380D01*
X92505714Y-78634761D01*
X92458095Y-78587142D01*
X93410476Y-77682380D02*
X94029523Y-77682380D01*
X93696190Y-78063333D01*
X93839047Y-78063333D01*
X93934285Y-78110952D01*
X93981904Y-78158571D01*
X94029523Y-78253809D01*
X94029523Y-78491904D01*
X93981904Y-78587142D01*
X93934285Y-78634761D01*
X93839047Y-78682380D01*
X93553333Y-78682380D01*
X93458095Y-78634761D01*
X93410476Y-78587142D01*
X94458095Y-78015714D02*
X94458095Y-78682380D01*
X94458095Y-78110952D02*
X94505714Y-78063333D01*
X94600952Y-78015714D01*
X94743809Y-78015714D01*
X94839047Y-78063333D01*
X94886666Y-78158571D01*
X94886666Y-78682380D01*
%TO.C,C3*%
X87513333Y-80907142D02*
X87465714Y-80954761D01*
X87322857Y-81002380D01*
X87227619Y-81002380D01*
X87084761Y-80954761D01*
X86989523Y-80859523D01*
X86941904Y-80764285D01*
X86894285Y-80573809D01*
X86894285Y-80430952D01*
X86941904Y-80240476D01*
X86989523Y-80145238D01*
X87084761Y-80050000D01*
X87227619Y-80002380D01*
X87322857Y-80002380D01*
X87465714Y-80050000D01*
X87513333Y-80097619D01*
X87846666Y-80002380D02*
X88465714Y-80002380D01*
X88132380Y-80383333D01*
X88275238Y-80383333D01*
X88370476Y-80430952D01*
X88418095Y-80478571D01*
X88465714Y-80573809D01*
X88465714Y-80811904D01*
X88418095Y-80907142D01*
X88370476Y-80954761D01*
X88275238Y-81002380D01*
X87989523Y-81002380D01*
X87894285Y-80954761D01*
X87846666Y-80907142D01*
X92725714Y-79982380D02*
X92820952Y-79982380D01*
X92916190Y-80030000D01*
X92963809Y-80077619D01*
X93011428Y-80172857D01*
X93059047Y-80363333D01*
X93059047Y-80601428D01*
X93011428Y-80791904D01*
X92963809Y-80887142D01*
X92916190Y-80934761D01*
X92820952Y-80982380D01*
X92725714Y-80982380D01*
X92630476Y-80934761D01*
X92582857Y-80887142D01*
X92535238Y-80791904D01*
X92487619Y-80601428D01*
X92487619Y-80363333D01*
X92535238Y-80172857D01*
X92582857Y-80077619D01*
X92630476Y-80030000D01*
X92725714Y-79982380D01*
X93487619Y-80887142D02*
X93535238Y-80934761D01*
X93487619Y-80982380D01*
X93440000Y-80934761D01*
X93487619Y-80887142D01*
X93487619Y-80982380D01*
X94487619Y-80982380D02*
X93916190Y-80982380D01*
X94201904Y-80982380D02*
X94201904Y-79982380D01*
X94106666Y-80125238D01*
X94011428Y-80220476D01*
X93916190Y-80268095D01*
X95344761Y-80315714D02*
X95344761Y-80982380D01*
X94916190Y-80315714D02*
X94916190Y-80839523D01*
X94963809Y-80934761D01*
X95059047Y-80982380D01*
X95201904Y-80982380D01*
X95297142Y-80934761D01*
X95344761Y-80887142D01*
%TO.C,C4*%
X87613333Y-83057142D02*
X87565714Y-83104761D01*
X87422857Y-83152380D01*
X87327619Y-83152380D01*
X87184761Y-83104761D01*
X87089523Y-83009523D01*
X87041904Y-82914285D01*
X86994285Y-82723809D01*
X86994285Y-82580952D01*
X87041904Y-82390476D01*
X87089523Y-82295238D01*
X87184761Y-82200000D01*
X87327619Y-82152380D01*
X87422857Y-82152380D01*
X87565714Y-82200000D01*
X87613333Y-82247619D01*
X88470476Y-82485714D02*
X88470476Y-83152380D01*
X88232380Y-82104761D02*
X87994285Y-82819047D01*
X88613333Y-82819047D01*
X92759523Y-82102380D02*
X92854761Y-82102380D01*
X92950000Y-82150000D01*
X92997619Y-82197619D01*
X93045238Y-82292857D01*
X93092857Y-82483333D01*
X93092857Y-82721428D01*
X93045238Y-82911904D01*
X92997619Y-83007142D01*
X92950000Y-83054761D01*
X92854761Y-83102380D01*
X92759523Y-83102380D01*
X92664285Y-83054761D01*
X92616666Y-83007142D01*
X92569047Y-82911904D01*
X92521428Y-82721428D01*
X92521428Y-82483333D01*
X92569047Y-82292857D01*
X92616666Y-82197619D01*
X92664285Y-82150000D01*
X92759523Y-82102380D01*
X93521428Y-83007142D02*
X93569047Y-83054761D01*
X93521428Y-83102380D01*
X93473809Y-83054761D01*
X93521428Y-83007142D01*
X93521428Y-83102380D01*
X93902380Y-82102380D02*
X94521428Y-82102380D01*
X94188095Y-82483333D01*
X94330952Y-82483333D01*
X94426190Y-82530952D01*
X94473809Y-82578571D01*
X94521428Y-82673809D01*
X94521428Y-82911904D01*
X94473809Y-83007142D01*
X94426190Y-83054761D01*
X94330952Y-83102380D01*
X94045238Y-83102380D01*
X93950000Y-83054761D01*
X93902380Y-83007142D01*
X94854761Y-82102380D02*
X95473809Y-82102380D01*
X95140476Y-82483333D01*
X95283333Y-82483333D01*
X95378571Y-82530952D01*
X95426190Y-82578571D01*
X95473809Y-82673809D01*
X95473809Y-82911904D01*
X95426190Y-83007142D01*
X95378571Y-83054761D01*
X95283333Y-83102380D01*
X94997619Y-83102380D01*
X94902380Y-83054761D01*
X94854761Y-83007142D01*
X96330952Y-82435714D02*
X96330952Y-83102380D01*
X95902380Y-82435714D02*
X95902380Y-82959523D01*
X95950000Y-83054761D01*
X96045238Y-83102380D01*
X96188095Y-83102380D01*
X96283333Y-83054761D01*
X96330952Y-83007142D01*
%TO.C,C5*%
X87533333Y-85067142D02*
X87485714Y-85114761D01*
X87342857Y-85162380D01*
X87247619Y-85162380D01*
X87104761Y-85114761D01*
X87009523Y-85019523D01*
X86961904Y-84924285D01*
X86914285Y-84733809D01*
X86914285Y-84590952D01*
X86961904Y-84400476D01*
X87009523Y-84305238D01*
X87104761Y-84210000D01*
X87247619Y-84162380D01*
X87342857Y-84162380D01*
X87485714Y-84210000D01*
X87533333Y-84257619D01*
X88438095Y-84162380D02*
X87961904Y-84162380D01*
X87914285Y-84638571D01*
X87961904Y-84590952D01*
X88057142Y-84543333D01*
X88295238Y-84543333D01*
X88390476Y-84590952D01*
X88438095Y-84638571D01*
X88485714Y-84733809D01*
X88485714Y-84971904D01*
X88438095Y-85067142D01*
X88390476Y-85114761D01*
X88295238Y-85162380D01*
X88057142Y-85162380D01*
X87961904Y-85114761D01*
X87914285Y-85067142D01*
X92779523Y-84192380D02*
X92874761Y-84192380D01*
X92970000Y-84240000D01*
X93017619Y-84287619D01*
X93065238Y-84382857D01*
X93112857Y-84573333D01*
X93112857Y-84811428D01*
X93065238Y-85001904D01*
X93017619Y-85097142D01*
X92970000Y-85144761D01*
X92874761Y-85192380D01*
X92779523Y-85192380D01*
X92684285Y-85144761D01*
X92636666Y-85097142D01*
X92589047Y-85001904D01*
X92541428Y-84811428D01*
X92541428Y-84573333D01*
X92589047Y-84382857D01*
X92636666Y-84287619D01*
X92684285Y-84240000D01*
X92779523Y-84192380D01*
X93541428Y-85097142D02*
X93589047Y-85144761D01*
X93541428Y-85192380D01*
X93493809Y-85144761D01*
X93541428Y-85097142D01*
X93541428Y-85192380D01*
X94446190Y-84525714D02*
X94446190Y-85192380D01*
X94208095Y-84144761D02*
X93970000Y-84859047D01*
X94589047Y-84859047D01*
X94874761Y-84192380D02*
X95541428Y-84192380D01*
X95112857Y-85192380D01*
X96350952Y-84525714D02*
X96350952Y-85192380D01*
X95922380Y-84525714D02*
X95922380Y-85049523D01*
X95970000Y-85144761D01*
X96065238Y-85192380D01*
X96208095Y-85192380D01*
X96303333Y-85144761D01*
X96350952Y-85097142D01*
%TO.C,C6*%
X87503333Y-87077142D02*
X87455714Y-87124761D01*
X87312857Y-87172380D01*
X87217619Y-87172380D01*
X87074761Y-87124761D01*
X86979523Y-87029523D01*
X86931904Y-86934285D01*
X86884285Y-86743809D01*
X86884285Y-86600952D01*
X86931904Y-86410476D01*
X86979523Y-86315238D01*
X87074761Y-86220000D01*
X87217619Y-86172380D01*
X87312857Y-86172380D01*
X87455714Y-86220000D01*
X87503333Y-86267619D01*
X88360476Y-86172380D02*
X88170000Y-86172380D01*
X88074761Y-86220000D01*
X88027142Y-86267619D01*
X87931904Y-86410476D01*
X87884285Y-86600952D01*
X87884285Y-86981904D01*
X87931904Y-87077142D01*
X87979523Y-87124761D01*
X88074761Y-87172380D01*
X88265238Y-87172380D01*
X88360476Y-87124761D01*
X88408095Y-87077142D01*
X88455714Y-86981904D01*
X88455714Y-86743809D01*
X88408095Y-86648571D01*
X88360476Y-86600952D01*
X88265238Y-86553333D01*
X88074761Y-86553333D01*
X87979523Y-86600952D01*
X87931904Y-86648571D01*
X87884285Y-86743809D01*
X93183333Y-87152380D02*
X92611904Y-87152380D01*
X92897619Y-87152380D02*
X92897619Y-86152380D01*
X92802380Y-86295238D01*
X92707142Y-86390476D01*
X92611904Y-86438095D01*
X94040476Y-86485714D02*
X94040476Y-87152380D01*
X93611904Y-86485714D02*
X93611904Y-87009523D01*
X93659523Y-87104761D01*
X93754761Y-87152380D01*
X93897619Y-87152380D01*
X93992857Y-87104761D01*
X94040476Y-87057142D01*
%TO.C,C7*%
X96513333Y-98167142D02*
X96465714Y-98214761D01*
X96322857Y-98262380D01*
X96227619Y-98262380D01*
X96084761Y-98214761D01*
X95989523Y-98119523D01*
X95941904Y-98024285D01*
X95894285Y-97833809D01*
X95894285Y-97690952D01*
X95941904Y-97500476D01*
X95989523Y-97405238D01*
X96084761Y-97310000D01*
X96227619Y-97262380D01*
X96322857Y-97262380D01*
X96465714Y-97310000D01*
X96513333Y-97357619D01*
X96846666Y-97262380D02*
X97513333Y-97262380D01*
X97084761Y-98262380D01*
%TO.C,C8*%
X100513333Y-80507142D02*
X100465714Y-80554761D01*
X100322857Y-80602380D01*
X100227619Y-80602380D01*
X100084761Y-80554761D01*
X99989523Y-80459523D01*
X99941904Y-80364285D01*
X99894285Y-80173809D01*
X99894285Y-80030952D01*
X99941904Y-79840476D01*
X99989523Y-79745238D01*
X100084761Y-79650000D01*
X100227619Y-79602380D01*
X100322857Y-79602380D01*
X100465714Y-79650000D01*
X100513333Y-79697619D01*
X101084761Y-80030952D02*
X100989523Y-79983333D01*
X100941904Y-79935714D01*
X100894285Y-79840476D01*
X100894285Y-79792857D01*
X100941904Y-79697619D01*
X100989523Y-79650000D01*
X101084761Y-79602380D01*
X101275238Y-79602380D01*
X101370476Y-79650000D01*
X101418095Y-79697619D01*
X101465714Y-79792857D01*
X101465714Y-79840476D01*
X101418095Y-79935714D01*
X101370476Y-79983333D01*
X101275238Y-80030952D01*
X101084761Y-80030952D01*
X100989523Y-80078571D01*
X100941904Y-80126190D01*
X100894285Y-80221428D01*
X100894285Y-80411904D01*
X100941904Y-80507142D01*
X100989523Y-80554761D01*
X101084761Y-80602380D01*
X101275238Y-80602380D01*
X101370476Y-80554761D01*
X101418095Y-80507142D01*
X101465714Y-80411904D01*
X101465714Y-80221428D01*
X101418095Y-80126190D01*
X101370476Y-80078571D01*
X101275238Y-80030952D01*
%TO.C,D1*%
X86472380Y-94758095D02*
X85472380Y-94758095D01*
X85472380Y-94520000D01*
X85520000Y-94377142D01*
X85615238Y-94281904D01*
X85710476Y-94234285D01*
X85900952Y-94186666D01*
X86043809Y-94186666D01*
X86234285Y-94234285D01*
X86329523Y-94281904D01*
X86424761Y-94377142D01*
X86472380Y-94520000D01*
X86472380Y-94758095D01*
X86472380Y-93234285D02*
X86472380Y-93805714D01*
X86472380Y-93520000D02*
X85472380Y-93520000D01*
X85615238Y-93615238D01*
X85710476Y-93710476D01*
X85758095Y-93805714D01*
%TO.C,D2*%
X97061904Y-95452380D02*
X97061904Y-94452380D01*
X97300000Y-94452380D01*
X97442857Y-94500000D01*
X97538095Y-94595238D01*
X97585714Y-94690476D01*
X97633333Y-94880952D01*
X97633333Y-95023809D01*
X97585714Y-95214285D01*
X97538095Y-95309523D01*
X97442857Y-95404761D01*
X97300000Y-95452380D01*
X97061904Y-95452380D01*
X98014285Y-94547619D02*
X98061904Y-94500000D01*
X98157142Y-94452380D01*
X98395238Y-94452380D01*
X98490476Y-94500000D01*
X98538095Y-94547619D01*
X98585714Y-94642857D01*
X98585714Y-94738095D01*
X98538095Y-94880952D01*
X97966666Y-95452380D01*
X98585714Y-95452380D01*
%TO.C,J1*%
X82976666Y-97572380D02*
X82976666Y-98286666D01*
X82929047Y-98429523D01*
X82833809Y-98524761D01*
X82690952Y-98572380D01*
X82595714Y-98572380D01*
X83976666Y-98572380D02*
X83405238Y-98572380D01*
X83690952Y-98572380D02*
X83690952Y-97572380D01*
X83595714Y-97715238D01*
X83500476Y-97810476D01*
X83405238Y-97858095D01*
%TO.C,J2*%
X75766666Y-92752380D02*
X75766666Y-93466666D01*
X75719047Y-93609523D01*
X75623809Y-93704761D01*
X75480952Y-93752380D01*
X75385714Y-93752380D01*
X76195238Y-92847619D02*
X76242857Y-92800000D01*
X76338095Y-92752380D01*
X76576190Y-92752380D01*
X76671428Y-92800000D01*
X76719047Y-92847619D01*
X76766666Y-92942857D01*
X76766666Y-93038095D01*
X76719047Y-93180952D01*
X76147619Y-93752380D01*
X76766666Y-93752380D01*
%TO.C,J3*%
X108166666Y-102852380D02*
X108166666Y-103566666D01*
X108119047Y-103709523D01*
X108023809Y-103804761D01*
X107880952Y-103852380D01*
X107785714Y-103852380D01*
X108547619Y-102852380D02*
X109166666Y-102852380D01*
X108833333Y-103233333D01*
X108976190Y-103233333D01*
X109071428Y-103280952D01*
X109119047Y-103328571D01*
X109166666Y-103423809D01*
X109166666Y-103661904D01*
X109119047Y-103757142D01*
X109071428Y-103804761D01*
X108976190Y-103852380D01*
X108690476Y-103852380D01*
X108595238Y-103804761D01*
X108547619Y-103757142D01*
%TO.C,J4*%
X81546666Y-90202380D02*
X81546666Y-90916666D01*
X81499047Y-91059523D01*
X81403809Y-91154761D01*
X81260952Y-91202380D01*
X81165714Y-91202380D01*
X82451428Y-90535714D02*
X82451428Y-91202380D01*
X82213333Y-90154761D02*
X81975238Y-90869047D01*
X82594285Y-90869047D01*
%TO.C,J5*%
X84456666Y-74562380D02*
X84456666Y-75276666D01*
X84409047Y-75419523D01*
X84313809Y-75514761D01*
X84170952Y-75562380D01*
X84075714Y-75562380D01*
X85409047Y-74562380D02*
X84932857Y-74562380D01*
X84885238Y-75038571D01*
X84932857Y-74990952D01*
X85028095Y-74943333D01*
X85266190Y-74943333D01*
X85361428Y-74990952D01*
X85409047Y-75038571D01*
X85456666Y-75133809D01*
X85456666Y-75371904D01*
X85409047Y-75467142D01*
X85361428Y-75514761D01*
X85266190Y-75562380D01*
X85028095Y-75562380D01*
X84932857Y-75514761D01*
X84885238Y-75467142D01*
%TO.C,L1*%
X110402380Y-96766666D02*
X110402380Y-97242857D01*
X109402380Y-97242857D01*
X110402380Y-95909523D02*
X110402380Y-96480952D01*
X110402380Y-96195238D02*
X109402380Y-96195238D01*
X109545238Y-96290476D01*
X109640476Y-96385714D01*
X109688095Y-96480952D01*
%TO.C,R1*%
X92302380Y-94129166D02*
X91826190Y-94462500D01*
X92302380Y-94700595D02*
X91302380Y-94700595D01*
X91302380Y-94319642D01*
X91350000Y-94224404D01*
X91397619Y-94176785D01*
X91492857Y-94129166D01*
X91635714Y-94129166D01*
X91730952Y-94176785D01*
X91778571Y-94224404D01*
X91826190Y-94319642D01*
X91826190Y-94700595D01*
X92302380Y-93176785D02*
X92302380Y-93748214D01*
X92302380Y-93462500D02*
X91302380Y-93462500D01*
X91445238Y-93557738D01*
X91540476Y-93652976D01*
X91588095Y-93748214D01*
%TO.C,R2*%
X100482380Y-85436666D02*
X100006190Y-85770000D01*
X100482380Y-86008095D02*
X99482380Y-86008095D01*
X99482380Y-85627142D01*
X99530000Y-85531904D01*
X99577619Y-85484285D01*
X99672857Y-85436666D01*
X99815714Y-85436666D01*
X99910952Y-85484285D01*
X99958571Y-85531904D01*
X100006190Y-85627142D01*
X100006190Y-86008095D01*
X99577619Y-85055714D02*
X99530000Y-85008095D01*
X99482380Y-84912857D01*
X99482380Y-84674761D01*
X99530000Y-84579523D01*
X99577619Y-84531904D01*
X99672857Y-84484285D01*
X99768095Y-84484285D01*
X99910952Y-84531904D01*
X100482380Y-85103333D01*
X100482380Y-84484285D01*
%TO.C,R3*%
X103522380Y-85406666D02*
X103046190Y-85740000D01*
X103522380Y-85978095D02*
X102522380Y-85978095D01*
X102522380Y-85597142D01*
X102570000Y-85501904D01*
X102617619Y-85454285D01*
X102712857Y-85406666D01*
X102855714Y-85406666D01*
X102950952Y-85454285D01*
X102998571Y-85501904D01*
X103046190Y-85597142D01*
X103046190Y-85978095D01*
X102522380Y-85073333D02*
X102522380Y-84454285D01*
X102903333Y-84787619D01*
X102903333Y-84644761D01*
X102950952Y-84549523D01*
X102998571Y-84501904D01*
X103093809Y-84454285D01*
X103331904Y-84454285D01*
X103427142Y-84501904D01*
X103474761Y-84549523D01*
X103522380Y-84644761D01*
X103522380Y-84930476D01*
X103474761Y-85025714D01*
X103427142Y-85073333D01*
%TO.C,VR1*%
X91990476Y-89052380D02*
X92323809Y-90052380D01*
X92657142Y-89052380D01*
X93561904Y-90052380D02*
X93228571Y-89576190D01*
X92990476Y-90052380D02*
X92990476Y-89052380D01*
X93371428Y-89052380D01*
X93466666Y-89100000D01*
X93514285Y-89147619D01*
X93561904Y-89242857D01*
X93561904Y-89385714D01*
X93514285Y-89480952D01*
X93466666Y-89528571D01*
X93371428Y-89576190D01*
X92990476Y-89576190D01*
X94514285Y-90052380D02*
X93942857Y-90052380D01*
X94228571Y-90052380D02*
X94228571Y-89052380D01*
X94133333Y-89195238D01*
X94038095Y-89290476D01*
X93942857Y-89338095D01*
%TD*%
M02*
