%TF.GenerationSoftware,KiCad,Pcbnew,(5.1.10)-1*%
%TF.CreationDate,2021-10-06T11:29:50+02:00*%
%TF.ProjectId,board,626f6172-642e-46b6-9963-61645f706362,rev?*%
%TF.SameCoordinates,Original*%
%TF.FileFunction,Soldermask,Top*%
%TF.FilePolarity,Negative*%
%FSLAX46Y46*%
G04 Gerber Fmt 4.6, Leading zero omitted, Abs format (unit mm)*
G04 Created by KiCad (PCBNEW (5.1.10)-1) date 2021-10-06 11:29:50*
%MOMM*%
%LPD*%
G01*
G04 APERTURE LIST*
%ADD10C,0.100000*%
%ADD11O,2.100000X2.100000*%
G04 APERTURE END LIST*
D10*
G36*
X76000000Y-78000000D02*
G01*
X73000000Y-78000000D01*
X73000000Y-75000000D01*
X76000000Y-75000000D01*
X76000000Y-78000000D01*
G37*
X76000000Y-78000000D02*
X73000000Y-78000000D01*
X73000000Y-75000000D01*
X76000000Y-75000000D01*
X76000000Y-78000000D01*
G36*
X78000000Y-107000000D02*
G01*
X73000000Y-107000000D01*
X73000000Y-104000000D01*
X78000000Y-104000000D01*
X78000000Y-107000000D01*
G37*
X78000000Y-107000000D02*
X73000000Y-107000000D01*
X73000000Y-104000000D01*
X78000000Y-104000000D01*
X78000000Y-107000000D01*
%TO.C,C9*%
G36*
G01*
X113824530Y-104225000D02*
X111375470Y-104225000D01*
G75*
G02*
X111050000Y-103899530I0J325470D01*
G01*
X111050000Y-102825470D01*
G75*
G02*
X111375470Y-102500000I325470J0D01*
G01*
X113824530Y-102500000D01*
G75*
G02*
X114150000Y-102825470I0J-325470D01*
G01*
X114150000Y-103899530D01*
G75*
G02*
X113824530Y-104225000I-325470J0D01*
G01*
G37*
G36*
G01*
X113824530Y-101100000D02*
X111375470Y-101100000D01*
G75*
G02*
X111050000Y-100774530I0J325470D01*
G01*
X111050000Y-99700470D01*
G75*
G02*
X111375470Y-99375000I325470J0D01*
G01*
X113824530Y-99375000D01*
G75*
G02*
X114150000Y-99700470I0J-325470D01*
G01*
X114150000Y-100774530D01*
G75*
G02*
X113824530Y-101100000I-325470J0D01*
G01*
G37*
%TD*%
%TO.C,C1*%
G36*
G01*
X90012500Y-96610000D02*
X91387500Y-96610000D01*
G75*
G02*
X91700000Y-96922500I0J-312500D01*
G01*
X91700000Y-99297500D01*
G75*
G02*
X91387500Y-99610000I-312500J0D01*
G01*
X90012500Y-99610000D01*
G75*
G02*
X89700000Y-99297500I0J312500D01*
G01*
X89700000Y-96922500D01*
G75*
G02*
X90012500Y-96610000I312500J0D01*
G01*
G37*
G36*
G01*
X90012500Y-100210000D02*
X91387500Y-100210000D01*
G75*
G02*
X91700000Y-100522500I0J-312500D01*
G01*
X91700000Y-102897500D01*
G75*
G02*
X91387500Y-103210000I-312500J0D01*
G01*
X90012500Y-103210000D01*
G75*
G02*
X89700000Y-102897500I0J312500D01*
G01*
X89700000Y-100522500D01*
G75*
G02*
X90012500Y-100210000I312500J0D01*
G01*
G37*
%TD*%
%TO.C,C2*%
G36*
G01*
X92140000Y-77762500D02*
X92140000Y-78437500D01*
G75*
G02*
X91802500Y-78775000I-337500J0D01*
G01*
X91002500Y-78775000D01*
G75*
G02*
X90665000Y-78437500I0J337500D01*
G01*
X90665000Y-77762500D01*
G75*
G02*
X91002500Y-77425000I337500J0D01*
G01*
X91802500Y-77425000D01*
G75*
G02*
X92140000Y-77762500I0J-337500D01*
G01*
G37*
G36*
G01*
X90415000Y-77762500D02*
X90415000Y-78437500D01*
G75*
G02*
X90077500Y-78775000I-337500J0D01*
G01*
X89277500Y-78775000D01*
G75*
G02*
X88940000Y-78437500I0J337500D01*
G01*
X88940000Y-77762500D01*
G75*
G02*
X89277500Y-77425000I337500J0D01*
G01*
X90077500Y-77425000D01*
G75*
G02*
X90415000Y-77762500I0J-337500D01*
G01*
G37*
%TD*%
%TO.C,C3*%
G36*
G01*
X92090000Y-80102500D02*
X92090000Y-80777500D01*
G75*
G02*
X91752500Y-81115000I-337500J0D01*
G01*
X90952500Y-81115000D01*
G75*
G02*
X90615000Y-80777500I0J337500D01*
G01*
X90615000Y-80102500D01*
G75*
G02*
X90952500Y-79765000I337500J0D01*
G01*
X91752500Y-79765000D01*
G75*
G02*
X92090000Y-80102500I0J-337500D01*
G01*
G37*
G36*
G01*
X90365000Y-80102500D02*
X90365000Y-80777500D01*
G75*
G02*
X90027500Y-81115000I-337500J0D01*
G01*
X89227500Y-81115000D01*
G75*
G02*
X88890000Y-80777500I0J337500D01*
G01*
X88890000Y-80102500D01*
G75*
G02*
X89227500Y-79765000I337500J0D01*
G01*
X90027500Y-79765000D01*
G75*
G02*
X90365000Y-80102500I0J-337500D01*
G01*
G37*
%TD*%
%TO.C,C4*%
G36*
G01*
X92120000Y-82312500D02*
X92120000Y-82987500D01*
G75*
G02*
X91782500Y-83325000I-337500J0D01*
G01*
X90982500Y-83325000D01*
G75*
G02*
X90645000Y-82987500I0J337500D01*
G01*
X90645000Y-82312500D01*
G75*
G02*
X90982500Y-81975000I337500J0D01*
G01*
X91782500Y-81975000D01*
G75*
G02*
X92120000Y-82312500I0J-337500D01*
G01*
G37*
G36*
G01*
X90395000Y-82312500D02*
X90395000Y-82987500D01*
G75*
G02*
X90057500Y-83325000I-337500J0D01*
G01*
X89257500Y-83325000D01*
G75*
G02*
X88920000Y-82987500I0J337500D01*
G01*
X88920000Y-82312500D01*
G75*
G02*
X89257500Y-81975000I337500J0D01*
G01*
X90057500Y-81975000D01*
G75*
G02*
X90395000Y-82312500I0J-337500D01*
G01*
G37*
%TD*%
%TO.C,C5*%
G36*
G01*
X90395000Y-84352500D02*
X90395000Y-85027500D01*
G75*
G02*
X90057500Y-85365000I-337500J0D01*
G01*
X89257500Y-85365000D01*
G75*
G02*
X88920000Y-85027500I0J337500D01*
G01*
X88920000Y-84352500D01*
G75*
G02*
X89257500Y-84015000I337500J0D01*
G01*
X90057500Y-84015000D01*
G75*
G02*
X90395000Y-84352500I0J-337500D01*
G01*
G37*
G36*
G01*
X92120000Y-84352500D02*
X92120000Y-85027500D01*
G75*
G02*
X91782500Y-85365000I-337500J0D01*
G01*
X90982500Y-85365000D01*
G75*
G02*
X90645000Y-85027500I0J337500D01*
G01*
X90645000Y-84352500D01*
G75*
G02*
X90982500Y-84015000I337500J0D01*
G01*
X91782500Y-84015000D01*
G75*
G02*
X92120000Y-84352500I0J-337500D01*
G01*
G37*
%TD*%
%TO.C,C6*%
G36*
G01*
X92090000Y-86342500D02*
X92090000Y-87017500D01*
G75*
G02*
X91752500Y-87355000I-337500J0D01*
G01*
X90952500Y-87355000D01*
G75*
G02*
X90615000Y-87017500I0J337500D01*
G01*
X90615000Y-86342500D01*
G75*
G02*
X90952500Y-86005000I337500J0D01*
G01*
X91752500Y-86005000D01*
G75*
G02*
X92090000Y-86342500I0J-337500D01*
G01*
G37*
G36*
G01*
X90365000Y-86342500D02*
X90365000Y-87017500D01*
G75*
G02*
X90027500Y-87355000I-337500J0D01*
G01*
X89227500Y-87355000D01*
G75*
G02*
X88890000Y-87017500I0J337500D01*
G01*
X88890000Y-86342500D01*
G75*
G02*
X89227500Y-86005000I337500J0D01*
G01*
X90027500Y-86005000D01*
G75*
G02*
X90365000Y-86342500I0J-337500D01*
G01*
G37*
%TD*%
%TO.C,C7*%
G36*
G01*
X96805000Y-99577500D02*
X96805000Y-98902500D01*
G75*
G02*
X97142500Y-98565000I337500J0D01*
G01*
X97942500Y-98565000D01*
G75*
G02*
X98280000Y-98902500I0J-337500D01*
G01*
X98280000Y-99577500D01*
G75*
G02*
X97942500Y-99915000I-337500J0D01*
G01*
X97142500Y-99915000D01*
G75*
G02*
X96805000Y-99577500I0J337500D01*
G01*
G37*
G36*
G01*
X95080000Y-99577500D02*
X95080000Y-98902500D01*
G75*
G02*
X95417500Y-98565000I337500J0D01*
G01*
X96217500Y-98565000D01*
G75*
G02*
X96555000Y-98902500I0J-337500D01*
G01*
X96555000Y-99577500D01*
G75*
G02*
X96217500Y-99915000I-337500J0D01*
G01*
X95417500Y-99915000D01*
G75*
G02*
X95080000Y-99577500I0J337500D01*
G01*
G37*
%TD*%
%TO.C,C8*%
G36*
G01*
X100805000Y-81917500D02*
X100805000Y-81242500D01*
G75*
G02*
X101142500Y-80905000I337500J0D01*
G01*
X101942500Y-80905000D01*
G75*
G02*
X102280000Y-81242500I0J-337500D01*
G01*
X102280000Y-81917500D01*
G75*
G02*
X101942500Y-82255000I-337500J0D01*
G01*
X101142500Y-82255000D01*
G75*
G02*
X100805000Y-81917500I0J337500D01*
G01*
G37*
G36*
G01*
X99080000Y-81917500D02*
X99080000Y-81242500D01*
G75*
G02*
X99417500Y-80905000I337500J0D01*
G01*
X100217500Y-80905000D01*
G75*
G02*
X100555000Y-81242500I0J-337500D01*
G01*
X100555000Y-81917500D01*
G75*
G02*
X100217500Y-82255000I-337500J0D01*
G01*
X99417500Y-82255000D01*
G75*
G02*
X99080000Y-81917500I0J337500D01*
G01*
G37*
%TD*%
%TO.C,D1*%
G36*
G01*
X86970000Y-92820000D02*
X87670000Y-92820000D01*
G75*
G02*
X87870000Y-93020000I0J-200000D01*
G01*
X87870000Y-93620000D01*
G75*
G02*
X87670000Y-93820000I-200000J0D01*
G01*
X86970000Y-93820000D01*
G75*
G02*
X86770000Y-93620000I0J200000D01*
G01*
X86770000Y-93020000D01*
G75*
G02*
X86970000Y-92820000I200000J0D01*
G01*
G37*
G36*
G01*
X86970000Y-94220000D02*
X87670000Y-94220000D01*
G75*
G02*
X87870000Y-94420000I0J-200000D01*
G01*
X87870000Y-95020000D01*
G75*
G02*
X87670000Y-95220000I-200000J0D01*
G01*
X86970000Y-95220000D01*
G75*
G02*
X86770000Y-95020000I0J200000D01*
G01*
X86770000Y-94420000D01*
G75*
G02*
X86970000Y-94220000I200000J0D01*
G01*
G37*
%TD*%
%TO.C,D2*%
G36*
G01*
X100100000Y-92400000D02*
X100100000Y-93600000D01*
G75*
G02*
X99900000Y-93800000I-200000J0D01*
G01*
X99000000Y-93800000D01*
G75*
G02*
X98800000Y-93600000I0J200000D01*
G01*
X98800000Y-92400000D01*
G75*
G02*
X99000000Y-92200000I200000J0D01*
G01*
X99900000Y-92200000D01*
G75*
G02*
X100100000Y-92400000I0J-200000D01*
G01*
G37*
G36*
G01*
X96800000Y-92400000D02*
X96800000Y-93600000D01*
G75*
G02*
X96600000Y-93800000I-200000J0D01*
G01*
X95700000Y-93800000D01*
G75*
G02*
X95500000Y-93600000I0J200000D01*
G01*
X95500000Y-92400000D01*
G75*
G02*
X95700000Y-92200000I200000J0D01*
G01*
X96600000Y-92200000D01*
G75*
G02*
X96800000Y-92400000I0J-200000D01*
G01*
G37*
%TD*%
%TO.C,J1*%
G36*
G01*
X82260000Y-101300000D02*
X82260000Y-99600000D01*
G75*
G02*
X82460000Y-99400000I200000J0D01*
G01*
X84160000Y-99400000D01*
G75*
G02*
X84360000Y-99600000I0J-200000D01*
G01*
X84360000Y-101300000D01*
G75*
G02*
X84160000Y-101500000I-200000J0D01*
G01*
X82460000Y-101500000D01*
G75*
G02*
X82260000Y-101300000I0J200000D01*
G01*
G37*
D11*
X83310000Y-102990000D03*
%TD*%
%TO.C,J2*%
X76080000Y-98210000D03*
G36*
G01*
X75030000Y-96520000D02*
X75030000Y-94820000D01*
G75*
G02*
X75230000Y-94620000I200000J0D01*
G01*
X76930000Y-94620000D01*
G75*
G02*
X77130000Y-94820000I0J-200000D01*
G01*
X77130000Y-96520000D01*
G75*
G02*
X76930000Y-96720000I-200000J0D01*
G01*
X75230000Y-96720000D01*
G75*
G02*
X75030000Y-96520000I0J200000D01*
G01*
G37*
%TD*%
%TO.C,J3*%
G36*
G01*
X105050000Y-101550000D02*
X105050000Y-99850000D01*
G75*
G02*
X105250000Y-99650000I200000J0D01*
G01*
X106950000Y-99650000D01*
G75*
G02*
X107150000Y-99850000I0J-200000D01*
G01*
X107150000Y-101550000D01*
G75*
G02*
X106950000Y-101750000I-200000J0D01*
G01*
X105250000Y-101750000D01*
G75*
G02*
X105050000Y-101550000I0J200000D01*
G01*
G37*
X106100000Y-103240000D03*
%TD*%
%TO.C,J4*%
G36*
G01*
X79560000Y-93930000D02*
X79560000Y-92230000D01*
G75*
G02*
X79760000Y-92030000I200000J0D01*
G01*
X81460000Y-92030000D01*
G75*
G02*
X81660000Y-92230000I0J-200000D01*
G01*
X81660000Y-93930000D01*
G75*
G02*
X81460000Y-94130000I-200000J0D01*
G01*
X79760000Y-94130000D01*
G75*
G02*
X79560000Y-93930000I0J200000D01*
G01*
G37*
X83150000Y-93080000D03*
X80610000Y-95620000D03*
X83150000Y-95620000D03*
%TD*%
%TO.C,J5*%
G36*
G01*
X82470000Y-78290000D02*
X82470000Y-76590000D01*
G75*
G02*
X82670000Y-76390000I200000J0D01*
G01*
X84370000Y-76390000D01*
G75*
G02*
X84570000Y-76590000I0J-200000D01*
G01*
X84570000Y-78290000D01*
G75*
G02*
X84370000Y-78490000I-200000J0D01*
G01*
X82670000Y-78490000D01*
G75*
G02*
X82470000Y-78290000I0J200000D01*
G01*
G37*
X86060000Y-77440000D03*
X83520000Y-79980000D03*
X86060000Y-79980000D03*
X83520000Y-82520000D03*
X86060000Y-82520000D03*
X83520000Y-85060000D03*
X86060000Y-85060000D03*
X83520000Y-87600000D03*
X86060000Y-87600000D03*
%TD*%
%TO.C,L1*%
G36*
G01*
X112200000Y-86400000D02*
X116200000Y-86400000D01*
G75*
G02*
X116400000Y-86600000I0J-200000D01*
G01*
X116400000Y-89600000D01*
G75*
G02*
X116200000Y-89800000I-200000J0D01*
G01*
X112200000Y-89800000D01*
G75*
G02*
X112000000Y-89600000I0J200000D01*
G01*
X112000000Y-86600000D01*
G75*
G02*
X112200000Y-86400000I200000J0D01*
G01*
G37*
G36*
G01*
X104200000Y-86400000D02*
X108200000Y-86400000D01*
G75*
G02*
X108400000Y-86600000I0J-200000D01*
G01*
X108400000Y-89600000D01*
G75*
G02*
X108200000Y-89800000I-200000J0D01*
G01*
X104200000Y-89800000D01*
G75*
G02*
X104000000Y-89600000I0J200000D01*
G01*
X104000000Y-86600000D01*
G75*
G02*
X104200000Y-86400000I200000J0D01*
G01*
G37*
G36*
G01*
X104200000Y-91400000D02*
X108200000Y-91400000D01*
G75*
G02*
X108400000Y-91600000I0J-200000D01*
G01*
X108400000Y-94600000D01*
G75*
G02*
X108200000Y-94800000I-200000J0D01*
G01*
X104200000Y-94800000D01*
G75*
G02*
X104000000Y-94600000I0J200000D01*
G01*
X104000000Y-91600000D01*
G75*
G02*
X104200000Y-91400000I200000J0D01*
G01*
G37*
G36*
G01*
X112200000Y-91400000D02*
X116200000Y-91400000D01*
G75*
G02*
X116400000Y-91600000I0J-200000D01*
G01*
X116400000Y-94600000D01*
G75*
G02*
X116200000Y-94800000I-200000J0D01*
G01*
X112200000Y-94800000D01*
G75*
G02*
X112000000Y-94600000I0J200000D01*
G01*
X112000000Y-91600000D01*
G75*
G02*
X112200000Y-91400000I200000J0D01*
G01*
G37*
%TD*%
%TO.C,R1*%
G36*
G01*
X90082500Y-92362500D02*
X90757500Y-92362500D01*
G75*
G02*
X91095000Y-92700000I0J-337500D01*
G01*
X91095000Y-93400000D01*
G75*
G02*
X90757500Y-93737500I-337500J0D01*
G01*
X90082500Y-93737500D01*
G75*
G02*
X89745000Y-93400000I0J337500D01*
G01*
X89745000Y-92700000D01*
G75*
G02*
X90082500Y-92362500I337500J0D01*
G01*
G37*
G36*
G01*
X90082500Y-94187500D02*
X90757500Y-94187500D01*
G75*
G02*
X91095000Y-94525000I0J-337500D01*
G01*
X91095000Y-95225000D01*
G75*
G02*
X90757500Y-95562500I-337500J0D01*
G01*
X90082500Y-95562500D01*
G75*
G02*
X89745000Y-95225000I0J337500D01*
G01*
X89745000Y-94525000D01*
G75*
G02*
X90082500Y-94187500I337500J0D01*
G01*
G37*
%TD*%
%TO.C,R2*%
G36*
G01*
X98262500Y-83670000D02*
X98937500Y-83670000D01*
G75*
G02*
X99275000Y-84007500I0J-337500D01*
G01*
X99275000Y-84707500D01*
G75*
G02*
X98937500Y-85045000I-337500J0D01*
G01*
X98262500Y-85045000D01*
G75*
G02*
X97925000Y-84707500I0J337500D01*
G01*
X97925000Y-84007500D01*
G75*
G02*
X98262500Y-83670000I337500J0D01*
G01*
G37*
G36*
G01*
X98262500Y-85495000D02*
X98937500Y-85495000D01*
G75*
G02*
X99275000Y-85832500I0J-337500D01*
G01*
X99275000Y-86532500D01*
G75*
G02*
X98937500Y-86870000I-337500J0D01*
G01*
X98262500Y-86870000D01*
G75*
G02*
X97925000Y-86532500I0J337500D01*
G01*
X97925000Y-85832500D01*
G75*
G02*
X98262500Y-85495000I337500J0D01*
G01*
G37*
%TD*%
%TO.C,R3*%
G36*
G01*
X101302500Y-85465000D02*
X101977500Y-85465000D01*
G75*
G02*
X102315000Y-85802500I0J-337500D01*
G01*
X102315000Y-86502500D01*
G75*
G02*
X101977500Y-86840000I-337500J0D01*
G01*
X101302500Y-86840000D01*
G75*
G02*
X100965000Y-86502500I0J337500D01*
G01*
X100965000Y-85802500D01*
G75*
G02*
X101302500Y-85465000I337500J0D01*
G01*
G37*
G36*
G01*
X101302500Y-83640000D02*
X101977500Y-83640000D01*
G75*
G02*
X102315000Y-83977500I0J-337500D01*
G01*
X102315000Y-84677500D01*
G75*
G02*
X101977500Y-85015000I-337500J0D01*
G01*
X101302500Y-85015000D01*
G75*
G02*
X100965000Y-84677500I0J337500D01*
G01*
X100965000Y-83977500D01*
G75*
G02*
X101302500Y-83640000I337500J0D01*
G01*
G37*
%TD*%
%TO.C,VR1*%
G36*
G01*
X99450000Y-90215000D02*
X99450000Y-90865000D01*
G75*
G02*
X99250000Y-91065000I-200000J0D01*
G01*
X97690000Y-91065000D01*
G75*
G02*
X97490000Y-90865000I0J200000D01*
G01*
X97490000Y-90215000D01*
G75*
G02*
X97690000Y-90015000I200000J0D01*
G01*
X99250000Y-90015000D01*
G75*
G02*
X99450000Y-90215000I0J-200000D01*
G01*
G37*
G36*
G01*
X99450000Y-89265000D02*
X99450000Y-89915000D01*
G75*
G02*
X99250000Y-90115000I-200000J0D01*
G01*
X97690000Y-90115000D01*
G75*
G02*
X97490000Y-89915000I0J200000D01*
G01*
X97490000Y-89265000D01*
G75*
G02*
X97690000Y-89065000I200000J0D01*
G01*
X99250000Y-89065000D01*
G75*
G02*
X99450000Y-89265000I0J-200000D01*
G01*
G37*
G36*
G01*
X99450000Y-88315000D02*
X99450000Y-88965000D01*
G75*
G02*
X99250000Y-89165000I-200000J0D01*
G01*
X97690000Y-89165000D01*
G75*
G02*
X97490000Y-88965000I0J200000D01*
G01*
X97490000Y-88315000D01*
G75*
G02*
X97690000Y-88115000I200000J0D01*
G01*
X99250000Y-88115000D01*
G75*
G02*
X99450000Y-88315000I0J-200000D01*
G01*
G37*
G36*
G01*
X96750000Y-88315000D02*
X96750000Y-88965000D01*
G75*
G02*
X96550000Y-89165000I-200000J0D01*
G01*
X94990000Y-89165000D01*
G75*
G02*
X94790000Y-88965000I0J200000D01*
G01*
X94790000Y-88315000D01*
G75*
G02*
X94990000Y-88115000I200000J0D01*
G01*
X96550000Y-88115000D01*
G75*
G02*
X96750000Y-88315000I0J-200000D01*
G01*
G37*
G36*
G01*
X96750000Y-90215000D02*
X96750000Y-90865000D01*
G75*
G02*
X96550000Y-91065000I-200000J0D01*
G01*
X94990000Y-91065000D01*
G75*
G02*
X94790000Y-90865000I0J200000D01*
G01*
X94790000Y-90215000D01*
G75*
G02*
X94990000Y-90015000I200000J0D01*
G01*
X96550000Y-90015000D01*
G75*
G02*
X96750000Y-90215000I0J-200000D01*
G01*
G37*
%TD*%
M02*
