M48
; DRILL file {KiCad (5.1.10)-1} date 10/06/21 11:29:42
; FORMAT={-:-/ absolute / metric / decimal}
; #@! TF.CreationDate,2021-10-06T11:29:42+02:00
; #@! TF.GenerationSoftware,Kicad,Pcbnew,(5.1.10)-1
; #@! TF.FileFunction,Plated,1,2,PTH
FMAT,2
METRIC
T1C0.200
T2C1.000
T3C3.000
%
G90
G05
T1
X77.9Y-93.6
X79.8Y-98.6
X93.2Y-88.5
X94.2Y-91.9
X98.2Y-97.4
X100.0Y-90.6
X100.9Y-87.6
X103.0Y-89.4
X113.9Y-90.7
T2
X76.08Y-95.67
X76.08Y-98.21
X80.61Y-93.08
X80.61Y-95.62
X83.15Y-93.08
X83.15Y-95.62
X83.31Y-100.45
X83.31Y-102.99
X83.52Y-77.44
X83.52Y-79.98
X83.52Y-82.52
X83.52Y-85.06
X83.52Y-87.6
X86.06Y-77.44
X86.06Y-79.98
X86.06Y-82.52
X86.06Y-85.06
X86.06Y-87.6
X106.1Y-100.7
X106.1Y-103.24
T3
X77.0Y-84.0
X96.0Y-104.0
X111.0Y-81.0
T0
M30
