%TF.GenerationSoftware,KiCad,Pcbnew,(5.1.10)-1*%
%TF.CreationDate,2021-10-08T19:19:36+02:00*%
%TF.ProjectId,board,626f6172-642e-46b6-9963-61645f706362,rev?*%
%TF.SameCoordinates,Original*%
%TF.FileFunction,Copper,L1,Top*%
%TF.FilePolarity,Positive*%
%FSLAX46Y46*%
G04 Gerber Fmt 4.6, Leading zero omitted, Abs format (unit mm)*
G04 Created by KiCad (PCBNEW (5.1.10)-1) date 2021-10-08 19:19:36*
%MOMM*%
%LPD*%
G01*
G04 APERTURE LIST*
%TA.AperFunction,SMDPad,CuDef*%
%ADD10R,0.700000X0.600000*%
%TD*%
%TA.AperFunction,SMDPad,CuDef*%
%ADD11R,0.900000X1.200000*%
%TD*%
%TA.AperFunction,ComponentPad*%
%ADD12R,1.700000X1.700000*%
%TD*%
%TA.AperFunction,ComponentPad*%
%ADD13O,1.700000X1.700000*%
%TD*%
%TA.AperFunction,SMDPad,CuDef*%
%ADD14R,4.000000X3.000000*%
%TD*%
%TA.AperFunction,SMDPad,CuDef*%
%ADD15R,1.560000X0.650000*%
%TD*%
%TA.AperFunction,ViaPad*%
%ADD16C,0.500000*%
%TD*%
%TA.AperFunction,ViaPad*%
%ADD17C,4.000000*%
%TD*%
%TA.AperFunction,Conductor*%
%ADD18C,0.500000*%
%TD*%
%TA.AperFunction,Conductor*%
%ADD19C,0.250000*%
%TD*%
%TA.AperFunction,Conductor*%
%ADD20C,0.254000*%
%TD*%
%TA.AperFunction,Conductor*%
%ADD21C,0.100000*%
%TD*%
G04 APERTURE END LIST*
%TO.P,C9,1*%
%TO.N,GND*%
%TA.AperFunction,SMDPad,CuDef*%
G36*
G01*
X113700002Y-104025000D02*
X111499998Y-104025000D01*
G75*
G02*
X111250000Y-103775002I0J249998D01*
G01*
X111250000Y-102949998D01*
G75*
G02*
X111499998Y-102700000I249998J0D01*
G01*
X113700002Y-102700000D01*
G75*
G02*
X113950000Y-102949998I0J-249998D01*
G01*
X113950000Y-103775002D01*
G75*
G02*
X113700002Y-104025000I-249998J0D01*
G01*
G37*
%TD.AperFunction*%
%TO.P,C9,2*%
%TO.N,~V_OUTPUT*%
%TA.AperFunction,SMDPad,CuDef*%
G36*
G01*
X113700002Y-100900000D02*
X111499998Y-100900000D01*
G75*
G02*
X111250000Y-100650002I0J249998D01*
G01*
X111250000Y-99824998D01*
G75*
G02*
X111499998Y-99575000I249998J0D01*
G01*
X113700002Y-99575000D01*
G75*
G02*
X113950000Y-99824998I0J-249998D01*
G01*
X113950000Y-100650002D01*
G75*
G02*
X113700002Y-100900000I-249998J0D01*
G01*
G37*
%TD.AperFunction*%
%TD*%
%TO.P,C1,1*%
%TO.N,V_INPUT*%
%TA.AperFunction,SMDPad,CuDef*%
G36*
G01*
X90150000Y-96810000D02*
X91250000Y-96810000D01*
G75*
G02*
X91500000Y-97060000I0J-250000D01*
G01*
X91500000Y-99160000D01*
G75*
G02*
X91250000Y-99410000I-250000J0D01*
G01*
X90150000Y-99410000D01*
G75*
G02*
X89900000Y-99160000I0J250000D01*
G01*
X89900000Y-97060000D01*
G75*
G02*
X90150000Y-96810000I250000J0D01*
G01*
G37*
%TD.AperFunction*%
%TO.P,C1,2*%
%TO.N,GND*%
%TA.AperFunction,SMDPad,CuDef*%
G36*
G01*
X90150000Y-100410000D02*
X91250000Y-100410000D01*
G75*
G02*
X91500000Y-100660000I0J-250000D01*
G01*
X91500000Y-102760000D01*
G75*
G02*
X91250000Y-103010000I-250000J0D01*
G01*
X90150000Y-103010000D01*
G75*
G02*
X89900000Y-102760000I0J250000D01*
G01*
X89900000Y-100660000D01*
G75*
G02*
X90150000Y-100410000I250000J0D01*
G01*
G37*
%TD.AperFunction*%
%TD*%
%TO.P,C2,1*%
%TO.N,~V_OUTPUT*%
%TA.AperFunction,SMDPad,CuDef*%
G36*
G01*
X91940000Y-77862500D02*
X91940000Y-78337500D01*
G75*
G02*
X91702500Y-78575000I-237500J0D01*
G01*
X91102500Y-78575000D01*
G75*
G02*
X90865000Y-78337500I0J237500D01*
G01*
X90865000Y-77862500D01*
G75*
G02*
X91102500Y-77625000I237500J0D01*
G01*
X91702500Y-77625000D01*
G75*
G02*
X91940000Y-77862500I0J-237500D01*
G01*
G37*
%TD.AperFunction*%
%TO.P,C2,2*%
%TO.N,Net-(C2-Pad2)*%
%TA.AperFunction,SMDPad,CuDef*%
G36*
G01*
X90215000Y-77862500D02*
X90215000Y-78337500D01*
G75*
G02*
X89977500Y-78575000I-237500J0D01*
G01*
X89377500Y-78575000D01*
G75*
G02*
X89140000Y-78337500I0J237500D01*
G01*
X89140000Y-77862500D01*
G75*
G02*
X89377500Y-77625000I237500J0D01*
G01*
X89977500Y-77625000D01*
G75*
G02*
X90215000Y-77862500I0J-237500D01*
G01*
G37*
%TD.AperFunction*%
%TD*%
%TO.P,C3,1*%
%TO.N,~V_OUTPUT*%
%TA.AperFunction,SMDPad,CuDef*%
G36*
G01*
X91890000Y-80202500D02*
X91890000Y-80677500D01*
G75*
G02*
X91652500Y-80915000I-237500J0D01*
G01*
X91052500Y-80915000D01*
G75*
G02*
X90815000Y-80677500I0J237500D01*
G01*
X90815000Y-80202500D01*
G75*
G02*
X91052500Y-79965000I237500J0D01*
G01*
X91652500Y-79965000D01*
G75*
G02*
X91890000Y-80202500I0J-237500D01*
G01*
G37*
%TD.AperFunction*%
%TO.P,C3,2*%
%TO.N,Net-(C3-Pad2)*%
%TA.AperFunction,SMDPad,CuDef*%
G36*
G01*
X90165000Y-80202500D02*
X90165000Y-80677500D01*
G75*
G02*
X89927500Y-80915000I-237500J0D01*
G01*
X89327500Y-80915000D01*
G75*
G02*
X89090000Y-80677500I0J237500D01*
G01*
X89090000Y-80202500D01*
G75*
G02*
X89327500Y-79965000I237500J0D01*
G01*
X89927500Y-79965000D01*
G75*
G02*
X90165000Y-80202500I0J-237500D01*
G01*
G37*
%TD.AperFunction*%
%TD*%
%TO.P,C4,1*%
%TO.N,~V_OUTPUT*%
%TA.AperFunction,SMDPad,CuDef*%
G36*
G01*
X91920000Y-82412500D02*
X91920000Y-82887500D01*
G75*
G02*
X91682500Y-83125000I-237500J0D01*
G01*
X91082500Y-83125000D01*
G75*
G02*
X90845000Y-82887500I0J237500D01*
G01*
X90845000Y-82412500D01*
G75*
G02*
X91082500Y-82175000I237500J0D01*
G01*
X91682500Y-82175000D01*
G75*
G02*
X91920000Y-82412500I0J-237500D01*
G01*
G37*
%TD.AperFunction*%
%TO.P,C4,2*%
%TO.N,Net-(C4-Pad2)*%
%TA.AperFunction,SMDPad,CuDef*%
G36*
G01*
X90195000Y-82412500D02*
X90195000Y-82887500D01*
G75*
G02*
X89957500Y-83125000I-237500J0D01*
G01*
X89357500Y-83125000D01*
G75*
G02*
X89120000Y-82887500I0J237500D01*
G01*
X89120000Y-82412500D01*
G75*
G02*
X89357500Y-82175000I237500J0D01*
G01*
X89957500Y-82175000D01*
G75*
G02*
X90195000Y-82412500I0J-237500D01*
G01*
G37*
%TD.AperFunction*%
%TD*%
%TO.P,C5,2*%
%TO.N,Net-(C5-Pad2)*%
%TA.AperFunction,SMDPad,CuDef*%
G36*
G01*
X90195000Y-84452500D02*
X90195000Y-84927500D01*
G75*
G02*
X89957500Y-85165000I-237500J0D01*
G01*
X89357500Y-85165000D01*
G75*
G02*
X89120000Y-84927500I0J237500D01*
G01*
X89120000Y-84452500D01*
G75*
G02*
X89357500Y-84215000I237500J0D01*
G01*
X89957500Y-84215000D01*
G75*
G02*
X90195000Y-84452500I0J-237500D01*
G01*
G37*
%TD.AperFunction*%
%TO.P,C5,1*%
%TO.N,~V_OUTPUT*%
%TA.AperFunction,SMDPad,CuDef*%
G36*
G01*
X91920000Y-84452500D02*
X91920000Y-84927500D01*
G75*
G02*
X91682500Y-85165000I-237500J0D01*
G01*
X91082500Y-85165000D01*
G75*
G02*
X90845000Y-84927500I0J237500D01*
G01*
X90845000Y-84452500D01*
G75*
G02*
X91082500Y-84215000I237500J0D01*
G01*
X91682500Y-84215000D01*
G75*
G02*
X91920000Y-84452500I0J-237500D01*
G01*
G37*
%TD.AperFunction*%
%TD*%
%TO.P,C6,1*%
%TO.N,~V_OUTPUT*%
%TA.AperFunction,SMDPad,CuDef*%
G36*
G01*
X91890000Y-86442500D02*
X91890000Y-86917500D01*
G75*
G02*
X91652500Y-87155000I-237500J0D01*
G01*
X91052500Y-87155000D01*
G75*
G02*
X90815000Y-86917500I0J237500D01*
G01*
X90815000Y-86442500D01*
G75*
G02*
X91052500Y-86205000I237500J0D01*
G01*
X91652500Y-86205000D01*
G75*
G02*
X91890000Y-86442500I0J-237500D01*
G01*
G37*
%TD.AperFunction*%
%TO.P,C6,2*%
%TO.N,Net-(C6-Pad2)*%
%TA.AperFunction,SMDPad,CuDef*%
G36*
G01*
X90165000Y-86442500D02*
X90165000Y-86917500D01*
G75*
G02*
X89927500Y-87155000I-237500J0D01*
G01*
X89327500Y-87155000D01*
G75*
G02*
X89090000Y-86917500I0J237500D01*
G01*
X89090000Y-86442500D01*
G75*
G02*
X89327500Y-86205000I237500J0D01*
G01*
X89927500Y-86205000D01*
G75*
G02*
X90165000Y-86442500I0J-237500D01*
G01*
G37*
%TD.AperFunction*%
%TD*%
%TO.P,C7,2*%
%TO.N,Net-(C7-Pad2)*%
%TA.AperFunction,SMDPad,CuDef*%
G36*
G01*
X97005000Y-99477500D02*
X97005000Y-99002500D01*
G75*
G02*
X97242500Y-98765000I237500J0D01*
G01*
X97842500Y-98765000D01*
G75*
G02*
X98080000Y-99002500I0J-237500D01*
G01*
X98080000Y-99477500D01*
G75*
G02*
X97842500Y-99715000I-237500J0D01*
G01*
X97242500Y-99715000D01*
G75*
G02*
X97005000Y-99477500I0J237500D01*
G01*
G37*
%TD.AperFunction*%
%TO.P,C7,1*%
%TO.N,Net-(C7-Pad1)*%
%TA.AperFunction,SMDPad,CuDef*%
G36*
G01*
X95280000Y-99477500D02*
X95280000Y-99002500D01*
G75*
G02*
X95517500Y-98765000I237500J0D01*
G01*
X96117500Y-98765000D01*
G75*
G02*
X96355000Y-99002500I0J-237500D01*
G01*
X96355000Y-99477500D01*
G75*
G02*
X96117500Y-99715000I-237500J0D01*
G01*
X95517500Y-99715000D01*
G75*
G02*
X95280000Y-99477500I0J237500D01*
G01*
G37*
%TD.AperFunction*%
%TD*%
%TO.P,C8,2*%
%TO.N,Net-(C8-Pad2)*%
%TA.AperFunction,SMDPad,CuDef*%
G36*
G01*
X101005000Y-81817500D02*
X101005000Y-81342500D01*
G75*
G02*
X101242500Y-81105000I237500J0D01*
G01*
X101842500Y-81105000D01*
G75*
G02*
X102080000Y-81342500I0J-237500D01*
G01*
X102080000Y-81817500D01*
G75*
G02*
X101842500Y-82055000I-237500J0D01*
G01*
X101242500Y-82055000D01*
G75*
G02*
X101005000Y-81817500I0J237500D01*
G01*
G37*
%TD.AperFunction*%
%TO.P,C8,1*%
%TO.N,~V_OUTPUT*%
%TA.AperFunction,SMDPad,CuDef*%
G36*
G01*
X99280000Y-81817500D02*
X99280000Y-81342500D01*
G75*
G02*
X99517500Y-81105000I237500J0D01*
G01*
X100117500Y-81105000D01*
G75*
G02*
X100355000Y-81342500I0J-237500D01*
G01*
X100355000Y-81817500D01*
G75*
G02*
X100117500Y-82055000I-237500J0D01*
G01*
X99517500Y-82055000D01*
G75*
G02*
X99280000Y-81817500I0J237500D01*
G01*
G37*
%TD.AperFunction*%
%TD*%
D10*
%TO.P,D1,2*%
%TO.N,Net-(D1-Pad2)*%
X87320000Y-93320000D03*
%TO.P,D1,1*%
%TO.N,Net-(D1-Pad1)*%
X87320000Y-94720000D03*
%TD*%
D11*
%TO.P,D2,1*%
%TO.N,GND*%
X99450000Y-93000000D03*
%TO.P,D2,2*%
%TO.N,Net-(C7-Pad1)*%
X96150000Y-93000000D03*
%TD*%
D12*
%TO.P,J1,1*%
%TO.N,V_INPUT*%
X83310000Y-100450000D03*
D13*
%TO.P,J1,2*%
%TO.N,GND*%
X83310000Y-102990000D03*
%TD*%
%TO.P,J2,2*%
%TO.N,GND*%
X76080000Y-98210000D03*
D12*
%TO.P,J2,1*%
%TO.N,~V_SHDN*%
X76080000Y-95670000D03*
%TD*%
%TO.P,J3,1*%
%TO.N,~V_OUTPUT*%
X106100000Y-100700000D03*
D13*
%TO.P,J3,2*%
%TO.N,GND*%
X106100000Y-103240000D03*
%TD*%
D12*
%TO.P,J4,1*%
%TO.N,V_INPUT*%
X80610000Y-93080000D03*
D13*
%TO.P,J4,2*%
%TO.N,Net-(D1-Pad1)*%
X83150000Y-93080000D03*
%TO.P,J4,3*%
%TO.N,~V_SHDN*%
X80610000Y-95620000D03*
%TO.P,J4,4*%
%TO.N,Net-(D1-Pad1)*%
X83150000Y-95620000D03*
%TD*%
D12*
%TO.P,J5,1*%
%TO.N,Net-(D1-Pad2)*%
X83520000Y-77440000D03*
D13*
%TO.P,J5,2*%
%TO.N,Net-(C2-Pad2)*%
X86060000Y-77440000D03*
%TO.P,J5,3*%
%TO.N,Net-(D1-Pad2)*%
X83520000Y-79980000D03*
%TO.P,J5,4*%
%TO.N,Net-(C3-Pad2)*%
X86060000Y-79980000D03*
%TO.P,J5,5*%
%TO.N,Net-(D1-Pad2)*%
X83520000Y-82520000D03*
%TO.P,J5,6*%
%TO.N,Net-(C4-Pad2)*%
X86060000Y-82520000D03*
%TO.P,J5,7*%
%TO.N,Net-(D1-Pad2)*%
X83520000Y-85060000D03*
%TO.P,J5,8*%
%TO.N,Net-(C5-Pad2)*%
X86060000Y-85060000D03*
%TO.P,J5,9*%
%TO.N,Net-(D1-Pad2)*%
X83520000Y-87600000D03*
%TO.P,J5,10*%
%TO.N,Net-(C6-Pad2)*%
X86060000Y-87600000D03*
%TD*%
D14*
%TO.P,L1,1*%
%TO.N,Net-(C7-Pad2)*%
X114200000Y-88100000D03*
%TO.P,L1,2*%
%TO.N,V_INPUT*%
X106200000Y-88100000D03*
%TO.P,L1,3*%
%TO.N,Net-(C7-Pad1)*%
X106200000Y-93100000D03*
%TO.P,L1,4*%
%TO.N,~V_OUTPUT*%
X114200000Y-93100000D03*
%TD*%
%TO.P,R1,1*%
%TO.N,Net-(D1-Pad2)*%
%TA.AperFunction,SMDPad,CuDef*%
G36*
G01*
X90182500Y-92562500D02*
X90657500Y-92562500D01*
G75*
G02*
X90895000Y-92800000I0J-237500D01*
G01*
X90895000Y-93300000D01*
G75*
G02*
X90657500Y-93537500I-237500J0D01*
G01*
X90182500Y-93537500D01*
G75*
G02*
X89945000Y-93300000I0J237500D01*
G01*
X89945000Y-92800000D01*
G75*
G02*
X90182500Y-92562500I237500J0D01*
G01*
G37*
%TD.AperFunction*%
%TO.P,R1,2*%
%TO.N,Net-(D1-Pad1)*%
%TA.AperFunction,SMDPad,CuDef*%
G36*
G01*
X90182500Y-94387500D02*
X90657500Y-94387500D01*
G75*
G02*
X90895000Y-94625000I0J-237500D01*
G01*
X90895000Y-95125000D01*
G75*
G02*
X90657500Y-95362500I-237500J0D01*
G01*
X90182500Y-95362500D01*
G75*
G02*
X89945000Y-95125000I0J237500D01*
G01*
X89945000Y-94625000D01*
G75*
G02*
X90182500Y-94387500I237500J0D01*
G01*
G37*
%TD.AperFunction*%
%TD*%
%TO.P,R2,1*%
%TO.N,~V_OUTPUT*%
%TA.AperFunction,SMDPad,CuDef*%
G36*
G01*
X98362500Y-83870000D02*
X98837500Y-83870000D01*
G75*
G02*
X99075000Y-84107500I0J-237500D01*
G01*
X99075000Y-84607500D01*
G75*
G02*
X98837500Y-84845000I-237500J0D01*
G01*
X98362500Y-84845000D01*
G75*
G02*
X98125000Y-84607500I0J237500D01*
G01*
X98125000Y-84107500D01*
G75*
G02*
X98362500Y-83870000I237500J0D01*
G01*
G37*
%TD.AperFunction*%
%TO.P,R2,2*%
%TO.N,Net-(C8-Pad2)*%
%TA.AperFunction,SMDPad,CuDef*%
G36*
G01*
X98362500Y-85695000D02*
X98837500Y-85695000D01*
G75*
G02*
X99075000Y-85932500I0J-237500D01*
G01*
X99075000Y-86432500D01*
G75*
G02*
X98837500Y-86670000I-237500J0D01*
G01*
X98362500Y-86670000D01*
G75*
G02*
X98125000Y-86432500I0J237500D01*
G01*
X98125000Y-85932500D01*
G75*
G02*
X98362500Y-85695000I237500J0D01*
G01*
G37*
%TD.AperFunction*%
%TD*%
%TO.P,R3,2*%
%TO.N,GND*%
%TA.AperFunction,SMDPad,CuDef*%
G36*
G01*
X101402500Y-85665000D02*
X101877500Y-85665000D01*
G75*
G02*
X102115000Y-85902500I0J-237500D01*
G01*
X102115000Y-86402500D01*
G75*
G02*
X101877500Y-86640000I-237500J0D01*
G01*
X101402500Y-86640000D01*
G75*
G02*
X101165000Y-86402500I0J237500D01*
G01*
X101165000Y-85902500D01*
G75*
G02*
X101402500Y-85665000I237500J0D01*
G01*
G37*
%TD.AperFunction*%
%TO.P,R3,1*%
%TO.N,Net-(C8-Pad2)*%
%TA.AperFunction,SMDPad,CuDef*%
G36*
G01*
X101402500Y-83840000D02*
X101877500Y-83840000D01*
G75*
G02*
X102115000Y-84077500I0J-237500D01*
G01*
X102115000Y-84577500D01*
G75*
G02*
X101877500Y-84815000I-237500J0D01*
G01*
X101402500Y-84815000D01*
G75*
G02*
X101165000Y-84577500I0J237500D01*
G01*
X101165000Y-84077500D01*
G75*
G02*
X101402500Y-83840000I237500J0D01*
G01*
G37*
%TD.AperFunction*%
%TD*%
D15*
%TO.P,VR1,1*%
%TO.N,Net-(C7-Pad2)*%
X98470000Y-90540000D03*
%TO.P,VR1,2*%
%TO.N,GND*%
X98470000Y-89590000D03*
%TO.P,VR1,3*%
%TO.N,Net-(C8-Pad2)*%
X98470000Y-88640000D03*
%TO.P,VR1,4*%
%TO.N,Net-(D1-Pad2)*%
X95770000Y-88640000D03*
%TO.P,VR1,5*%
%TO.N,V_INPUT*%
X95770000Y-90540000D03*
%TD*%
D16*
%TO.N,V_INPUT*%
X100900000Y-87600000D03*
X93200000Y-88500000D03*
X77900000Y-93600000D03*
X79800000Y-98600000D03*
D17*
%TO.N,GND*%
X77000000Y-84000000D03*
X111000000Y-81000000D03*
X96000000Y-104000000D03*
D16*
%TO.N,Net-(C7-Pad2)*%
X98200000Y-97400000D03*
X100000000Y-90600000D03*
X113900000Y-90700000D03*
%TO.N,Net-(C7-Pad1)*%
X103000000Y-89400000D03*
X94200000Y-91900000D03*
%TD*%
D18*
%TO.N,V_INPUT*%
X90700000Y-98110000D02*
X93100000Y-95710000D01*
X94640748Y-90540000D02*
X95770000Y-90540000D01*
X93100000Y-92080748D02*
X94640748Y-90540000D01*
X93100000Y-95710000D02*
X93100000Y-92080748D01*
X101400000Y-88100000D02*
X100900000Y-87600000D01*
X106200000Y-88100000D02*
X101400000Y-88100000D01*
X93200000Y-89099252D02*
X94640748Y-90540000D01*
X93200000Y-88500000D02*
X93200000Y-89099252D01*
X78420000Y-93080000D02*
X77900000Y-93600000D01*
X80610000Y-93080000D02*
X78420000Y-93080000D01*
X81460000Y-98600000D02*
X83310000Y-100450000D01*
X79800000Y-98600000D02*
X81460000Y-98600000D01*
X88360000Y-100450000D02*
X90700000Y-98110000D01*
X83310000Y-100450000D02*
X88360000Y-100450000D01*
%TO.N,~V_OUTPUT*%
X91402500Y-80390000D02*
X91352500Y-80440000D01*
X91402500Y-78100000D02*
X91402500Y-80390000D01*
X91352500Y-80440000D02*
X91352500Y-86680000D01*
X98267500Y-84690000D02*
X98600000Y-84357500D01*
X91382500Y-84690000D02*
X98267500Y-84690000D01*
X98600000Y-82797500D02*
X99817500Y-81580000D01*
X98600000Y-84357500D02*
X98600000Y-82797500D01*
X99817500Y-81580000D02*
X101197500Y-80200000D01*
X101197500Y-80200000D02*
X106400000Y-80200000D01*
X106400000Y-80200000D02*
X110400000Y-84200000D01*
X110400000Y-89300000D02*
X114200000Y-93100000D01*
X110400000Y-84200000D02*
X110400000Y-89300000D01*
X114200000Y-98637500D02*
X112600000Y-100237500D01*
X114200000Y-93100000D02*
X114200000Y-98637500D01*
X112137500Y-100700000D02*
X112600000Y-100237500D01*
X106100000Y-100700000D02*
X112137500Y-100700000D01*
%TO.N,Net-(C2-Pad2)*%
X89017500Y-77440000D02*
X89677500Y-78100000D01*
X86060000Y-77440000D02*
X89017500Y-77440000D01*
%TO.N,Net-(C3-Pad2)*%
X89167500Y-79980000D02*
X89627500Y-80440000D01*
X86060000Y-79980000D02*
X89167500Y-79980000D01*
%TO.N,Net-(C4-Pad2)*%
X89527500Y-82520000D02*
X89657500Y-82650000D01*
X86060000Y-82520000D02*
X89527500Y-82520000D01*
%TO.N,Net-(C5-Pad2)*%
X89287500Y-85060000D02*
X89657500Y-84690000D01*
X86060000Y-85060000D02*
X89287500Y-85060000D01*
%TO.N,Net-(C6-Pad2)*%
X88707500Y-87600000D02*
X89627500Y-86680000D01*
X86060000Y-87600000D02*
X88707500Y-87600000D01*
%TO.N,Net-(C7-Pad2)*%
X98200000Y-98582500D02*
X97542500Y-99240000D01*
X98200000Y-97400000D02*
X98200000Y-98582500D01*
X99940000Y-90540000D02*
X100000000Y-90600000D01*
X98470000Y-90540000D02*
X99940000Y-90540000D01*
X113900000Y-88400000D02*
X114200000Y-88100000D01*
X113900000Y-90700000D02*
X113900000Y-88400000D01*
%TO.N,Net-(C7-Pad1)*%
X95817500Y-93332500D02*
X96150000Y-93000000D01*
X95817500Y-99240000D02*
X95817500Y-93332500D01*
X94200000Y-91900000D02*
X94200000Y-92600000D01*
X94600000Y-93000000D02*
X96150000Y-93000000D01*
X94200000Y-92600000D02*
X94600000Y-93000000D01*
X103000000Y-89900000D02*
X106200000Y-93100000D01*
X103000000Y-89400000D02*
X103000000Y-89900000D01*
%TO.N,Net-(C8-Pad2)*%
X101542500Y-84230000D02*
X101640000Y-84327500D01*
X101542500Y-81580000D02*
X101542500Y-84230000D01*
X99785000Y-86182500D02*
X101640000Y-84327500D01*
X98600000Y-86182500D02*
X99785000Y-86182500D01*
X98600000Y-88510000D02*
X98470000Y-88640000D01*
X98600000Y-86182500D02*
X98600000Y-88510000D01*
D19*
%TO.N,Net-(D1-Pad2)*%
X90150000Y-93320000D02*
X90420000Y-93050000D01*
D18*
X94030000Y-86900000D02*
X95770000Y-88640000D01*
X93200000Y-86900000D02*
X94030000Y-86900000D01*
X90420000Y-89680000D02*
X93200000Y-86900000D01*
X90420000Y-93050000D02*
X90420000Y-89680000D01*
X87590000Y-93050000D02*
X87320000Y-93320000D01*
X90420000Y-93050000D02*
X87590000Y-93050000D01*
X83520000Y-89520000D02*
X87320000Y-93320000D01*
X83520000Y-87600000D02*
X83520000Y-89520000D01*
X83520000Y-77440000D02*
X83520000Y-87600000D01*
%TO.N,Net-(D1-Pad1)*%
X84050000Y-94720000D02*
X83150000Y-95620000D01*
X87320000Y-94720000D02*
X84050000Y-94720000D01*
X83150000Y-93080000D02*
X83150000Y-95620000D01*
X90265000Y-94720000D02*
X90420000Y-94875000D01*
X87320000Y-94720000D02*
X90265000Y-94720000D01*
%TO.N,~V_SHDN*%
X80160000Y-95170000D02*
X80610000Y-95620000D01*
X80560000Y-95670000D02*
X80610000Y-95620000D01*
X76080000Y-95670000D02*
X80560000Y-95670000D01*
%TD*%
D20*
%TO.N,GND*%
X116548000Y-86350957D02*
X116503395Y-86296605D01*
X116438376Y-86243245D01*
X116364196Y-86203595D01*
X116283707Y-86179178D01*
X116200000Y-86170934D01*
X112200000Y-86170934D01*
X112116293Y-86179178D01*
X112035804Y-86203595D01*
X111961624Y-86243245D01*
X111896605Y-86296605D01*
X111843245Y-86361624D01*
X111803595Y-86435804D01*
X111779178Y-86516293D01*
X111770934Y-86600000D01*
X111770934Y-89600000D01*
X111779178Y-89683707D01*
X111795747Y-89738324D01*
X111077000Y-89019578D01*
X111077000Y-84233241D01*
X111080274Y-84199999D01*
X111077000Y-84166757D01*
X111077000Y-84166748D01*
X111067204Y-84067285D01*
X111028492Y-83939670D01*
X110965628Y-83822059D01*
X110881026Y-83718973D01*
X110855200Y-83697778D01*
X106902226Y-79744804D01*
X106881027Y-79718973D01*
X106777941Y-79634372D01*
X106660330Y-79571508D01*
X106532715Y-79532796D01*
X106433252Y-79523000D01*
X106433245Y-79523000D01*
X106400000Y-79519726D01*
X106366755Y-79523000D01*
X101230752Y-79523000D01*
X101197500Y-79519725D01*
X101164248Y-79523000D01*
X101064785Y-79532796D01*
X100937170Y-79571508D01*
X100819559Y-79634372D01*
X100716473Y-79718973D01*
X100695278Y-79744799D01*
X99764144Y-80675934D01*
X99517500Y-80675934D01*
X99387459Y-80688742D01*
X99262416Y-80726673D01*
X99147176Y-80788271D01*
X99046167Y-80871167D01*
X98963271Y-80972176D01*
X98901673Y-81087416D01*
X98863742Y-81212459D01*
X98850934Y-81342500D01*
X98850934Y-81589144D01*
X98144800Y-82295278D01*
X98118974Y-82316473D01*
X98097779Y-82342299D01*
X98097776Y-82342302D01*
X98034372Y-82419560D01*
X97971508Y-82537171D01*
X97932796Y-82664786D01*
X97919726Y-82797500D01*
X97923001Y-82830754D01*
X97923000Y-83610042D01*
X97891167Y-83636167D01*
X97808271Y-83737176D01*
X97746673Y-83852416D01*
X97708742Y-83977459D01*
X97705241Y-84013000D01*
X92179958Y-84013000D01*
X92153833Y-83981167D01*
X92052824Y-83898271D01*
X92029500Y-83885804D01*
X92029500Y-83454196D01*
X92052824Y-83441729D01*
X92153833Y-83358833D01*
X92236729Y-83257824D01*
X92298327Y-83142584D01*
X92336258Y-83017541D01*
X92349066Y-82887500D01*
X92349066Y-82412500D01*
X92336258Y-82282459D01*
X92298327Y-82157416D01*
X92236729Y-82042176D01*
X92153833Y-81941167D01*
X92052824Y-81858271D01*
X92029500Y-81845804D01*
X92029500Y-81226250D01*
X92123833Y-81148833D01*
X92206729Y-81047824D01*
X92268327Y-80932584D01*
X92306258Y-80807541D01*
X92319066Y-80677500D01*
X92319066Y-80202500D01*
X92306258Y-80072459D01*
X92268327Y-79947416D01*
X92206729Y-79832176D01*
X92123833Y-79731167D01*
X92079500Y-79694784D01*
X92079500Y-78886250D01*
X92173833Y-78808833D01*
X92256729Y-78707824D01*
X92318327Y-78592584D01*
X92356258Y-78467541D01*
X92369066Y-78337500D01*
X92369066Y-77862500D01*
X92356258Y-77732459D01*
X92318327Y-77607416D01*
X92256729Y-77492176D01*
X92173833Y-77391167D01*
X92072824Y-77308271D01*
X91957584Y-77246673D01*
X91832541Y-77208742D01*
X91702500Y-77195934D01*
X91102500Y-77195934D01*
X90972459Y-77208742D01*
X90847416Y-77246673D01*
X90732176Y-77308271D01*
X90631167Y-77391167D01*
X90548271Y-77492176D01*
X90540000Y-77507650D01*
X90531729Y-77492176D01*
X90448833Y-77391167D01*
X90347824Y-77308271D01*
X90232584Y-77246673D01*
X90107541Y-77208742D01*
X89977500Y-77195934D01*
X89730856Y-77195934D01*
X89519726Y-76984804D01*
X89498527Y-76958973D01*
X89395441Y-76874372D01*
X89277830Y-76811508D01*
X89150215Y-76772796D01*
X89050752Y-76763000D01*
X89050745Y-76763000D01*
X89017500Y-76759726D01*
X88984255Y-76763000D01*
X87143478Y-76763000D01*
X87051911Y-76625960D01*
X86874040Y-76448089D01*
X86664886Y-76308337D01*
X86432487Y-76212074D01*
X86185774Y-76163000D01*
X85934226Y-76163000D01*
X85687513Y-76212074D01*
X85455114Y-76308337D01*
X85245960Y-76448089D01*
X85068089Y-76625960D01*
X84928337Y-76835114D01*
X84832074Y-77067513D01*
X84799066Y-77233456D01*
X84799066Y-76590000D01*
X84790822Y-76506293D01*
X84766405Y-76425804D01*
X84726755Y-76351624D01*
X84673395Y-76286605D01*
X84608376Y-76233245D01*
X84534196Y-76193595D01*
X84453707Y-76169178D01*
X84370000Y-76160934D01*
X82670000Y-76160934D01*
X82586293Y-76169178D01*
X82505804Y-76193595D01*
X82431624Y-76233245D01*
X82366605Y-76286605D01*
X82313245Y-76351624D01*
X82273595Y-76425804D01*
X82249178Y-76506293D01*
X82240934Y-76590000D01*
X82240934Y-78290000D01*
X82249178Y-78373707D01*
X82273595Y-78454196D01*
X82313245Y-78528376D01*
X82366605Y-78593395D01*
X82431624Y-78646755D01*
X82505804Y-78686405D01*
X82586293Y-78710822D01*
X82670000Y-78719066D01*
X82843000Y-78719066D01*
X82843000Y-78896522D01*
X82705960Y-78988089D01*
X82528089Y-79165960D01*
X82388337Y-79375114D01*
X82292074Y-79607513D01*
X82243000Y-79854226D01*
X82243000Y-80105774D01*
X82292074Y-80352487D01*
X82388337Y-80584886D01*
X82528089Y-80794040D01*
X82705960Y-80971911D01*
X82843000Y-81063478D01*
X82843000Y-81436522D01*
X82705960Y-81528089D01*
X82528089Y-81705960D01*
X82388337Y-81915114D01*
X82292074Y-82147513D01*
X82243000Y-82394226D01*
X82243000Y-82645774D01*
X82292074Y-82892487D01*
X82388337Y-83124886D01*
X82528089Y-83334040D01*
X82705960Y-83511911D01*
X82843001Y-83603478D01*
X82843001Y-83976522D01*
X82705960Y-84068089D01*
X82528089Y-84245960D01*
X82388337Y-84455114D01*
X82292074Y-84687513D01*
X82243000Y-84934226D01*
X82243000Y-85185774D01*
X82292074Y-85432487D01*
X82388337Y-85664886D01*
X82528089Y-85874040D01*
X82705960Y-86051911D01*
X82843001Y-86143479D01*
X82843001Y-86516521D01*
X82705960Y-86608089D01*
X82528089Y-86785960D01*
X82388337Y-86995114D01*
X82292074Y-87227513D01*
X82243000Y-87474226D01*
X82243000Y-87725774D01*
X82292074Y-87972487D01*
X82388337Y-88204886D01*
X82528089Y-88414040D01*
X82705960Y-88591911D01*
X82843001Y-88683478D01*
X82843001Y-89486746D01*
X82839726Y-89520000D01*
X82852796Y-89652714D01*
X82891508Y-89780329D01*
X82954372Y-89897940D01*
X83017776Y-89975198D01*
X83017779Y-89975201D01*
X83038974Y-90001027D01*
X83064800Y-90022222D01*
X86540934Y-93498357D01*
X86540934Y-93620000D01*
X86549178Y-93703707D01*
X86573595Y-93784196D01*
X86613245Y-93858376D01*
X86666605Y-93923395D01*
X86731624Y-93976755D01*
X86805804Y-94016405D01*
X86817655Y-94020000D01*
X86805804Y-94023595D01*
X86769500Y-94043000D01*
X84083241Y-94043000D01*
X84049999Y-94039726D01*
X84016757Y-94043000D01*
X84016748Y-94043000D01*
X83990351Y-94045600D01*
X84141911Y-93894040D01*
X84281663Y-93684886D01*
X84377926Y-93452487D01*
X84427000Y-93205774D01*
X84427000Y-92954226D01*
X84377926Y-92707513D01*
X84281663Y-92475114D01*
X84141911Y-92265960D01*
X83964040Y-92088089D01*
X83754886Y-91948337D01*
X83522487Y-91852074D01*
X83275774Y-91803000D01*
X83024226Y-91803000D01*
X82777513Y-91852074D01*
X82545114Y-91948337D01*
X82335960Y-92088089D01*
X82158089Y-92265960D01*
X82018337Y-92475114D01*
X81922074Y-92707513D01*
X81889066Y-92873456D01*
X81889066Y-92230000D01*
X81880822Y-92146293D01*
X81856405Y-92065804D01*
X81816755Y-91991624D01*
X81763395Y-91926605D01*
X81698376Y-91873245D01*
X81624196Y-91833595D01*
X81543707Y-91809178D01*
X81460000Y-91800934D01*
X79760000Y-91800934D01*
X79676293Y-91809178D01*
X79595804Y-91833595D01*
X79521624Y-91873245D01*
X79456605Y-91926605D01*
X79403245Y-91991624D01*
X79363595Y-92065804D01*
X79339178Y-92146293D01*
X79330934Y-92230000D01*
X79330934Y-92403000D01*
X78453244Y-92403000D01*
X78419999Y-92399726D01*
X78386754Y-92403000D01*
X78386748Y-92403000D01*
X78287285Y-92412796D01*
X78159670Y-92451508D01*
X78042059Y-92514372D01*
X77938973Y-92598973D01*
X77917774Y-92624804D01*
X77468440Y-93074138D01*
X77468437Y-93074140D01*
X77374140Y-93168437D01*
X77355565Y-93196236D01*
X77334372Y-93222060D01*
X77318625Y-93251520D01*
X77300050Y-93279320D01*
X77287254Y-93310212D01*
X77271508Y-93339671D01*
X77261812Y-93371634D01*
X77249016Y-93402526D01*
X77242493Y-93435318D01*
X77232796Y-93467286D01*
X77229522Y-93500533D01*
X77223000Y-93533321D01*
X77223000Y-93566755D01*
X77219726Y-93600000D01*
X77223000Y-93633245D01*
X77223000Y-93666679D01*
X77229522Y-93699467D01*
X77232796Y-93732714D01*
X77242493Y-93764682D01*
X77249016Y-93797474D01*
X77261812Y-93828366D01*
X77271508Y-93860329D01*
X77287254Y-93889788D01*
X77300050Y-93920680D01*
X77318625Y-93948480D01*
X77334372Y-93977940D01*
X77355566Y-94003765D01*
X77374140Y-94031563D01*
X77397779Y-94055202D01*
X77418973Y-94081027D01*
X77444798Y-94102221D01*
X77468437Y-94125860D01*
X77496235Y-94144434D01*
X77522060Y-94165628D01*
X77551520Y-94181375D01*
X77579320Y-94199950D01*
X77610212Y-94212746D01*
X77639671Y-94228492D01*
X77671634Y-94238188D01*
X77702526Y-94250984D01*
X77735318Y-94257507D01*
X77767286Y-94267204D01*
X77800533Y-94270478D01*
X77833321Y-94277000D01*
X77866755Y-94277000D01*
X77900000Y-94280274D01*
X77933245Y-94277000D01*
X77966679Y-94277000D01*
X77999467Y-94270478D01*
X78032714Y-94267204D01*
X78064682Y-94257507D01*
X78097474Y-94250984D01*
X78128366Y-94238188D01*
X78160329Y-94228492D01*
X78189788Y-94212746D01*
X78220680Y-94199950D01*
X78248480Y-94181375D01*
X78277940Y-94165628D01*
X78303764Y-94144435D01*
X78331563Y-94125860D01*
X78425860Y-94031563D01*
X78425862Y-94031560D01*
X78700422Y-93757000D01*
X79330934Y-93757000D01*
X79330934Y-93930000D01*
X79339178Y-94013707D01*
X79363595Y-94094196D01*
X79403245Y-94168376D01*
X79456605Y-94233395D01*
X79521624Y-94286755D01*
X79595804Y-94326405D01*
X79676293Y-94350822D01*
X79760000Y-94359066D01*
X80403456Y-94359066D01*
X80237513Y-94392074D01*
X80005114Y-94488337D01*
X79947046Y-94527137D01*
X79899671Y-94541508D01*
X79782060Y-94604372D01*
X79678973Y-94688973D01*
X79594372Y-94792060D01*
X79531508Y-94909671D01*
X79517137Y-94957046D01*
X79493113Y-94993000D01*
X77359066Y-94993000D01*
X77359066Y-94820000D01*
X77350822Y-94736293D01*
X77326405Y-94655804D01*
X77286755Y-94581624D01*
X77233395Y-94516605D01*
X77168376Y-94463245D01*
X77094196Y-94423595D01*
X77013707Y-94399178D01*
X76930000Y-94390934D01*
X75230000Y-94390934D01*
X75146293Y-94399178D01*
X75065804Y-94423595D01*
X74991624Y-94463245D01*
X74926605Y-94516605D01*
X74873245Y-94581624D01*
X74833595Y-94655804D01*
X74809178Y-94736293D01*
X74800934Y-94820000D01*
X74800934Y-96520000D01*
X74809178Y-96603707D01*
X74833595Y-96684196D01*
X74873245Y-96758376D01*
X74926605Y-96823395D01*
X74991624Y-96876755D01*
X75065804Y-96916405D01*
X75146293Y-96940822D01*
X75230000Y-96949066D01*
X76056998Y-96949066D01*
X76056998Y-97039955D01*
X75857549Y-96952523D01*
X75616502Y-97020083D01*
X75393267Y-97133371D01*
X75196422Y-97288033D01*
X75033533Y-97478126D01*
X74910859Y-97696344D01*
X74833114Y-97934302D01*
X74822524Y-97987549D01*
X74909976Y-98187000D01*
X76057000Y-98187000D01*
X76057000Y-98167000D01*
X76103000Y-98167000D01*
X76103000Y-98187000D01*
X77250024Y-98187000D01*
X77337476Y-97987549D01*
X77326886Y-97934302D01*
X77249141Y-97696344D01*
X77126467Y-97478126D01*
X76963578Y-97288033D01*
X76766733Y-97133371D01*
X76543498Y-97020083D01*
X76302451Y-96952523D01*
X76103002Y-97039955D01*
X76103002Y-96949066D01*
X76930000Y-96949066D01*
X77013707Y-96940822D01*
X77094196Y-96916405D01*
X77168376Y-96876755D01*
X77233395Y-96823395D01*
X77286755Y-96758376D01*
X77326405Y-96684196D01*
X77350822Y-96603707D01*
X77359066Y-96520000D01*
X77359066Y-96347000D01*
X79559931Y-96347000D01*
X79618089Y-96434040D01*
X79795960Y-96611911D01*
X80005114Y-96751663D01*
X80237513Y-96847926D01*
X80484226Y-96897000D01*
X80735774Y-96897000D01*
X80982487Y-96847926D01*
X81214886Y-96751663D01*
X81424040Y-96611911D01*
X81601911Y-96434040D01*
X81741663Y-96224886D01*
X81837926Y-95992487D01*
X81880000Y-95780966D01*
X81922074Y-95992487D01*
X82018337Y-96224886D01*
X82158089Y-96434040D01*
X82335960Y-96611911D01*
X82545114Y-96751663D01*
X82777513Y-96847926D01*
X83024226Y-96897000D01*
X83275774Y-96897000D01*
X83522487Y-96847926D01*
X83754886Y-96751663D01*
X83964040Y-96611911D01*
X84141911Y-96434040D01*
X84281663Y-96224886D01*
X84377926Y-95992487D01*
X84427000Y-95745774D01*
X84427000Y-95494226D01*
X84407661Y-95397000D01*
X86769500Y-95397000D01*
X86805804Y-95416405D01*
X86886293Y-95440822D01*
X86970000Y-95449066D01*
X87670000Y-95449066D01*
X87753707Y-95440822D01*
X87834196Y-95416405D01*
X87870500Y-95397000D01*
X89575715Y-95397000D01*
X89628271Y-95495324D01*
X89711167Y-95596333D01*
X89812176Y-95679229D01*
X89927416Y-95740827D01*
X90052459Y-95778758D01*
X90182500Y-95791566D01*
X90657500Y-95791566D01*
X90787541Y-95778758D01*
X90912584Y-95740827D01*
X91027824Y-95679229D01*
X91128833Y-95596333D01*
X91211729Y-95495324D01*
X91273327Y-95380084D01*
X91311258Y-95255041D01*
X91324066Y-95125000D01*
X91324066Y-94625000D01*
X91311258Y-94494959D01*
X91273327Y-94369916D01*
X91211729Y-94254676D01*
X91128833Y-94153667D01*
X91027824Y-94070771D01*
X90912584Y-94009173D01*
X90787541Y-93971242D01*
X90698783Y-93962500D01*
X90787541Y-93953758D01*
X90912584Y-93915827D01*
X91027824Y-93854229D01*
X91128833Y-93771333D01*
X91211729Y-93670324D01*
X91273327Y-93555084D01*
X91311258Y-93430041D01*
X91324066Y-93300000D01*
X91324066Y-92800000D01*
X91311258Y-92669959D01*
X91273327Y-92544916D01*
X91211729Y-92429676D01*
X91128833Y-92328667D01*
X91097000Y-92302542D01*
X91097000Y-89960422D01*
X92523000Y-88534423D01*
X92523000Y-89066007D01*
X92519726Y-89099252D01*
X92523000Y-89132497D01*
X92523000Y-89132504D01*
X92532796Y-89231967D01*
X92571508Y-89359582D01*
X92603253Y-89418973D01*
X92634372Y-89477192D01*
X92697776Y-89554450D01*
X92697779Y-89554453D01*
X92718974Y-89580279D01*
X92744800Y-89601474D01*
X93683326Y-90540000D01*
X92644800Y-91578526D01*
X92618974Y-91599721D01*
X92597779Y-91625547D01*
X92597776Y-91625550D01*
X92534372Y-91702808D01*
X92471508Y-91820419D01*
X92432796Y-91948034D01*
X92419726Y-92080748D01*
X92423001Y-92114002D01*
X92423000Y-95429577D01*
X91440880Y-96411698D01*
X91382479Y-96393982D01*
X91250000Y-96380934D01*
X90150000Y-96380934D01*
X90017521Y-96393982D01*
X89890133Y-96432625D01*
X89772731Y-96495377D01*
X89669828Y-96579828D01*
X89585377Y-96682731D01*
X89522625Y-96800133D01*
X89483982Y-96927521D01*
X89470934Y-97060000D01*
X89470934Y-98381643D01*
X88079578Y-99773000D01*
X84589066Y-99773000D01*
X84589066Y-99600000D01*
X84580822Y-99516293D01*
X84556405Y-99435804D01*
X84516755Y-99361624D01*
X84463395Y-99296605D01*
X84398376Y-99243245D01*
X84324196Y-99203595D01*
X84243707Y-99179178D01*
X84160000Y-99170934D01*
X82988356Y-99170934D01*
X81962226Y-98144804D01*
X81941027Y-98118973D01*
X81837941Y-98034372D01*
X81720330Y-97971508D01*
X81592715Y-97932796D01*
X81493252Y-97923000D01*
X81493245Y-97923000D01*
X81460000Y-97919726D01*
X81426755Y-97923000D01*
X79733321Y-97923000D01*
X79700536Y-97929521D01*
X79667285Y-97932796D01*
X79635315Y-97942494D01*
X79602526Y-97949016D01*
X79571636Y-97961811D01*
X79539670Y-97971508D01*
X79510208Y-97987256D01*
X79479320Y-98000050D01*
X79451524Y-98018623D01*
X79422059Y-98034372D01*
X79396231Y-98055568D01*
X79368437Y-98074140D01*
X79344801Y-98097776D01*
X79318973Y-98118973D01*
X79297778Y-98144799D01*
X79274140Y-98168437D01*
X79255568Y-98196231D01*
X79234372Y-98222059D01*
X79218623Y-98251524D01*
X79200050Y-98279320D01*
X79187256Y-98310208D01*
X79171508Y-98339670D01*
X79161811Y-98371636D01*
X79149016Y-98402526D01*
X79142494Y-98435315D01*
X79132796Y-98467285D01*
X79129521Y-98500536D01*
X79123000Y-98533321D01*
X79123000Y-98566748D01*
X79119725Y-98600000D01*
X79123000Y-98633252D01*
X79123000Y-98666679D01*
X79129521Y-98699464D01*
X79132796Y-98732715D01*
X79142494Y-98764685D01*
X79149016Y-98797474D01*
X79161811Y-98828364D01*
X79171508Y-98860330D01*
X79187256Y-98889792D01*
X79200050Y-98920680D01*
X79218623Y-98948476D01*
X79234372Y-98977941D01*
X79255568Y-99003769D01*
X79274140Y-99031563D01*
X79297778Y-99055201D01*
X79318973Y-99081027D01*
X79344799Y-99102222D01*
X79368437Y-99125860D01*
X79396231Y-99144432D01*
X79422059Y-99165628D01*
X79451524Y-99181377D01*
X79479320Y-99199950D01*
X79510208Y-99212744D01*
X79539670Y-99228492D01*
X79571636Y-99238189D01*
X79602526Y-99250984D01*
X79635315Y-99257506D01*
X79667285Y-99267204D01*
X79700536Y-99270479D01*
X79733321Y-99277000D01*
X81179578Y-99277000D01*
X82030934Y-100128356D01*
X82030934Y-101300000D01*
X82039178Y-101383707D01*
X82063595Y-101464196D01*
X82103245Y-101538376D01*
X82156605Y-101603395D01*
X82221624Y-101656755D01*
X82295804Y-101696405D01*
X82376293Y-101720822D01*
X82460000Y-101729066D01*
X83286998Y-101729066D01*
X83286998Y-101819955D01*
X83087549Y-101732523D01*
X82846502Y-101800083D01*
X82623267Y-101913371D01*
X82426422Y-102068033D01*
X82263533Y-102258126D01*
X82140859Y-102476344D01*
X82063114Y-102714302D01*
X82052524Y-102767549D01*
X82139976Y-102967000D01*
X83287000Y-102967000D01*
X83287000Y-102947000D01*
X83333000Y-102947000D01*
X83333000Y-102967000D01*
X84480024Y-102967000D01*
X84567476Y-102767549D01*
X84556886Y-102714302D01*
X84479141Y-102476344D01*
X84356467Y-102258126D01*
X84193578Y-102068033D01*
X83996733Y-101913371D01*
X83773498Y-101800083D01*
X83532451Y-101732523D01*
X83333002Y-101819955D01*
X83333002Y-101729066D01*
X84160000Y-101729066D01*
X84243707Y-101720822D01*
X84324196Y-101696405D01*
X84398376Y-101656755D01*
X84463395Y-101603395D01*
X84516755Y-101538376D01*
X84556405Y-101464196D01*
X84580822Y-101383707D01*
X84589066Y-101300000D01*
X84589066Y-101127000D01*
X88326755Y-101127000D01*
X88360000Y-101130274D01*
X88393245Y-101127000D01*
X88393252Y-101127000D01*
X88492715Y-101117204D01*
X88620330Y-101078492D01*
X88737941Y-101015628D01*
X88841027Y-100931027D01*
X88862226Y-100905196D01*
X89495747Y-100271676D01*
X89479178Y-100326293D01*
X89470934Y-100410000D01*
X89473000Y-101580250D01*
X89579750Y-101687000D01*
X90677000Y-101687000D01*
X90677000Y-100089750D01*
X90723000Y-100089750D01*
X90723000Y-101687000D01*
X91820250Y-101687000D01*
X91927000Y-101580250D01*
X91929066Y-100410000D01*
X91920822Y-100326293D01*
X91896405Y-100245804D01*
X91856755Y-100171624D01*
X91803395Y-100106605D01*
X91738376Y-100053245D01*
X91664196Y-100013595D01*
X91583707Y-99989178D01*
X91500000Y-99980934D01*
X90829750Y-99983000D01*
X90723000Y-100089750D01*
X90677000Y-100089750D01*
X90570250Y-99983000D01*
X89900000Y-99980934D01*
X89816293Y-99989178D01*
X89761676Y-100005747D01*
X89959120Y-99808302D01*
X90017521Y-99826018D01*
X90150000Y-99839066D01*
X91250000Y-99839066D01*
X91382479Y-99826018D01*
X91509867Y-99787375D01*
X91627269Y-99724623D01*
X91730172Y-99640172D01*
X91814623Y-99537269D01*
X91877375Y-99419867D01*
X91916018Y-99292479D01*
X91929066Y-99160000D01*
X91929066Y-97838356D01*
X93555206Y-96212217D01*
X93581026Y-96191027D01*
X93602218Y-96165205D01*
X93602224Y-96165199D01*
X93665628Y-96087941D01*
X93728492Y-95970330D01*
X93767204Y-95842715D01*
X93780275Y-95710000D01*
X93777000Y-95676748D01*
X93777000Y-93134422D01*
X94097769Y-93455191D01*
X94118973Y-93481027D01*
X94222059Y-93565628D01*
X94339670Y-93628492D01*
X94467285Y-93667204D01*
X94566748Y-93677000D01*
X94566757Y-93677000D01*
X94599999Y-93680274D01*
X94633241Y-93677000D01*
X95140501Y-93677000D01*
X95140500Y-98453750D01*
X95046167Y-98531167D01*
X94963271Y-98632176D01*
X94901673Y-98747416D01*
X94863742Y-98872459D01*
X94850934Y-99002500D01*
X94850934Y-99477500D01*
X94863742Y-99607541D01*
X94901673Y-99732584D01*
X94963271Y-99847824D01*
X95046167Y-99948833D01*
X95147176Y-100031729D01*
X95262416Y-100093327D01*
X95387459Y-100131258D01*
X95517500Y-100144066D01*
X96117500Y-100144066D01*
X96247541Y-100131258D01*
X96372584Y-100093327D01*
X96487824Y-100031729D01*
X96588833Y-99948833D01*
X96671729Y-99847824D01*
X96680000Y-99832350D01*
X96688271Y-99847824D01*
X96771167Y-99948833D01*
X96872176Y-100031729D01*
X96987416Y-100093327D01*
X97112459Y-100131258D01*
X97242500Y-100144066D01*
X97842500Y-100144066D01*
X97972541Y-100131258D01*
X98097584Y-100093327D01*
X98212824Y-100031729D01*
X98313833Y-99948833D01*
X98396729Y-99847824D01*
X98458327Y-99732584D01*
X98496258Y-99607541D01*
X98509066Y-99477500D01*
X98509066Y-99230856D01*
X98655196Y-99084726D01*
X98681027Y-99063527D01*
X98765628Y-98960441D01*
X98828492Y-98842830D01*
X98867204Y-98715215D01*
X98877000Y-98615752D01*
X98877000Y-98615743D01*
X98880274Y-98582501D01*
X98877000Y-98549259D01*
X98877000Y-97333321D01*
X98870479Y-97300536D01*
X98867204Y-97267285D01*
X98857506Y-97235315D01*
X98850984Y-97202526D01*
X98838189Y-97171636D01*
X98828492Y-97139670D01*
X98812744Y-97110208D01*
X98799950Y-97079320D01*
X98781377Y-97051524D01*
X98765628Y-97022059D01*
X98744433Y-96996233D01*
X98725860Y-96968437D01*
X98702218Y-96944795D01*
X98681026Y-96918973D01*
X98655206Y-96897783D01*
X98631563Y-96874140D01*
X98603763Y-96855565D01*
X98577940Y-96834372D01*
X98548480Y-96818625D01*
X98520680Y-96800050D01*
X98489788Y-96787254D01*
X98460329Y-96771508D01*
X98428366Y-96761812D01*
X98397474Y-96749016D01*
X98364682Y-96742493D01*
X98332714Y-96732796D01*
X98299465Y-96729521D01*
X98266679Y-96723000D01*
X98233252Y-96723000D01*
X98200000Y-96719725D01*
X98166748Y-96723000D01*
X98133321Y-96723000D01*
X98100536Y-96729521D01*
X98067285Y-96732796D01*
X98035315Y-96742494D01*
X98002526Y-96749016D01*
X97971636Y-96761811D01*
X97939670Y-96771508D01*
X97910208Y-96787256D01*
X97879320Y-96800050D01*
X97851524Y-96818623D01*
X97822059Y-96834372D01*
X97796233Y-96855567D01*
X97768437Y-96874140D01*
X97744795Y-96897782D01*
X97718973Y-96918974D01*
X97697783Y-96944794D01*
X97674140Y-96968437D01*
X97655565Y-96996237D01*
X97634372Y-97022060D01*
X97618625Y-97051520D01*
X97600050Y-97079320D01*
X97587254Y-97110212D01*
X97571508Y-97139671D01*
X97561812Y-97171634D01*
X97549016Y-97202526D01*
X97542493Y-97235318D01*
X97532796Y-97267286D01*
X97529521Y-97300535D01*
X97523000Y-97333321D01*
X97523000Y-97366749D01*
X97523001Y-98302077D01*
X97489144Y-98335934D01*
X97242500Y-98335934D01*
X97112459Y-98348742D01*
X96987416Y-98386673D01*
X96872176Y-98448271D01*
X96771167Y-98531167D01*
X96688271Y-98632176D01*
X96680000Y-98647650D01*
X96671729Y-98632176D01*
X96588833Y-98531167D01*
X96494500Y-98453750D01*
X96494500Y-94029066D01*
X96600000Y-94029066D01*
X96683707Y-94020822D01*
X96764196Y-93996405D01*
X96838376Y-93956755D01*
X96903395Y-93903395D01*
X96956755Y-93838376D01*
X96996405Y-93764196D01*
X97020822Y-93683707D01*
X97029066Y-93600000D01*
X97029066Y-92400000D01*
X97020822Y-92316293D01*
X96996405Y-92235804D01*
X96956755Y-92161624D01*
X96903395Y-92096605D01*
X96838376Y-92043245D01*
X96764196Y-92003595D01*
X96683707Y-91979178D01*
X96600000Y-91970934D01*
X95700000Y-91970934D01*
X95616293Y-91979178D01*
X95535804Y-92003595D01*
X95461624Y-92043245D01*
X95396605Y-92096605D01*
X95343245Y-92161624D01*
X95303595Y-92235804D01*
X95279178Y-92316293D01*
X95278517Y-92323000D01*
X94880421Y-92323000D01*
X94877000Y-92319578D01*
X94877000Y-91833321D01*
X94870479Y-91800536D01*
X94867204Y-91767285D01*
X94857506Y-91735315D01*
X94850984Y-91702526D01*
X94838189Y-91671636D01*
X94828492Y-91639670D01*
X94812744Y-91610208D01*
X94799950Y-91579320D01*
X94781377Y-91551524D01*
X94765628Y-91522059D01*
X94744433Y-91496233D01*
X94725860Y-91468437D01*
X94702218Y-91444795D01*
X94698232Y-91439938D01*
X94864904Y-91273266D01*
X94906293Y-91285822D01*
X94990000Y-91294066D01*
X96550000Y-91294066D01*
X96633707Y-91285822D01*
X96714196Y-91261405D01*
X96788376Y-91221755D01*
X96853395Y-91168395D01*
X96906755Y-91103376D01*
X96946405Y-91029196D01*
X96970822Y-90948707D01*
X96979066Y-90865000D01*
X96979066Y-90215000D01*
X96970822Y-90131293D01*
X96946405Y-90050804D01*
X96906755Y-89976624D01*
X96853395Y-89911605D01*
X96788376Y-89858245D01*
X96714196Y-89818595D01*
X96633707Y-89794178D01*
X96550000Y-89785934D01*
X94990000Y-89785934D01*
X94906293Y-89794178D01*
X94864904Y-89806734D01*
X93877000Y-88818830D01*
X93877000Y-88433321D01*
X93870479Y-88400536D01*
X93867204Y-88367285D01*
X93857506Y-88335315D01*
X93850984Y-88302526D01*
X93838189Y-88271636D01*
X93828492Y-88239670D01*
X93812744Y-88210208D01*
X93799950Y-88179320D01*
X93781377Y-88151524D01*
X93765628Y-88122059D01*
X93744433Y-88096233D01*
X93725860Y-88068437D01*
X93702218Y-88044795D01*
X93681026Y-88018973D01*
X93655206Y-87997783D01*
X93631563Y-87974140D01*
X93603763Y-87955565D01*
X93577940Y-87934372D01*
X93548480Y-87918625D01*
X93520680Y-87900050D01*
X93489788Y-87887254D01*
X93460329Y-87871508D01*
X93428366Y-87861812D01*
X93397474Y-87849016D01*
X93364682Y-87842493D01*
X93332714Y-87832796D01*
X93299465Y-87829521D01*
X93266679Y-87823000D01*
X93234423Y-87823000D01*
X93480423Y-87577000D01*
X93749578Y-87577000D01*
X94560934Y-88388357D01*
X94560934Y-88965000D01*
X94569178Y-89048707D01*
X94593595Y-89129196D01*
X94633245Y-89203376D01*
X94686605Y-89268395D01*
X94751624Y-89321755D01*
X94825804Y-89361405D01*
X94906293Y-89385822D01*
X94990000Y-89394066D01*
X96550000Y-89394066D01*
X96633707Y-89385822D01*
X96714196Y-89361405D01*
X96788376Y-89321755D01*
X96853395Y-89268395D01*
X96906755Y-89203376D01*
X96946405Y-89129196D01*
X96970822Y-89048707D01*
X96979066Y-88965000D01*
X96979066Y-88315000D01*
X96970822Y-88231293D01*
X96946405Y-88150804D01*
X96906755Y-88076624D01*
X96853395Y-88011605D01*
X96788376Y-87958245D01*
X96714196Y-87918595D01*
X96633707Y-87894178D01*
X96550000Y-87885934D01*
X95973357Y-87885934D01*
X94532226Y-86444804D01*
X94511027Y-86418973D01*
X94407941Y-86334372D01*
X94290330Y-86271508D01*
X94162715Y-86232796D01*
X94063252Y-86223000D01*
X94063245Y-86223000D01*
X94030000Y-86219726D01*
X93996755Y-86223000D01*
X93233252Y-86223000D01*
X93200000Y-86219725D01*
X93067285Y-86232796D01*
X92939670Y-86271508D01*
X92822059Y-86334372D01*
X92788853Y-86361624D01*
X92718973Y-86418973D01*
X92697778Y-86444799D01*
X92319066Y-86823511D01*
X92319066Y-86442500D01*
X92306258Y-86312459D01*
X92268327Y-86187416D01*
X92206729Y-86072176D01*
X92123833Y-85971167D01*
X92029500Y-85893750D01*
X92029500Y-85494196D01*
X92052824Y-85481729D01*
X92153833Y-85398833D01*
X92179958Y-85367000D01*
X98013262Y-85367000D01*
X97992176Y-85378271D01*
X97891167Y-85461167D01*
X97808271Y-85562176D01*
X97746673Y-85677416D01*
X97708742Y-85802459D01*
X97695934Y-85932500D01*
X97695934Y-86432500D01*
X97708742Y-86562541D01*
X97746673Y-86687584D01*
X97808271Y-86802824D01*
X97891167Y-86903833D01*
X97923000Y-86929958D01*
X97923001Y-87885934D01*
X97690000Y-87885934D01*
X97606293Y-87894178D01*
X97525804Y-87918595D01*
X97451624Y-87958245D01*
X97386605Y-88011605D01*
X97333245Y-88076624D01*
X97293595Y-88150804D01*
X97269178Y-88231293D01*
X97260934Y-88315000D01*
X97260934Y-88965000D01*
X97269178Y-89048707D01*
X97289289Y-89115000D01*
X97269178Y-89181293D01*
X97260934Y-89265000D01*
X97263000Y-89460250D01*
X97369750Y-89567000D01*
X98447000Y-89567000D01*
X98447000Y-89547000D01*
X98493000Y-89547000D01*
X98493000Y-89567000D01*
X99570250Y-89567000D01*
X99677000Y-89460250D01*
X99679066Y-89265000D01*
X99670822Y-89181293D01*
X99650711Y-89115000D01*
X99670822Y-89048707D01*
X99679066Y-88965000D01*
X99679066Y-88315000D01*
X99670822Y-88231293D01*
X99646405Y-88150804D01*
X99606755Y-88076624D01*
X99553395Y-88011605D01*
X99488376Y-87958245D01*
X99414196Y-87918595D01*
X99333707Y-87894178D01*
X99277000Y-87888593D01*
X99277000Y-86929958D01*
X99308833Y-86903833D01*
X99345216Y-86859500D01*
X99751755Y-86859500D01*
X99785000Y-86862774D01*
X99818245Y-86859500D01*
X99818252Y-86859500D01*
X99917715Y-86849704D01*
X100045330Y-86810992D01*
X100162941Y-86748128D01*
X100266027Y-86663527D01*
X100287226Y-86637696D01*
X100749420Y-86175502D01*
X100844748Y-86175502D01*
X100738000Y-86282250D01*
X100735934Y-86640000D01*
X100744178Y-86723707D01*
X100768595Y-86804196D01*
X100808245Y-86878376D01*
X100844867Y-86923000D01*
X100833321Y-86923000D01*
X100800533Y-86929522D01*
X100767286Y-86932796D01*
X100735318Y-86942493D01*
X100702526Y-86949016D01*
X100671634Y-86961812D01*
X100639671Y-86971508D01*
X100610212Y-86987254D01*
X100579320Y-87000050D01*
X100551520Y-87018625D01*
X100522060Y-87034372D01*
X100496235Y-87055566D01*
X100468437Y-87074140D01*
X100444798Y-87097779D01*
X100418973Y-87118973D01*
X100397779Y-87144798D01*
X100374140Y-87168437D01*
X100355566Y-87196235D01*
X100334372Y-87222060D01*
X100318625Y-87251520D01*
X100300050Y-87279320D01*
X100287254Y-87310212D01*
X100271508Y-87339671D01*
X100261812Y-87371634D01*
X100249016Y-87402526D01*
X100242493Y-87435318D01*
X100232796Y-87467286D01*
X100229522Y-87500533D01*
X100223000Y-87533321D01*
X100223000Y-87566755D01*
X100219726Y-87600000D01*
X100223000Y-87633245D01*
X100223000Y-87666679D01*
X100229522Y-87699467D01*
X100232796Y-87732714D01*
X100242493Y-87764682D01*
X100249016Y-87797474D01*
X100261812Y-87828366D01*
X100271508Y-87860329D01*
X100287254Y-87889788D01*
X100300050Y-87920680D01*
X100318625Y-87948480D01*
X100334372Y-87977940D01*
X100355565Y-88003764D01*
X100374140Y-88031563D01*
X100468437Y-88125860D01*
X100468440Y-88125862D01*
X100897778Y-88555201D01*
X100918973Y-88581027D01*
X100944799Y-88602222D01*
X100944801Y-88602224D01*
X101022059Y-88665628D01*
X101139670Y-88728492D01*
X101267285Y-88767204D01*
X101400000Y-88780275D01*
X101433252Y-88777000D01*
X102729395Y-88777000D01*
X102710208Y-88787256D01*
X102679320Y-88800050D01*
X102651524Y-88818623D01*
X102622059Y-88834372D01*
X102596233Y-88855567D01*
X102568437Y-88874140D01*
X102544795Y-88897782D01*
X102518973Y-88918974D01*
X102497783Y-88944794D01*
X102474140Y-88968437D01*
X102455565Y-88996237D01*
X102434372Y-89022060D01*
X102418625Y-89051520D01*
X102400050Y-89079320D01*
X102387254Y-89110212D01*
X102371508Y-89139671D01*
X102361812Y-89171634D01*
X102349016Y-89202526D01*
X102342493Y-89235318D01*
X102332796Y-89267286D01*
X102329521Y-89300535D01*
X102323000Y-89333321D01*
X102323000Y-89866755D01*
X102319726Y-89900000D01*
X102323000Y-89933245D01*
X102323000Y-89933252D01*
X102332796Y-90032715D01*
X102371508Y-90160330D01*
X102434372Y-90277941D01*
X102459445Y-90308492D01*
X102491216Y-90347204D01*
X102518974Y-90381027D01*
X102544800Y-90402222D01*
X103770934Y-91628356D01*
X103770934Y-94600000D01*
X103779178Y-94683707D01*
X103803595Y-94764196D01*
X103843245Y-94838376D01*
X103896605Y-94903395D01*
X103961624Y-94956755D01*
X104035804Y-94996405D01*
X104116293Y-95020822D01*
X104200000Y-95029066D01*
X108200000Y-95029066D01*
X108283707Y-95020822D01*
X108364196Y-94996405D01*
X108438376Y-94956755D01*
X108503395Y-94903395D01*
X108556755Y-94838376D01*
X108596405Y-94764196D01*
X108620822Y-94683707D01*
X108629066Y-94600000D01*
X108629066Y-91600000D01*
X108620822Y-91516293D01*
X108596405Y-91435804D01*
X108556755Y-91361624D01*
X108503395Y-91296605D01*
X108438376Y-91243245D01*
X108364196Y-91203595D01*
X108283707Y-91179178D01*
X108200000Y-91170934D01*
X105228356Y-91170934D01*
X104061675Y-90004253D01*
X104116293Y-90020822D01*
X104200000Y-90029066D01*
X108200000Y-90029066D01*
X108283707Y-90020822D01*
X108364196Y-89996405D01*
X108438376Y-89956755D01*
X108503395Y-89903395D01*
X108556755Y-89838376D01*
X108596405Y-89764196D01*
X108620822Y-89683707D01*
X108629066Y-89600000D01*
X108629066Y-86600000D01*
X108620822Y-86516293D01*
X108596405Y-86435804D01*
X108556755Y-86361624D01*
X108503395Y-86296605D01*
X108438376Y-86243245D01*
X108364196Y-86203595D01*
X108283707Y-86179178D01*
X108200000Y-86170934D01*
X104200000Y-86170934D01*
X104116293Y-86179178D01*
X104035804Y-86203595D01*
X103961624Y-86243245D01*
X103896605Y-86296605D01*
X103843245Y-86361624D01*
X103803595Y-86435804D01*
X103779178Y-86516293D01*
X103770934Y-86600000D01*
X103770934Y-87423000D01*
X101680423Y-87423000D01*
X101425862Y-87168440D01*
X101425860Y-87168437D01*
X101331563Y-87074140D01*
X101322558Y-87068123D01*
X101510250Y-87067000D01*
X101617000Y-86960250D01*
X101617000Y-86175500D01*
X101663000Y-86175500D01*
X101663000Y-86960250D01*
X101769750Y-87067000D01*
X102115000Y-87069066D01*
X102198707Y-87060822D01*
X102279196Y-87036405D01*
X102353376Y-86996755D01*
X102418395Y-86943395D01*
X102471755Y-86878376D01*
X102511405Y-86804196D01*
X102535822Y-86723707D01*
X102544066Y-86640000D01*
X102542000Y-86282250D01*
X102435250Y-86175500D01*
X101663000Y-86175500D01*
X101617000Y-86175500D01*
X101597000Y-86175500D01*
X101597000Y-86129500D01*
X101617000Y-86129500D01*
X101617000Y-86109500D01*
X101663000Y-86109500D01*
X101663000Y-86129500D01*
X102435250Y-86129500D01*
X102542000Y-86022750D01*
X102544066Y-85665000D01*
X102535822Y-85581293D01*
X102511405Y-85500804D01*
X102471755Y-85426624D01*
X102418395Y-85361605D01*
X102353376Y-85308245D01*
X102279196Y-85268595D01*
X102198707Y-85244178D01*
X102115000Y-85235934D01*
X101950043Y-85236921D01*
X102007541Y-85231258D01*
X102132584Y-85193327D01*
X102247824Y-85131729D01*
X102348833Y-85048833D01*
X102431729Y-84947824D01*
X102493327Y-84832584D01*
X102531258Y-84707541D01*
X102544066Y-84577500D01*
X102544066Y-84077500D01*
X102531258Y-83947459D01*
X102493327Y-83822416D01*
X102431729Y-83707176D01*
X102348833Y-83606167D01*
X102247824Y-83523271D01*
X102219500Y-83508131D01*
X102219500Y-82366250D01*
X102313833Y-82288833D01*
X102396729Y-82187824D01*
X102458327Y-82072584D01*
X102496258Y-81947541D01*
X102509066Y-81817500D01*
X102509066Y-81342500D01*
X102496258Y-81212459D01*
X102458327Y-81087416D01*
X102396729Y-80972176D01*
X102318620Y-80877000D01*
X106119578Y-80877000D01*
X109723000Y-84480422D01*
X109723001Y-89266745D01*
X109719726Y-89300000D01*
X109732796Y-89432714D01*
X109771508Y-89560329D01*
X109834372Y-89677940D01*
X109897776Y-89755198D01*
X109897779Y-89755201D01*
X109918974Y-89781027D01*
X109944800Y-89802222D01*
X111770934Y-91628356D01*
X111770934Y-94600000D01*
X111779178Y-94683707D01*
X111803595Y-94764196D01*
X111843245Y-94838376D01*
X111896605Y-94903395D01*
X111961624Y-94956755D01*
X112035804Y-94996405D01*
X112116293Y-95020822D01*
X112200000Y-95029066D01*
X113523000Y-95029066D01*
X113523001Y-98357076D01*
X112734144Y-99145934D01*
X111499999Y-99145934D01*
X111367520Y-99158982D01*
X111240132Y-99197625D01*
X111122731Y-99260377D01*
X111019828Y-99344828D01*
X110935377Y-99447731D01*
X110872625Y-99565132D01*
X110833982Y-99692520D01*
X110820934Y-99824999D01*
X110820934Y-100023000D01*
X107379066Y-100023000D01*
X107379066Y-99850000D01*
X107370822Y-99766293D01*
X107346405Y-99685804D01*
X107306755Y-99611624D01*
X107253395Y-99546605D01*
X107188376Y-99493245D01*
X107114196Y-99453595D01*
X107033707Y-99429178D01*
X106950000Y-99420934D01*
X105250000Y-99420934D01*
X105166293Y-99429178D01*
X105085804Y-99453595D01*
X105011624Y-99493245D01*
X104946605Y-99546605D01*
X104893245Y-99611624D01*
X104853595Y-99685804D01*
X104829178Y-99766293D01*
X104820934Y-99850000D01*
X104820934Y-101550000D01*
X104829178Y-101633707D01*
X104853595Y-101714196D01*
X104893245Y-101788376D01*
X104946605Y-101853395D01*
X105011624Y-101906755D01*
X105085804Y-101946405D01*
X105166293Y-101970822D01*
X105250000Y-101979066D01*
X106076998Y-101979066D01*
X106076998Y-102069955D01*
X105877549Y-101982523D01*
X105636502Y-102050083D01*
X105413267Y-102163371D01*
X105216422Y-102318033D01*
X105053533Y-102508126D01*
X104930859Y-102726344D01*
X104853114Y-102964302D01*
X104842524Y-103017549D01*
X104929976Y-103217000D01*
X106077000Y-103217000D01*
X106077000Y-103197000D01*
X106123000Y-103197000D01*
X106123000Y-103217000D01*
X107270024Y-103217000D01*
X107357476Y-103017549D01*
X107346886Y-102964302D01*
X107269141Y-102726344D01*
X107254332Y-102700000D01*
X110820934Y-102700000D01*
X110823000Y-103232750D01*
X110929750Y-103339500D01*
X112577000Y-103339500D01*
X112577000Y-102379750D01*
X112623000Y-102379750D01*
X112623000Y-103339500D01*
X114270250Y-103339500D01*
X114377000Y-103232750D01*
X114379066Y-102700000D01*
X114370822Y-102616293D01*
X114346405Y-102535804D01*
X114306755Y-102461624D01*
X114253395Y-102396605D01*
X114188376Y-102343245D01*
X114114196Y-102303595D01*
X114033707Y-102279178D01*
X113950000Y-102270934D01*
X112729750Y-102273000D01*
X112623000Y-102379750D01*
X112577000Y-102379750D01*
X112470250Y-102273000D01*
X111250000Y-102270934D01*
X111166293Y-102279178D01*
X111085804Y-102303595D01*
X111011624Y-102343245D01*
X110946605Y-102396605D01*
X110893245Y-102461624D01*
X110853595Y-102535804D01*
X110829178Y-102616293D01*
X110820934Y-102700000D01*
X107254332Y-102700000D01*
X107146467Y-102508126D01*
X106983578Y-102318033D01*
X106786733Y-102163371D01*
X106563498Y-102050083D01*
X106322451Y-101982523D01*
X106123002Y-102069955D01*
X106123002Y-101979066D01*
X106950000Y-101979066D01*
X107033707Y-101970822D01*
X107114196Y-101946405D01*
X107188376Y-101906755D01*
X107253395Y-101853395D01*
X107306755Y-101788376D01*
X107346405Y-101714196D01*
X107370822Y-101633707D01*
X107379066Y-101550000D01*
X107379066Y-101377000D01*
X112104255Y-101377000D01*
X112137500Y-101380274D01*
X112170745Y-101377000D01*
X112170752Y-101377000D01*
X112270215Y-101367204D01*
X112395938Y-101329066D01*
X113700001Y-101329066D01*
X113832480Y-101316018D01*
X113959868Y-101277375D01*
X114077269Y-101214623D01*
X114180172Y-101130172D01*
X114264623Y-101027269D01*
X114327375Y-100909868D01*
X114366018Y-100782480D01*
X114379066Y-100650001D01*
X114379066Y-99824999D01*
X114366018Y-99692520D01*
X114327375Y-99565132D01*
X114293384Y-99501539D01*
X114655201Y-99139722D01*
X114681027Y-99118527D01*
X114765628Y-99015441D01*
X114828492Y-98897830D01*
X114867204Y-98770215D01*
X114877000Y-98670752D01*
X114880275Y-98637500D01*
X114877000Y-98604248D01*
X114877000Y-95029066D01*
X116200000Y-95029066D01*
X116283707Y-95020822D01*
X116364196Y-94996405D01*
X116438376Y-94956755D01*
X116503395Y-94903395D01*
X116548001Y-94849043D01*
X116548001Y-107548000D01*
X99827000Y-107548000D01*
X99827000Y-103462451D01*
X104842524Y-103462451D01*
X104853114Y-103515698D01*
X104930859Y-103753656D01*
X105053533Y-103971874D01*
X105216422Y-104161967D01*
X105413267Y-104316629D01*
X105636502Y-104429917D01*
X105877549Y-104497477D01*
X106077000Y-104410044D01*
X106077000Y-103263000D01*
X106123000Y-103263000D01*
X106123000Y-104410044D01*
X106322451Y-104497477D01*
X106563498Y-104429917D01*
X106786733Y-104316629D01*
X106983578Y-104161967D01*
X107100943Y-104025000D01*
X110820934Y-104025000D01*
X110829178Y-104108707D01*
X110853595Y-104189196D01*
X110893245Y-104263376D01*
X110946605Y-104328395D01*
X111011624Y-104381755D01*
X111085804Y-104421405D01*
X111166293Y-104445822D01*
X111250000Y-104454066D01*
X112470250Y-104452000D01*
X112577000Y-104345250D01*
X112577000Y-103385500D01*
X112623000Y-103385500D01*
X112623000Y-104345250D01*
X112729750Y-104452000D01*
X113950000Y-104454066D01*
X114033707Y-104445822D01*
X114114196Y-104421405D01*
X114188376Y-104381755D01*
X114253395Y-104328395D01*
X114306755Y-104263376D01*
X114346405Y-104189196D01*
X114370822Y-104108707D01*
X114379066Y-104025000D01*
X114377000Y-103492250D01*
X114270250Y-103385500D01*
X112623000Y-103385500D01*
X112577000Y-103385500D01*
X110929750Y-103385500D01*
X110823000Y-103492250D01*
X110820934Y-104025000D01*
X107100943Y-104025000D01*
X107146467Y-103971874D01*
X107269141Y-103753656D01*
X107346886Y-103515698D01*
X107357476Y-103462451D01*
X107270024Y-103263000D01*
X106123000Y-103263000D01*
X106077000Y-103263000D01*
X104929976Y-103263000D01*
X104842524Y-103462451D01*
X99827000Y-103462451D01*
X99827000Y-95127000D01*
X102000000Y-95127000D01*
X102024776Y-95124560D01*
X102048601Y-95117333D01*
X102070557Y-95105597D01*
X102089803Y-95089803D01*
X102105597Y-95070557D01*
X102117333Y-95048601D01*
X102124560Y-95024776D01*
X102127000Y-95000000D01*
X102127000Y-90000000D01*
X102124560Y-89975224D01*
X102117333Y-89951399D01*
X102105597Y-89929443D01*
X102089803Y-89910197D01*
X102070557Y-89894403D01*
X102048601Y-89882667D01*
X102024776Y-89875440D01*
X102000000Y-89873000D01*
X101700000Y-89873000D01*
X101675224Y-89875440D01*
X101651399Y-89882667D01*
X101629443Y-89894403D01*
X101610197Y-89910197D01*
X101594403Y-89929443D01*
X101582667Y-89951399D01*
X101575440Y-89975224D01*
X101573000Y-90000000D01*
X101573000Y-94573000D01*
X98127000Y-94573000D01*
X98127000Y-93600000D01*
X98570934Y-93600000D01*
X98579178Y-93683707D01*
X98603595Y-93764196D01*
X98643245Y-93838376D01*
X98696605Y-93903395D01*
X98761624Y-93956755D01*
X98835804Y-93996405D01*
X98916293Y-94020822D01*
X99000000Y-94029066D01*
X99320250Y-94027000D01*
X99427000Y-93920250D01*
X99427000Y-93023000D01*
X99473000Y-93023000D01*
X99473000Y-93920250D01*
X99579750Y-94027000D01*
X99900000Y-94029066D01*
X99983707Y-94020822D01*
X100064196Y-93996405D01*
X100138376Y-93956755D01*
X100203395Y-93903395D01*
X100256755Y-93838376D01*
X100296405Y-93764196D01*
X100320822Y-93683707D01*
X100329066Y-93600000D01*
X100327000Y-93129750D01*
X100220250Y-93023000D01*
X99473000Y-93023000D01*
X99427000Y-93023000D01*
X98679750Y-93023000D01*
X98573000Y-93129750D01*
X98570934Y-93600000D01*
X98127000Y-93600000D01*
X98127000Y-92400000D01*
X98570934Y-92400000D01*
X98573000Y-92870250D01*
X98679750Y-92977000D01*
X99427000Y-92977000D01*
X99427000Y-92079750D01*
X99473000Y-92079750D01*
X99473000Y-92977000D01*
X100220250Y-92977000D01*
X100327000Y-92870250D01*
X100329066Y-92400000D01*
X100320822Y-92316293D01*
X100296405Y-92235804D01*
X100256755Y-92161624D01*
X100203395Y-92096605D01*
X100138376Y-92043245D01*
X100064196Y-92003595D01*
X99983707Y-91979178D01*
X99900000Y-91970934D01*
X99579750Y-91973000D01*
X99473000Y-92079750D01*
X99427000Y-92079750D01*
X99320250Y-91973000D01*
X99000000Y-91970934D01*
X98916293Y-91979178D01*
X98835804Y-92003595D01*
X98761624Y-92043245D01*
X98696605Y-92096605D01*
X98643245Y-92161624D01*
X98603595Y-92235804D01*
X98579178Y-92316293D01*
X98570934Y-92400000D01*
X98127000Y-92400000D01*
X98127000Y-91294066D01*
X99250000Y-91294066D01*
X99333707Y-91285822D01*
X99414196Y-91261405D01*
X99488376Y-91221755D01*
X99494170Y-91217000D01*
X99718171Y-91217000D01*
X99739671Y-91228492D01*
X99771634Y-91238188D01*
X99802526Y-91250984D01*
X99835318Y-91257507D01*
X99867286Y-91267204D01*
X99900535Y-91270479D01*
X99933321Y-91277000D01*
X99966748Y-91277000D01*
X100000000Y-91280275D01*
X100033252Y-91277000D01*
X100066679Y-91277000D01*
X100099465Y-91270479D01*
X100132714Y-91267204D01*
X100164682Y-91257507D01*
X100197474Y-91250984D01*
X100228366Y-91238188D01*
X100260329Y-91228492D01*
X100289788Y-91212746D01*
X100320680Y-91199950D01*
X100348480Y-91181375D01*
X100377940Y-91165628D01*
X100403765Y-91144434D01*
X100431563Y-91125860D01*
X100455202Y-91102221D01*
X100481027Y-91081027D01*
X100502221Y-91055202D01*
X100525860Y-91031563D01*
X100544434Y-91003765D01*
X100565628Y-90977940D01*
X100581375Y-90948480D01*
X100599950Y-90920680D01*
X100612746Y-90889788D01*
X100628492Y-90860329D01*
X100638188Y-90828366D01*
X100650984Y-90797474D01*
X100657507Y-90764682D01*
X100667204Y-90732714D01*
X100670479Y-90699465D01*
X100677000Y-90666679D01*
X100677000Y-90633252D01*
X100680275Y-90600000D01*
X100677000Y-90566748D01*
X100677000Y-90533321D01*
X100670479Y-90500535D01*
X100667204Y-90467286D01*
X100657507Y-90435318D01*
X100650984Y-90402526D01*
X100638188Y-90371634D01*
X100628492Y-90339671D01*
X100612746Y-90310212D01*
X100599950Y-90279320D01*
X100581375Y-90251520D01*
X100565628Y-90222060D01*
X100544435Y-90196236D01*
X100525860Y-90168437D01*
X100442222Y-90084799D01*
X100421027Y-90058973D01*
X100317941Y-89974372D01*
X100200330Y-89911508D01*
X100072715Y-89872796D01*
X99973252Y-89863000D01*
X99973245Y-89863000D01*
X99940000Y-89859726D01*
X99906755Y-89863000D01*
X99678516Y-89863000D01*
X99677000Y-89719750D01*
X99570250Y-89613000D01*
X98493000Y-89613000D01*
X98493000Y-89633000D01*
X98447000Y-89633000D01*
X98447000Y-89613000D01*
X97369750Y-89613000D01*
X97263000Y-89719750D01*
X97260934Y-89915000D01*
X97269178Y-89998707D01*
X97289289Y-90065000D01*
X97269178Y-90131293D01*
X97260934Y-90215000D01*
X97260934Y-90865000D01*
X97269178Y-90948707D01*
X97293595Y-91029196D01*
X97333245Y-91103376D01*
X97386605Y-91168395D01*
X97451624Y-91221755D01*
X97525804Y-91261405D01*
X97573000Y-91275722D01*
X97573000Y-95000000D01*
X97575440Y-95024776D01*
X97582667Y-95048601D01*
X97594403Y-95070557D01*
X97610197Y-95089803D01*
X97629443Y-95105597D01*
X97651399Y-95117333D01*
X97675224Y-95124560D01*
X97700000Y-95127000D01*
X99073000Y-95127000D01*
X99073000Y-107548000D01*
X72452000Y-107548000D01*
X72452000Y-103212451D01*
X82052524Y-103212451D01*
X82063114Y-103265698D01*
X82140859Y-103503656D01*
X82263533Y-103721874D01*
X82426422Y-103911967D01*
X82623267Y-104066629D01*
X82846502Y-104179917D01*
X83087549Y-104247477D01*
X83287000Y-104160044D01*
X83287000Y-103013000D01*
X83333000Y-103013000D01*
X83333000Y-104160044D01*
X83532451Y-104247477D01*
X83773498Y-104179917D01*
X83996733Y-104066629D01*
X84193578Y-103911967D01*
X84356467Y-103721874D01*
X84479141Y-103503656D01*
X84556886Y-103265698D01*
X84567476Y-103212451D01*
X84480024Y-103013000D01*
X83333000Y-103013000D01*
X83287000Y-103013000D01*
X82139976Y-103013000D01*
X82052524Y-103212451D01*
X72452000Y-103212451D01*
X72452000Y-103010000D01*
X89470934Y-103010000D01*
X89479178Y-103093707D01*
X89503595Y-103174196D01*
X89543245Y-103248376D01*
X89596605Y-103313395D01*
X89661624Y-103366755D01*
X89735804Y-103406405D01*
X89816293Y-103430822D01*
X89900000Y-103439066D01*
X90570250Y-103437000D01*
X90677000Y-103330250D01*
X90677000Y-101733000D01*
X90723000Y-101733000D01*
X90723000Y-103330250D01*
X90829750Y-103437000D01*
X91500000Y-103439066D01*
X91583707Y-103430822D01*
X91664196Y-103406405D01*
X91738376Y-103366755D01*
X91803395Y-103313395D01*
X91856755Y-103248376D01*
X91896405Y-103174196D01*
X91920822Y-103093707D01*
X91929066Y-103010000D01*
X91927000Y-101839750D01*
X91820250Y-101733000D01*
X90723000Y-101733000D01*
X90677000Y-101733000D01*
X89579750Y-101733000D01*
X89473000Y-101839750D01*
X89470934Y-103010000D01*
X72452000Y-103010000D01*
X72452000Y-98432451D01*
X74822524Y-98432451D01*
X74833114Y-98485698D01*
X74910859Y-98723656D01*
X75033533Y-98941874D01*
X75196422Y-99131967D01*
X75393267Y-99286629D01*
X75616502Y-99399917D01*
X75857549Y-99467477D01*
X76057000Y-99380044D01*
X76057000Y-98233000D01*
X76103000Y-98233000D01*
X76103000Y-99380044D01*
X76302451Y-99467477D01*
X76543498Y-99399917D01*
X76766733Y-99286629D01*
X76963578Y-99131967D01*
X77126467Y-98941874D01*
X77249141Y-98723656D01*
X77326886Y-98485698D01*
X77337476Y-98432451D01*
X77250024Y-98233000D01*
X76103000Y-98233000D01*
X76057000Y-98233000D01*
X74909976Y-98233000D01*
X74822524Y-98432451D01*
X72452000Y-98432451D01*
X72452000Y-74452000D01*
X116548000Y-74452000D01*
X116548000Y-86350957D01*
%TA.AperFunction,Conductor*%
D21*
G36*
X116548000Y-86350957D02*
G01*
X116503395Y-86296605D01*
X116438376Y-86243245D01*
X116364196Y-86203595D01*
X116283707Y-86179178D01*
X116200000Y-86170934D01*
X112200000Y-86170934D01*
X112116293Y-86179178D01*
X112035804Y-86203595D01*
X111961624Y-86243245D01*
X111896605Y-86296605D01*
X111843245Y-86361624D01*
X111803595Y-86435804D01*
X111779178Y-86516293D01*
X111770934Y-86600000D01*
X111770934Y-89600000D01*
X111779178Y-89683707D01*
X111795747Y-89738324D01*
X111077000Y-89019578D01*
X111077000Y-84233241D01*
X111080274Y-84199999D01*
X111077000Y-84166757D01*
X111077000Y-84166748D01*
X111067204Y-84067285D01*
X111028492Y-83939670D01*
X110965628Y-83822059D01*
X110881026Y-83718973D01*
X110855200Y-83697778D01*
X106902226Y-79744804D01*
X106881027Y-79718973D01*
X106777941Y-79634372D01*
X106660330Y-79571508D01*
X106532715Y-79532796D01*
X106433252Y-79523000D01*
X106433245Y-79523000D01*
X106400000Y-79519726D01*
X106366755Y-79523000D01*
X101230752Y-79523000D01*
X101197500Y-79519725D01*
X101164248Y-79523000D01*
X101064785Y-79532796D01*
X100937170Y-79571508D01*
X100819559Y-79634372D01*
X100716473Y-79718973D01*
X100695278Y-79744799D01*
X99764144Y-80675934D01*
X99517500Y-80675934D01*
X99387459Y-80688742D01*
X99262416Y-80726673D01*
X99147176Y-80788271D01*
X99046167Y-80871167D01*
X98963271Y-80972176D01*
X98901673Y-81087416D01*
X98863742Y-81212459D01*
X98850934Y-81342500D01*
X98850934Y-81589144D01*
X98144800Y-82295278D01*
X98118974Y-82316473D01*
X98097779Y-82342299D01*
X98097776Y-82342302D01*
X98034372Y-82419560D01*
X97971508Y-82537171D01*
X97932796Y-82664786D01*
X97919726Y-82797500D01*
X97923001Y-82830754D01*
X97923000Y-83610042D01*
X97891167Y-83636167D01*
X97808271Y-83737176D01*
X97746673Y-83852416D01*
X97708742Y-83977459D01*
X97705241Y-84013000D01*
X92179958Y-84013000D01*
X92153833Y-83981167D01*
X92052824Y-83898271D01*
X92029500Y-83885804D01*
X92029500Y-83454196D01*
X92052824Y-83441729D01*
X92153833Y-83358833D01*
X92236729Y-83257824D01*
X92298327Y-83142584D01*
X92336258Y-83017541D01*
X92349066Y-82887500D01*
X92349066Y-82412500D01*
X92336258Y-82282459D01*
X92298327Y-82157416D01*
X92236729Y-82042176D01*
X92153833Y-81941167D01*
X92052824Y-81858271D01*
X92029500Y-81845804D01*
X92029500Y-81226250D01*
X92123833Y-81148833D01*
X92206729Y-81047824D01*
X92268327Y-80932584D01*
X92306258Y-80807541D01*
X92319066Y-80677500D01*
X92319066Y-80202500D01*
X92306258Y-80072459D01*
X92268327Y-79947416D01*
X92206729Y-79832176D01*
X92123833Y-79731167D01*
X92079500Y-79694784D01*
X92079500Y-78886250D01*
X92173833Y-78808833D01*
X92256729Y-78707824D01*
X92318327Y-78592584D01*
X92356258Y-78467541D01*
X92369066Y-78337500D01*
X92369066Y-77862500D01*
X92356258Y-77732459D01*
X92318327Y-77607416D01*
X92256729Y-77492176D01*
X92173833Y-77391167D01*
X92072824Y-77308271D01*
X91957584Y-77246673D01*
X91832541Y-77208742D01*
X91702500Y-77195934D01*
X91102500Y-77195934D01*
X90972459Y-77208742D01*
X90847416Y-77246673D01*
X90732176Y-77308271D01*
X90631167Y-77391167D01*
X90548271Y-77492176D01*
X90540000Y-77507650D01*
X90531729Y-77492176D01*
X90448833Y-77391167D01*
X90347824Y-77308271D01*
X90232584Y-77246673D01*
X90107541Y-77208742D01*
X89977500Y-77195934D01*
X89730856Y-77195934D01*
X89519726Y-76984804D01*
X89498527Y-76958973D01*
X89395441Y-76874372D01*
X89277830Y-76811508D01*
X89150215Y-76772796D01*
X89050752Y-76763000D01*
X89050745Y-76763000D01*
X89017500Y-76759726D01*
X88984255Y-76763000D01*
X87143478Y-76763000D01*
X87051911Y-76625960D01*
X86874040Y-76448089D01*
X86664886Y-76308337D01*
X86432487Y-76212074D01*
X86185774Y-76163000D01*
X85934226Y-76163000D01*
X85687513Y-76212074D01*
X85455114Y-76308337D01*
X85245960Y-76448089D01*
X85068089Y-76625960D01*
X84928337Y-76835114D01*
X84832074Y-77067513D01*
X84799066Y-77233456D01*
X84799066Y-76590000D01*
X84790822Y-76506293D01*
X84766405Y-76425804D01*
X84726755Y-76351624D01*
X84673395Y-76286605D01*
X84608376Y-76233245D01*
X84534196Y-76193595D01*
X84453707Y-76169178D01*
X84370000Y-76160934D01*
X82670000Y-76160934D01*
X82586293Y-76169178D01*
X82505804Y-76193595D01*
X82431624Y-76233245D01*
X82366605Y-76286605D01*
X82313245Y-76351624D01*
X82273595Y-76425804D01*
X82249178Y-76506293D01*
X82240934Y-76590000D01*
X82240934Y-78290000D01*
X82249178Y-78373707D01*
X82273595Y-78454196D01*
X82313245Y-78528376D01*
X82366605Y-78593395D01*
X82431624Y-78646755D01*
X82505804Y-78686405D01*
X82586293Y-78710822D01*
X82670000Y-78719066D01*
X82843000Y-78719066D01*
X82843000Y-78896522D01*
X82705960Y-78988089D01*
X82528089Y-79165960D01*
X82388337Y-79375114D01*
X82292074Y-79607513D01*
X82243000Y-79854226D01*
X82243000Y-80105774D01*
X82292074Y-80352487D01*
X82388337Y-80584886D01*
X82528089Y-80794040D01*
X82705960Y-80971911D01*
X82843000Y-81063478D01*
X82843000Y-81436522D01*
X82705960Y-81528089D01*
X82528089Y-81705960D01*
X82388337Y-81915114D01*
X82292074Y-82147513D01*
X82243000Y-82394226D01*
X82243000Y-82645774D01*
X82292074Y-82892487D01*
X82388337Y-83124886D01*
X82528089Y-83334040D01*
X82705960Y-83511911D01*
X82843001Y-83603478D01*
X82843001Y-83976522D01*
X82705960Y-84068089D01*
X82528089Y-84245960D01*
X82388337Y-84455114D01*
X82292074Y-84687513D01*
X82243000Y-84934226D01*
X82243000Y-85185774D01*
X82292074Y-85432487D01*
X82388337Y-85664886D01*
X82528089Y-85874040D01*
X82705960Y-86051911D01*
X82843001Y-86143479D01*
X82843001Y-86516521D01*
X82705960Y-86608089D01*
X82528089Y-86785960D01*
X82388337Y-86995114D01*
X82292074Y-87227513D01*
X82243000Y-87474226D01*
X82243000Y-87725774D01*
X82292074Y-87972487D01*
X82388337Y-88204886D01*
X82528089Y-88414040D01*
X82705960Y-88591911D01*
X82843001Y-88683478D01*
X82843001Y-89486746D01*
X82839726Y-89520000D01*
X82852796Y-89652714D01*
X82891508Y-89780329D01*
X82954372Y-89897940D01*
X83017776Y-89975198D01*
X83017779Y-89975201D01*
X83038974Y-90001027D01*
X83064800Y-90022222D01*
X86540934Y-93498357D01*
X86540934Y-93620000D01*
X86549178Y-93703707D01*
X86573595Y-93784196D01*
X86613245Y-93858376D01*
X86666605Y-93923395D01*
X86731624Y-93976755D01*
X86805804Y-94016405D01*
X86817655Y-94020000D01*
X86805804Y-94023595D01*
X86769500Y-94043000D01*
X84083241Y-94043000D01*
X84049999Y-94039726D01*
X84016757Y-94043000D01*
X84016748Y-94043000D01*
X83990351Y-94045600D01*
X84141911Y-93894040D01*
X84281663Y-93684886D01*
X84377926Y-93452487D01*
X84427000Y-93205774D01*
X84427000Y-92954226D01*
X84377926Y-92707513D01*
X84281663Y-92475114D01*
X84141911Y-92265960D01*
X83964040Y-92088089D01*
X83754886Y-91948337D01*
X83522487Y-91852074D01*
X83275774Y-91803000D01*
X83024226Y-91803000D01*
X82777513Y-91852074D01*
X82545114Y-91948337D01*
X82335960Y-92088089D01*
X82158089Y-92265960D01*
X82018337Y-92475114D01*
X81922074Y-92707513D01*
X81889066Y-92873456D01*
X81889066Y-92230000D01*
X81880822Y-92146293D01*
X81856405Y-92065804D01*
X81816755Y-91991624D01*
X81763395Y-91926605D01*
X81698376Y-91873245D01*
X81624196Y-91833595D01*
X81543707Y-91809178D01*
X81460000Y-91800934D01*
X79760000Y-91800934D01*
X79676293Y-91809178D01*
X79595804Y-91833595D01*
X79521624Y-91873245D01*
X79456605Y-91926605D01*
X79403245Y-91991624D01*
X79363595Y-92065804D01*
X79339178Y-92146293D01*
X79330934Y-92230000D01*
X79330934Y-92403000D01*
X78453244Y-92403000D01*
X78419999Y-92399726D01*
X78386754Y-92403000D01*
X78386748Y-92403000D01*
X78287285Y-92412796D01*
X78159670Y-92451508D01*
X78042059Y-92514372D01*
X77938973Y-92598973D01*
X77917774Y-92624804D01*
X77468440Y-93074138D01*
X77468437Y-93074140D01*
X77374140Y-93168437D01*
X77355565Y-93196236D01*
X77334372Y-93222060D01*
X77318625Y-93251520D01*
X77300050Y-93279320D01*
X77287254Y-93310212D01*
X77271508Y-93339671D01*
X77261812Y-93371634D01*
X77249016Y-93402526D01*
X77242493Y-93435318D01*
X77232796Y-93467286D01*
X77229522Y-93500533D01*
X77223000Y-93533321D01*
X77223000Y-93566755D01*
X77219726Y-93600000D01*
X77223000Y-93633245D01*
X77223000Y-93666679D01*
X77229522Y-93699467D01*
X77232796Y-93732714D01*
X77242493Y-93764682D01*
X77249016Y-93797474D01*
X77261812Y-93828366D01*
X77271508Y-93860329D01*
X77287254Y-93889788D01*
X77300050Y-93920680D01*
X77318625Y-93948480D01*
X77334372Y-93977940D01*
X77355566Y-94003765D01*
X77374140Y-94031563D01*
X77397779Y-94055202D01*
X77418973Y-94081027D01*
X77444798Y-94102221D01*
X77468437Y-94125860D01*
X77496235Y-94144434D01*
X77522060Y-94165628D01*
X77551520Y-94181375D01*
X77579320Y-94199950D01*
X77610212Y-94212746D01*
X77639671Y-94228492D01*
X77671634Y-94238188D01*
X77702526Y-94250984D01*
X77735318Y-94257507D01*
X77767286Y-94267204D01*
X77800533Y-94270478D01*
X77833321Y-94277000D01*
X77866755Y-94277000D01*
X77900000Y-94280274D01*
X77933245Y-94277000D01*
X77966679Y-94277000D01*
X77999467Y-94270478D01*
X78032714Y-94267204D01*
X78064682Y-94257507D01*
X78097474Y-94250984D01*
X78128366Y-94238188D01*
X78160329Y-94228492D01*
X78189788Y-94212746D01*
X78220680Y-94199950D01*
X78248480Y-94181375D01*
X78277940Y-94165628D01*
X78303764Y-94144435D01*
X78331563Y-94125860D01*
X78425860Y-94031563D01*
X78425862Y-94031560D01*
X78700422Y-93757000D01*
X79330934Y-93757000D01*
X79330934Y-93930000D01*
X79339178Y-94013707D01*
X79363595Y-94094196D01*
X79403245Y-94168376D01*
X79456605Y-94233395D01*
X79521624Y-94286755D01*
X79595804Y-94326405D01*
X79676293Y-94350822D01*
X79760000Y-94359066D01*
X80403456Y-94359066D01*
X80237513Y-94392074D01*
X80005114Y-94488337D01*
X79947046Y-94527137D01*
X79899671Y-94541508D01*
X79782060Y-94604372D01*
X79678973Y-94688973D01*
X79594372Y-94792060D01*
X79531508Y-94909671D01*
X79517137Y-94957046D01*
X79493113Y-94993000D01*
X77359066Y-94993000D01*
X77359066Y-94820000D01*
X77350822Y-94736293D01*
X77326405Y-94655804D01*
X77286755Y-94581624D01*
X77233395Y-94516605D01*
X77168376Y-94463245D01*
X77094196Y-94423595D01*
X77013707Y-94399178D01*
X76930000Y-94390934D01*
X75230000Y-94390934D01*
X75146293Y-94399178D01*
X75065804Y-94423595D01*
X74991624Y-94463245D01*
X74926605Y-94516605D01*
X74873245Y-94581624D01*
X74833595Y-94655804D01*
X74809178Y-94736293D01*
X74800934Y-94820000D01*
X74800934Y-96520000D01*
X74809178Y-96603707D01*
X74833595Y-96684196D01*
X74873245Y-96758376D01*
X74926605Y-96823395D01*
X74991624Y-96876755D01*
X75065804Y-96916405D01*
X75146293Y-96940822D01*
X75230000Y-96949066D01*
X76056998Y-96949066D01*
X76056998Y-97039955D01*
X75857549Y-96952523D01*
X75616502Y-97020083D01*
X75393267Y-97133371D01*
X75196422Y-97288033D01*
X75033533Y-97478126D01*
X74910859Y-97696344D01*
X74833114Y-97934302D01*
X74822524Y-97987549D01*
X74909976Y-98187000D01*
X76057000Y-98187000D01*
X76057000Y-98167000D01*
X76103000Y-98167000D01*
X76103000Y-98187000D01*
X77250024Y-98187000D01*
X77337476Y-97987549D01*
X77326886Y-97934302D01*
X77249141Y-97696344D01*
X77126467Y-97478126D01*
X76963578Y-97288033D01*
X76766733Y-97133371D01*
X76543498Y-97020083D01*
X76302451Y-96952523D01*
X76103002Y-97039955D01*
X76103002Y-96949066D01*
X76930000Y-96949066D01*
X77013707Y-96940822D01*
X77094196Y-96916405D01*
X77168376Y-96876755D01*
X77233395Y-96823395D01*
X77286755Y-96758376D01*
X77326405Y-96684196D01*
X77350822Y-96603707D01*
X77359066Y-96520000D01*
X77359066Y-96347000D01*
X79559931Y-96347000D01*
X79618089Y-96434040D01*
X79795960Y-96611911D01*
X80005114Y-96751663D01*
X80237513Y-96847926D01*
X80484226Y-96897000D01*
X80735774Y-96897000D01*
X80982487Y-96847926D01*
X81214886Y-96751663D01*
X81424040Y-96611911D01*
X81601911Y-96434040D01*
X81741663Y-96224886D01*
X81837926Y-95992487D01*
X81880000Y-95780966D01*
X81922074Y-95992487D01*
X82018337Y-96224886D01*
X82158089Y-96434040D01*
X82335960Y-96611911D01*
X82545114Y-96751663D01*
X82777513Y-96847926D01*
X83024226Y-96897000D01*
X83275774Y-96897000D01*
X83522487Y-96847926D01*
X83754886Y-96751663D01*
X83964040Y-96611911D01*
X84141911Y-96434040D01*
X84281663Y-96224886D01*
X84377926Y-95992487D01*
X84427000Y-95745774D01*
X84427000Y-95494226D01*
X84407661Y-95397000D01*
X86769500Y-95397000D01*
X86805804Y-95416405D01*
X86886293Y-95440822D01*
X86970000Y-95449066D01*
X87670000Y-95449066D01*
X87753707Y-95440822D01*
X87834196Y-95416405D01*
X87870500Y-95397000D01*
X89575715Y-95397000D01*
X89628271Y-95495324D01*
X89711167Y-95596333D01*
X89812176Y-95679229D01*
X89927416Y-95740827D01*
X90052459Y-95778758D01*
X90182500Y-95791566D01*
X90657500Y-95791566D01*
X90787541Y-95778758D01*
X90912584Y-95740827D01*
X91027824Y-95679229D01*
X91128833Y-95596333D01*
X91211729Y-95495324D01*
X91273327Y-95380084D01*
X91311258Y-95255041D01*
X91324066Y-95125000D01*
X91324066Y-94625000D01*
X91311258Y-94494959D01*
X91273327Y-94369916D01*
X91211729Y-94254676D01*
X91128833Y-94153667D01*
X91027824Y-94070771D01*
X90912584Y-94009173D01*
X90787541Y-93971242D01*
X90698783Y-93962500D01*
X90787541Y-93953758D01*
X90912584Y-93915827D01*
X91027824Y-93854229D01*
X91128833Y-93771333D01*
X91211729Y-93670324D01*
X91273327Y-93555084D01*
X91311258Y-93430041D01*
X91324066Y-93300000D01*
X91324066Y-92800000D01*
X91311258Y-92669959D01*
X91273327Y-92544916D01*
X91211729Y-92429676D01*
X91128833Y-92328667D01*
X91097000Y-92302542D01*
X91097000Y-89960422D01*
X92523000Y-88534423D01*
X92523000Y-89066007D01*
X92519726Y-89099252D01*
X92523000Y-89132497D01*
X92523000Y-89132504D01*
X92532796Y-89231967D01*
X92571508Y-89359582D01*
X92603253Y-89418973D01*
X92634372Y-89477192D01*
X92697776Y-89554450D01*
X92697779Y-89554453D01*
X92718974Y-89580279D01*
X92744800Y-89601474D01*
X93683326Y-90540000D01*
X92644800Y-91578526D01*
X92618974Y-91599721D01*
X92597779Y-91625547D01*
X92597776Y-91625550D01*
X92534372Y-91702808D01*
X92471508Y-91820419D01*
X92432796Y-91948034D01*
X92419726Y-92080748D01*
X92423001Y-92114002D01*
X92423000Y-95429577D01*
X91440880Y-96411698D01*
X91382479Y-96393982D01*
X91250000Y-96380934D01*
X90150000Y-96380934D01*
X90017521Y-96393982D01*
X89890133Y-96432625D01*
X89772731Y-96495377D01*
X89669828Y-96579828D01*
X89585377Y-96682731D01*
X89522625Y-96800133D01*
X89483982Y-96927521D01*
X89470934Y-97060000D01*
X89470934Y-98381643D01*
X88079578Y-99773000D01*
X84589066Y-99773000D01*
X84589066Y-99600000D01*
X84580822Y-99516293D01*
X84556405Y-99435804D01*
X84516755Y-99361624D01*
X84463395Y-99296605D01*
X84398376Y-99243245D01*
X84324196Y-99203595D01*
X84243707Y-99179178D01*
X84160000Y-99170934D01*
X82988356Y-99170934D01*
X81962226Y-98144804D01*
X81941027Y-98118973D01*
X81837941Y-98034372D01*
X81720330Y-97971508D01*
X81592715Y-97932796D01*
X81493252Y-97923000D01*
X81493245Y-97923000D01*
X81460000Y-97919726D01*
X81426755Y-97923000D01*
X79733321Y-97923000D01*
X79700536Y-97929521D01*
X79667285Y-97932796D01*
X79635315Y-97942494D01*
X79602526Y-97949016D01*
X79571636Y-97961811D01*
X79539670Y-97971508D01*
X79510208Y-97987256D01*
X79479320Y-98000050D01*
X79451524Y-98018623D01*
X79422059Y-98034372D01*
X79396231Y-98055568D01*
X79368437Y-98074140D01*
X79344801Y-98097776D01*
X79318973Y-98118973D01*
X79297778Y-98144799D01*
X79274140Y-98168437D01*
X79255568Y-98196231D01*
X79234372Y-98222059D01*
X79218623Y-98251524D01*
X79200050Y-98279320D01*
X79187256Y-98310208D01*
X79171508Y-98339670D01*
X79161811Y-98371636D01*
X79149016Y-98402526D01*
X79142494Y-98435315D01*
X79132796Y-98467285D01*
X79129521Y-98500536D01*
X79123000Y-98533321D01*
X79123000Y-98566748D01*
X79119725Y-98600000D01*
X79123000Y-98633252D01*
X79123000Y-98666679D01*
X79129521Y-98699464D01*
X79132796Y-98732715D01*
X79142494Y-98764685D01*
X79149016Y-98797474D01*
X79161811Y-98828364D01*
X79171508Y-98860330D01*
X79187256Y-98889792D01*
X79200050Y-98920680D01*
X79218623Y-98948476D01*
X79234372Y-98977941D01*
X79255568Y-99003769D01*
X79274140Y-99031563D01*
X79297778Y-99055201D01*
X79318973Y-99081027D01*
X79344799Y-99102222D01*
X79368437Y-99125860D01*
X79396231Y-99144432D01*
X79422059Y-99165628D01*
X79451524Y-99181377D01*
X79479320Y-99199950D01*
X79510208Y-99212744D01*
X79539670Y-99228492D01*
X79571636Y-99238189D01*
X79602526Y-99250984D01*
X79635315Y-99257506D01*
X79667285Y-99267204D01*
X79700536Y-99270479D01*
X79733321Y-99277000D01*
X81179578Y-99277000D01*
X82030934Y-100128356D01*
X82030934Y-101300000D01*
X82039178Y-101383707D01*
X82063595Y-101464196D01*
X82103245Y-101538376D01*
X82156605Y-101603395D01*
X82221624Y-101656755D01*
X82295804Y-101696405D01*
X82376293Y-101720822D01*
X82460000Y-101729066D01*
X83286998Y-101729066D01*
X83286998Y-101819955D01*
X83087549Y-101732523D01*
X82846502Y-101800083D01*
X82623267Y-101913371D01*
X82426422Y-102068033D01*
X82263533Y-102258126D01*
X82140859Y-102476344D01*
X82063114Y-102714302D01*
X82052524Y-102767549D01*
X82139976Y-102967000D01*
X83287000Y-102967000D01*
X83287000Y-102947000D01*
X83333000Y-102947000D01*
X83333000Y-102967000D01*
X84480024Y-102967000D01*
X84567476Y-102767549D01*
X84556886Y-102714302D01*
X84479141Y-102476344D01*
X84356467Y-102258126D01*
X84193578Y-102068033D01*
X83996733Y-101913371D01*
X83773498Y-101800083D01*
X83532451Y-101732523D01*
X83333002Y-101819955D01*
X83333002Y-101729066D01*
X84160000Y-101729066D01*
X84243707Y-101720822D01*
X84324196Y-101696405D01*
X84398376Y-101656755D01*
X84463395Y-101603395D01*
X84516755Y-101538376D01*
X84556405Y-101464196D01*
X84580822Y-101383707D01*
X84589066Y-101300000D01*
X84589066Y-101127000D01*
X88326755Y-101127000D01*
X88360000Y-101130274D01*
X88393245Y-101127000D01*
X88393252Y-101127000D01*
X88492715Y-101117204D01*
X88620330Y-101078492D01*
X88737941Y-101015628D01*
X88841027Y-100931027D01*
X88862226Y-100905196D01*
X89495747Y-100271676D01*
X89479178Y-100326293D01*
X89470934Y-100410000D01*
X89473000Y-101580250D01*
X89579750Y-101687000D01*
X90677000Y-101687000D01*
X90677000Y-100089750D01*
X90723000Y-100089750D01*
X90723000Y-101687000D01*
X91820250Y-101687000D01*
X91927000Y-101580250D01*
X91929066Y-100410000D01*
X91920822Y-100326293D01*
X91896405Y-100245804D01*
X91856755Y-100171624D01*
X91803395Y-100106605D01*
X91738376Y-100053245D01*
X91664196Y-100013595D01*
X91583707Y-99989178D01*
X91500000Y-99980934D01*
X90829750Y-99983000D01*
X90723000Y-100089750D01*
X90677000Y-100089750D01*
X90570250Y-99983000D01*
X89900000Y-99980934D01*
X89816293Y-99989178D01*
X89761676Y-100005747D01*
X89959120Y-99808302D01*
X90017521Y-99826018D01*
X90150000Y-99839066D01*
X91250000Y-99839066D01*
X91382479Y-99826018D01*
X91509867Y-99787375D01*
X91627269Y-99724623D01*
X91730172Y-99640172D01*
X91814623Y-99537269D01*
X91877375Y-99419867D01*
X91916018Y-99292479D01*
X91929066Y-99160000D01*
X91929066Y-97838356D01*
X93555206Y-96212217D01*
X93581026Y-96191027D01*
X93602218Y-96165205D01*
X93602224Y-96165199D01*
X93665628Y-96087941D01*
X93728492Y-95970330D01*
X93767204Y-95842715D01*
X93780275Y-95710000D01*
X93777000Y-95676748D01*
X93777000Y-93134422D01*
X94097769Y-93455191D01*
X94118973Y-93481027D01*
X94222059Y-93565628D01*
X94339670Y-93628492D01*
X94467285Y-93667204D01*
X94566748Y-93677000D01*
X94566757Y-93677000D01*
X94599999Y-93680274D01*
X94633241Y-93677000D01*
X95140501Y-93677000D01*
X95140500Y-98453750D01*
X95046167Y-98531167D01*
X94963271Y-98632176D01*
X94901673Y-98747416D01*
X94863742Y-98872459D01*
X94850934Y-99002500D01*
X94850934Y-99477500D01*
X94863742Y-99607541D01*
X94901673Y-99732584D01*
X94963271Y-99847824D01*
X95046167Y-99948833D01*
X95147176Y-100031729D01*
X95262416Y-100093327D01*
X95387459Y-100131258D01*
X95517500Y-100144066D01*
X96117500Y-100144066D01*
X96247541Y-100131258D01*
X96372584Y-100093327D01*
X96487824Y-100031729D01*
X96588833Y-99948833D01*
X96671729Y-99847824D01*
X96680000Y-99832350D01*
X96688271Y-99847824D01*
X96771167Y-99948833D01*
X96872176Y-100031729D01*
X96987416Y-100093327D01*
X97112459Y-100131258D01*
X97242500Y-100144066D01*
X97842500Y-100144066D01*
X97972541Y-100131258D01*
X98097584Y-100093327D01*
X98212824Y-100031729D01*
X98313833Y-99948833D01*
X98396729Y-99847824D01*
X98458327Y-99732584D01*
X98496258Y-99607541D01*
X98509066Y-99477500D01*
X98509066Y-99230856D01*
X98655196Y-99084726D01*
X98681027Y-99063527D01*
X98765628Y-98960441D01*
X98828492Y-98842830D01*
X98867204Y-98715215D01*
X98877000Y-98615752D01*
X98877000Y-98615743D01*
X98880274Y-98582501D01*
X98877000Y-98549259D01*
X98877000Y-97333321D01*
X98870479Y-97300536D01*
X98867204Y-97267285D01*
X98857506Y-97235315D01*
X98850984Y-97202526D01*
X98838189Y-97171636D01*
X98828492Y-97139670D01*
X98812744Y-97110208D01*
X98799950Y-97079320D01*
X98781377Y-97051524D01*
X98765628Y-97022059D01*
X98744433Y-96996233D01*
X98725860Y-96968437D01*
X98702218Y-96944795D01*
X98681026Y-96918973D01*
X98655206Y-96897783D01*
X98631563Y-96874140D01*
X98603763Y-96855565D01*
X98577940Y-96834372D01*
X98548480Y-96818625D01*
X98520680Y-96800050D01*
X98489788Y-96787254D01*
X98460329Y-96771508D01*
X98428366Y-96761812D01*
X98397474Y-96749016D01*
X98364682Y-96742493D01*
X98332714Y-96732796D01*
X98299465Y-96729521D01*
X98266679Y-96723000D01*
X98233252Y-96723000D01*
X98200000Y-96719725D01*
X98166748Y-96723000D01*
X98133321Y-96723000D01*
X98100536Y-96729521D01*
X98067285Y-96732796D01*
X98035315Y-96742494D01*
X98002526Y-96749016D01*
X97971636Y-96761811D01*
X97939670Y-96771508D01*
X97910208Y-96787256D01*
X97879320Y-96800050D01*
X97851524Y-96818623D01*
X97822059Y-96834372D01*
X97796233Y-96855567D01*
X97768437Y-96874140D01*
X97744795Y-96897782D01*
X97718973Y-96918974D01*
X97697783Y-96944794D01*
X97674140Y-96968437D01*
X97655565Y-96996237D01*
X97634372Y-97022060D01*
X97618625Y-97051520D01*
X97600050Y-97079320D01*
X97587254Y-97110212D01*
X97571508Y-97139671D01*
X97561812Y-97171634D01*
X97549016Y-97202526D01*
X97542493Y-97235318D01*
X97532796Y-97267286D01*
X97529521Y-97300535D01*
X97523000Y-97333321D01*
X97523000Y-97366749D01*
X97523001Y-98302077D01*
X97489144Y-98335934D01*
X97242500Y-98335934D01*
X97112459Y-98348742D01*
X96987416Y-98386673D01*
X96872176Y-98448271D01*
X96771167Y-98531167D01*
X96688271Y-98632176D01*
X96680000Y-98647650D01*
X96671729Y-98632176D01*
X96588833Y-98531167D01*
X96494500Y-98453750D01*
X96494500Y-94029066D01*
X96600000Y-94029066D01*
X96683707Y-94020822D01*
X96764196Y-93996405D01*
X96838376Y-93956755D01*
X96903395Y-93903395D01*
X96956755Y-93838376D01*
X96996405Y-93764196D01*
X97020822Y-93683707D01*
X97029066Y-93600000D01*
X97029066Y-92400000D01*
X97020822Y-92316293D01*
X96996405Y-92235804D01*
X96956755Y-92161624D01*
X96903395Y-92096605D01*
X96838376Y-92043245D01*
X96764196Y-92003595D01*
X96683707Y-91979178D01*
X96600000Y-91970934D01*
X95700000Y-91970934D01*
X95616293Y-91979178D01*
X95535804Y-92003595D01*
X95461624Y-92043245D01*
X95396605Y-92096605D01*
X95343245Y-92161624D01*
X95303595Y-92235804D01*
X95279178Y-92316293D01*
X95278517Y-92323000D01*
X94880421Y-92323000D01*
X94877000Y-92319578D01*
X94877000Y-91833321D01*
X94870479Y-91800536D01*
X94867204Y-91767285D01*
X94857506Y-91735315D01*
X94850984Y-91702526D01*
X94838189Y-91671636D01*
X94828492Y-91639670D01*
X94812744Y-91610208D01*
X94799950Y-91579320D01*
X94781377Y-91551524D01*
X94765628Y-91522059D01*
X94744433Y-91496233D01*
X94725860Y-91468437D01*
X94702218Y-91444795D01*
X94698232Y-91439938D01*
X94864904Y-91273266D01*
X94906293Y-91285822D01*
X94990000Y-91294066D01*
X96550000Y-91294066D01*
X96633707Y-91285822D01*
X96714196Y-91261405D01*
X96788376Y-91221755D01*
X96853395Y-91168395D01*
X96906755Y-91103376D01*
X96946405Y-91029196D01*
X96970822Y-90948707D01*
X96979066Y-90865000D01*
X96979066Y-90215000D01*
X96970822Y-90131293D01*
X96946405Y-90050804D01*
X96906755Y-89976624D01*
X96853395Y-89911605D01*
X96788376Y-89858245D01*
X96714196Y-89818595D01*
X96633707Y-89794178D01*
X96550000Y-89785934D01*
X94990000Y-89785934D01*
X94906293Y-89794178D01*
X94864904Y-89806734D01*
X93877000Y-88818830D01*
X93877000Y-88433321D01*
X93870479Y-88400536D01*
X93867204Y-88367285D01*
X93857506Y-88335315D01*
X93850984Y-88302526D01*
X93838189Y-88271636D01*
X93828492Y-88239670D01*
X93812744Y-88210208D01*
X93799950Y-88179320D01*
X93781377Y-88151524D01*
X93765628Y-88122059D01*
X93744433Y-88096233D01*
X93725860Y-88068437D01*
X93702218Y-88044795D01*
X93681026Y-88018973D01*
X93655206Y-87997783D01*
X93631563Y-87974140D01*
X93603763Y-87955565D01*
X93577940Y-87934372D01*
X93548480Y-87918625D01*
X93520680Y-87900050D01*
X93489788Y-87887254D01*
X93460329Y-87871508D01*
X93428366Y-87861812D01*
X93397474Y-87849016D01*
X93364682Y-87842493D01*
X93332714Y-87832796D01*
X93299465Y-87829521D01*
X93266679Y-87823000D01*
X93234423Y-87823000D01*
X93480423Y-87577000D01*
X93749578Y-87577000D01*
X94560934Y-88388357D01*
X94560934Y-88965000D01*
X94569178Y-89048707D01*
X94593595Y-89129196D01*
X94633245Y-89203376D01*
X94686605Y-89268395D01*
X94751624Y-89321755D01*
X94825804Y-89361405D01*
X94906293Y-89385822D01*
X94990000Y-89394066D01*
X96550000Y-89394066D01*
X96633707Y-89385822D01*
X96714196Y-89361405D01*
X96788376Y-89321755D01*
X96853395Y-89268395D01*
X96906755Y-89203376D01*
X96946405Y-89129196D01*
X96970822Y-89048707D01*
X96979066Y-88965000D01*
X96979066Y-88315000D01*
X96970822Y-88231293D01*
X96946405Y-88150804D01*
X96906755Y-88076624D01*
X96853395Y-88011605D01*
X96788376Y-87958245D01*
X96714196Y-87918595D01*
X96633707Y-87894178D01*
X96550000Y-87885934D01*
X95973357Y-87885934D01*
X94532226Y-86444804D01*
X94511027Y-86418973D01*
X94407941Y-86334372D01*
X94290330Y-86271508D01*
X94162715Y-86232796D01*
X94063252Y-86223000D01*
X94063245Y-86223000D01*
X94030000Y-86219726D01*
X93996755Y-86223000D01*
X93233252Y-86223000D01*
X93200000Y-86219725D01*
X93067285Y-86232796D01*
X92939670Y-86271508D01*
X92822059Y-86334372D01*
X92788853Y-86361624D01*
X92718973Y-86418973D01*
X92697778Y-86444799D01*
X92319066Y-86823511D01*
X92319066Y-86442500D01*
X92306258Y-86312459D01*
X92268327Y-86187416D01*
X92206729Y-86072176D01*
X92123833Y-85971167D01*
X92029500Y-85893750D01*
X92029500Y-85494196D01*
X92052824Y-85481729D01*
X92153833Y-85398833D01*
X92179958Y-85367000D01*
X98013262Y-85367000D01*
X97992176Y-85378271D01*
X97891167Y-85461167D01*
X97808271Y-85562176D01*
X97746673Y-85677416D01*
X97708742Y-85802459D01*
X97695934Y-85932500D01*
X97695934Y-86432500D01*
X97708742Y-86562541D01*
X97746673Y-86687584D01*
X97808271Y-86802824D01*
X97891167Y-86903833D01*
X97923000Y-86929958D01*
X97923001Y-87885934D01*
X97690000Y-87885934D01*
X97606293Y-87894178D01*
X97525804Y-87918595D01*
X97451624Y-87958245D01*
X97386605Y-88011605D01*
X97333245Y-88076624D01*
X97293595Y-88150804D01*
X97269178Y-88231293D01*
X97260934Y-88315000D01*
X97260934Y-88965000D01*
X97269178Y-89048707D01*
X97289289Y-89115000D01*
X97269178Y-89181293D01*
X97260934Y-89265000D01*
X97263000Y-89460250D01*
X97369750Y-89567000D01*
X98447000Y-89567000D01*
X98447000Y-89547000D01*
X98493000Y-89547000D01*
X98493000Y-89567000D01*
X99570250Y-89567000D01*
X99677000Y-89460250D01*
X99679066Y-89265000D01*
X99670822Y-89181293D01*
X99650711Y-89115000D01*
X99670822Y-89048707D01*
X99679066Y-88965000D01*
X99679066Y-88315000D01*
X99670822Y-88231293D01*
X99646405Y-88150804D01*
X99606755Y-88076624D01*
X99553395Y-88011605D01*
X99488376Y-87958245D01*
X99414196Y-87918595D01*
X99333707Y-87894178D01*
X99277000Y-87888593D01*
X99277000Y-86929958D01*
X99308833Y-86903833D01*
X99345216Y-86859500D01*
X99751755Y-86859500D01*
X99785000Y-86862774D01*
X99818245Y-86859500D01*
X99818252Y-86859500D01*
X99917715Y-86849704D01*
X100045330Y-86810992D01*
X100162941Y-86748128D01*
X100266027Y-86663527D01*
X100287226Y-86637696D01*
X100749420Y-86175502D01*
X100844748Y-86175502D01*
X100738000Y-86282250D01*
X100735934Y-86640000D01*
X100744178Y-86723707D01*
X100768595Y-86804196D01*
X100808245Y-86878376D01*
X100844867Y-86923000D01*
X100833321Y-86923000D01*
X100800533Y-86929522D01*
X100767286Y-86932796D01*
X100735318Y-86942493D01*
X100702526Y-86949016D01*
X100671634Y-86961812D01*
X100639671Y-86971508D01*
X100610212Y-86987254D01*
X100579320Y-87000050D01*
X100551520Y-87018625D01*
X100522060Y-87034372D01*
X100496235Y-87055566D01*
X100468437Y-87074140D01*
X100444798Y-87097779D01*
X100418973Y-87118973D01*
X100397779Y-87144798D01*
X100374140Y-87168437D01*
X100355566Y-87196235D01*
X100334372Y-87222060D01*
X100318625Y-87251520D01*
X100300050Y-87279320D01*
X100287254Y-87310212D01*
X100271508Y-87339671D01*
X100261812Y-87371634D01*
X100249016Y-87402526D01*
X100242493Y-87435318D01*
X100232796Y-87467286D01*
X100229522Y-87500533D01*
X100223000Y-87533321D01*
X100223000Y-87566755D01*
X100219726Y-87600000D01*
X100223000Y-87633245D01*
X100223000Y-87666679D01*
X100229522Y-87699467D01*
X100232796Y-87732714D01*
X100242493Y-87764682D01*
X100249016Y-87797474D01*
X100261812Y-87828366D01*
X100271508Y-87860329D01*
X100287254Y-87889788D01*
X100300050Y-87920680D01*
X100318625Y-87948480D01*
X100334372Y-87977940D01*
X100355565Y-88003764D01*
X100374140Y-88031563D01*
X100468437Y-88125860D01*
X100468440Y-88125862D01*
X100897778Y-88555201D01*
X100918973Y-88581027D01*
X100944799Y-88602222D01*
X100944801Y-88602224D01*
X101022059Y-88665628D01*
X101139670Y-88728492D01*
X101267285Y-88767204D01*
X101400000Y-88780275D01*
X101433252Y-88777000D01*
X102729395Y-88777000D01*
X102710208Y-88787256D01*
X102679320Y-88800050D01*
X102651524Y-88818623D01*
X102622059Y-88834372D01*
X102596233Y-88855567D01*
X102568437Y-88874140D01*
X102544795Y-88897782D01*
X102518973Y-88918974D01*
X102497783Y-88944794D01*
X102474140Y-88968437D01*
X102455565Y-88996237D01*
X102434372Y-89022060D01*
X102418625Y-89051520D01*
X102400050Y-89079320D01*
X102387254Y-89110212D01*
X102371508Y-89139671D01*
X102361812Y-89171634D01*
X102349016Y-89202526D01*
X102342493Y-89235318D01*
X102332796Y-89267286D01*
X102329521Y-89300535D01*
X102323000Y-89333321D01*
X102323000Y-89866755D01*
X102319726Y-89900000D01*
X102323000Y-89933245D01*
X102323000Y-89933252D01*
X102332796Y-90032715D01*
X102371508Y-90160330D01*
X102434372Y-90277941D01*
X102459445Y-90308492D01*
X102491216Y-90347204D01*
X102518974Y-90381027D01*
X102544800Y-90402222D01*
X103770934Y-91628356D01*
X103770934Y-94600000D01*
X103779178Y-94683707D01*
X103803595Y-94764196D01*
X103843245Y-94838376D01*
X103896605Y-94903395D01*
X103961624Y-94956755D01*
X104035804Y-94996405D01*
X104116293Y-95020822D01*
X104200000Y-95029066D01*
X108200000Y-95029066D01*
X108283707Y-95020822D01*
X108364196Y-94996405D01*
X108438376Y-94956755D01*
X108503395Y-94903395D01*
X108556755Y-94838376D01*
X108596405Y-94764196D01*
X108620822Y-94683707D01*
X108629066Y-94600000D01*
X108629066Y-91600000D01*
X108620822Y-91516293D01*
X108596405Y-91435804D01*
X108556755Y-91361624D01*
X108503395Y-91296605D01*
X108438376Y-91243245D01*
X108364196Y-91203595D01*
X108283707Y-91179178D01*
X108200000Y-91170934D01*
X105228356Y-91170934D01*
X104061675Y-90004253D01*
X104116293Y-90020822D01*
X104200000Y-90029066D01*
X108200000Y-90029066D01*
X108283707Y-90020822D01*
X108364196Y-89996405D01*
X108438376Y-89956755D01*
X108503395Y-89903395D01*
X108556755Y-89838376D01*
X108596405Y-89764196D01*
X108620822Y-89683707D01*
X108629066Y-89600000D01*
X108629066Y-86600000D01*
X108620822Y-86516293D01*
X108596405Y-86435804D01*
X108556755Y-86361624D01*
X108503395Y-86296605D01*
X108438376Y-86243245D01*
X108364196Y-86203595D01*
X108283707Y-86179178D01*
X108200000Y-86170934D01*
X104200000Y-86170934D01*
X104116293Y-86179178D01*
X104035804Y-86203595D01*
X103961624Y-86243245D01*
X103896605Y-86296605D01*
X103843245Y-86361624D01*
X103803595Y-86435804D01*
X103779178Y-86516293D01*
X103770934Y-86600000D01*
X103770934Y-87423000D01*
X101680423Y-87423000D01*
X101425862Y-87168440D01*
X101425860Y-87168437D01*
X101331563Y-87074140D01*
X101322558Y-87068123D01*
X101510250Y-87067000D01*
X101617000Y-86960250D01*
X101617000Y-86175500D01*
X101663000Y-86175500D01*
X101663000Y-86960250D01*
X101769750Y-87067000D01*
X102115000Y-87069066D01*
X102198707Y-87060822D01*
X102279196Y-87036405D01*
X102353376Y-86996755D01*
X102418395Y-86943395D01*
X102471755Y-86878376D01*
X102511405Y-86804196D01*
X102535822Y-86723707D01*
X102544066Y-86640000D01*
X102542000Y-86282250D01*
X102435250Y-86175500D01*
X101663000Y-86175500D01*
X101617000Y-86175500D01*
X101597000Y-86175500D01*
X101597000Y-86129500D01*
X101617000Y-86129500D01*
X101617000Y-86109500D01*
X101663000Y-86109500D01*
X101663000Y-86129500D01*
X102435250Y-86129500D01*
X102542000Y-86022750D01*
X102544066Y-85665000D01*
X102535822Y-85581293D01*
X102511405Y-85500804D01*
X102471755Y-85426624D01*
X102418395Y-85361605D01*
X102353376Y-85308245D01*
X102279196Y-85268595D01*
X102198707Y-85244178D01*
X102115000Y-85235934D01*
X101950043Y-85236921D01*
X102007541Y-85231258D01*
X102132584Y-85193327D01*
X102247824Y-85131729D01*
X102348833Y-85048833D01*
X102431729Y-84947824D01*
X102493327Y-84832584D01*
X102531258Y-84707541D01*
X102544066Y-84577500D01*
X102544066Y-84077500D01*
X102531258Y-83947459D01*
X102493327Y-83822416D01*
X102431729Y-83707176D01*
X102348833Y-83606167D01*
X102247824Y-83523271D01*
X102219500Y-83508131D01*
X102219500Y-82366250D01*
X102313833Y-82288833D01*
X102396729Y-82187824D01*
X102458327Y-82072584D01*
X102496258Y-81947541D01*
X102509066Y-81817500D01*
X102509066Y-81342500D01*
X102496258Y-81212459D01*
X102458327Y-81087416D01*
X102396729Y-80972176D01*
X102318620Y-80877000D01*
X106119578Y-80877000D01*
X109723000Y-84480422D01*
X109723001Y-89266745D01*
X109719726Y-89300000D01*
X109732796Y-89432714D01*
X109771508Y-89560329D01*
X109834372Y-89677940D01*
X109897776Y-89755198D01*
X109897779Y-89755201D01*
X109918974Y-89781027D01*
X109944800Y-89802222D01*
X111770934Y-91628356D01*
X111770934Y-94600000D01*
X111779178Y-94683707D01*
X111803595Y-94764196D01*
X111843245Y-94838376D01*
X111896605Y-94903395D01*
X111961624Y-94956755D01*
X112035804Y-94996405D01*
X112116293Y-95020822D01*
X112200000Y-95029066D01*
X113523000Y-95029066D01*
X113523001Y-98357076D01*
X112734144Y-99145934D01*
X111499999Y-99145934D01*
X111367520Y-99158982D01*
X111240132Y-99197625D01*
X111122731Y-99260377D01*
X111019828Y-99344828D01*
X110935377Y-99447731D01*
X110872625Y-99565132D01*
X110833982Y-99692520D01*
X110820934Y-99824999D01*
X110820934Y-100023000D01*
X107379066Y-100023000D01*
X107379066Y-99850000D01*
X107370822Y-99766293D01*
X107346405Y-99685804D01*
X107306755Y-99611624D01*
X107253395Y-99546605D01*
X107188376Y-99493245D01*
X107114196Y-99453595D01*
X107033707Y-99429178D01*
X106950000Y-99420934D01*
X105250000Y-99420934D01*
X105166293Y-99429178D01*
X105085804Y-99453595D01*
X105011624Y-99493245D01*
X104946605Y-99546605D01*
X104893245Y-99611624D01*
X104853595Y-99685804D01*
X104829178Y-99766293D01*
X104820934Y-99850000D01*
X104820934Y-101550000D01*
X104829178Y-101633707D01*
X104853595Y-101714196D01*
X104893245Y-101788376D01*
X104946605Y-101853395D01*
X105011624Y-101906755D01*
X105085804Y-101946405D01*
X105166293Y-101970822D01*
X105250000Y-101979066D01*
X106076998Y-101979066D01*
X106076998Y-102069955D01*
X105877549Y-101982523D01*
X105636502Y-102050083D01*
X105413267Y-102163371D01*
X105216422Y-102318033D01*
X105053533Y-102508126D01*
X104930859Y-102726344D01*
X104853114Y-102964302D01*
X104842524Y-103017549D01*
X104929976Y-103217000D01*
X106077000Y-103217000D01*
X106077000Y-103197000D01*
X106123000Y-103197000D01*
X106123000Y-103217000D01*
X107270024Y-103217000D01*
X107357476Y-103017549D01*
X107346886Y-102964302D01*
X107269141Y-102726344D01*
X107254332Y-102700000D01*
X110820934Y-102700000D01*
X110823000Y-103232750D01*
X110929750Y-103339500D01*
X112577000Y-103339500D01*
X112577000Y-102379750D01*
X112623000Y-102379750D01*
X112623000Y-103339500D01*
X114270250Y-103339500D01*
X114377000Y-103232750D01*
X114379066Y-102700000D01*
X114370822Y-102616293D01*
X114346405Y-102535804D01*
X114306755Y-102461624D01*
X114253395Y-102396605D01*
X114188376Y-102343245D01*
X114114196Y-102303595D01*
X114033707Y-102279178D01*
X113950000Y-102270934D01*
X112729750Y-102273000D01*
X112623000Y-102379750D01*
X112577000Y-102379750D01*
X112470250Y-102273000D01*
X111250000Y-102270934D01*
X111166293Y-102279178D01*
X111085804Y-102303595D01*
X111011624Y-102343245D01*
X110946605Y-102396605D01*
X110893245Y-102461624D01*
X110853595Y-102535804D01*
X110829178Y-102616293D01*
X110820934Y-102700000D01*
X107254332Y-102700000D01*
X107146467Y-102508126D01*
X106983578Y-102318033D01*
X106786733Y-102163371D01*
X106563498Y-102050083D01*
X106322451Y-101982523D01*
X106123002Y-102069955D01*
X106123002Y-101979066D01*
X106950000Y-101979066D01*
X107033707Y-101970822D01*
X107114196Y-101946405D01*
X107188376Y-101906755D01*
X107253395Y-101853395D01*
X107306755Y-101788376D01*
X107346405Y-101714196D01*
X107370822Y-101633707D01*
X107379066Y-101550000D01*
X107379066Y-101377000D01*
X112104255Y-101377000D01*
X112137500Y-101380274D01*
X112170745Y-101377000D01*
X112170752Y-101377000D01*
X112270215Y-101367204D01*
X112395938Y-101329066D01*
X113700001Y-101329066D01*
X113832480Y-101316018D01*
X113959868Y-101277375D01*
X114077269Y-101214623D01*
X114180172Y-101130172D01*
X114264623Y-101027269D01*
X114327375Y-100909868D01*
X114366018Y-100782480D01*
X114379066Y-100650001D01*
X114379066Y-99824999D01*
X114366018Y-99692520D01*
X114327375Y-99565132D01*
X114293384Y-99501539D01*
X114655201Y-99139722D01*
X114681027Y-99118527D01*
X114765628Y-99015441D01*
X114828492Y-98897830D01*
X114867204Y-98770215D01*
X114877000Y-98670752D01*
X114880275Y-98637500D01*
X114877000Y-98604248D01*
X114877000Y-95029066D01*
X116200000Y-95029066D01*
X116283707Y-95020822D01*
X116364196Y-94996405D01*
X116438376Y-94956755D01*
X116503395Y-94903395D01*
X116548001Y-94849043D01*
X116548001Y-107548000D01*
X99827000Y-107548000D01*
X99827000Y-103462451D01*
X104842524Y-103462451D01*
X104853114Y-103515698D01*
X104930859Y-103753656D01*
X105053533Y-103971874D01*
X105216422Y-104161967D01*
X105413267Y-104316629D01*
X105636502Y-104429917D01*
X105877549Y-104497477D01*
X106077000Y-104410044D01*
X106077000Y-103263000D01*
X106123000Y-103263000D01*
X106123000Y-104410044D01*
X106322451Y-104497477D01*
X106563498Y-104429917D01*
X106786733Y-104316629D01*
X106983578Y-104161967D01*
X107100943Y-104025000D01*
X110820934Y-104025000D01*
X110829178Y-104108707D01*
X110853595Y-104189196D01*
X110893245Y-104263376D01*
X110946605Y-104328395D01*
X111011624Y-104381755D01*
X111085804Y-104421405D01*
X111166293Y-104445822D01*
X111250000Y-104454066D01*
X112470250Y-104452000D01*
X112577000Y-104345250D01*
X112577000Y-103385500D01*
X112623000Y-103385500D01*
X112623000Y-104345250D01*
X112729750Y-104452000D01*
X113950000Y-104454066D01*
X114033707Y-104445822D01*
X114114196Y-104421405D01*
X114188376Y-104381755D01*
X114253395Y-104328395D01*
X114306755Y-104263376D01*
X114346405Y-104189196D01*
X114370822Y-104108707D01*
X114379066Y-104025000D01*
X114377000Y-103492250D01*
X114270250Y-103385500D01*
X112623000Y-103385500D01*
X112577000Y-103385500D01*
X110929750Y-103385500D01*
X110823000Y-103492250D01*
X110820934Y-104025000D01*
X107100943Y-104025000D01*
X107146467Y-103971874D01*
X107269141Y-103753656D01*
X107346886Y-103515698D01*
X107357476Y-103462451D01*
X107270024Y-103263000D01*
X106123000Y-103263000D01*
X106077000Y-103263000D01*
X104929976Y-103263000D01*
X104842524Y-103462451D01*
X99827000Y-103462451D01*
X99827000Y-95127000D01*
X102000000Y-95127000D01*
X102024776Y-95124560D01*
X102048601Y-95117333D01*
X102070557Y-95105597D01*
X102089803Y-95089803D01*
X102105597Y-95070557D01*
X102117333Y-95048601D01*
X102124560Y-95024776D01*
X102127000Y-95000000D01*
X102127000Y-90000000D01*
X102124560Y-89975224D01*
X102117333Y-89951399D01*
X102105597Y-89929443D01*
X102089803Y-89910197D01*
X102070557Y-89894403D01*
X102048601Y-89882667D01*
X102024776Y-89875440D01*
X102000000Y-89873000D01*
X101700000Y-89873000D01*
X101675224Y-89875440D01*
X101651399Y-89882667D01*
X101629443Y-89894403D01*
X101610197Y-89910197D01*
X101594403Y-89929443D01*
X101582667Y-89951399D01*
X101575440Y-89975224D01*
X101573000Y-90000000D01*
X101573000Y-94573000D01*
X98127000Y-94573000D01*
X98127000Y-93600000D01*
X98570934Y-93600000D01*
X98579178Y-93683707D01*
X98603595Y-93764196D01*
X98643245Y-93838376D01*
X98696605Y-93903395D01*
X98761624Y-93956755D01*
X98835804Y-93996405D01*
X98916293Y-94020822D01*
X99000000Y-94029066D01*
X99320250Y-94027000D01*
X99427000Y-93920250D01*
X99427000Y-93023000D01*
X99473000Y-93023000D01*
X99473000Y-93920250D01*
X99579750Y-94027000D01*
X99900000Y-94029066D01*
X99983707Y-94020822D01*
X100064196Y-93996405D01*
X100138376Y-93956755D01*
X100203395Y-93903395D01*
X100256755Y-93838376D01*
X100296405Y-93764196D01*
X100320822Y-93683707D01*
X100329066Y-93600000D01*
X100327000Y-93129750D01*
X100220250Y-93023000D01*
X99473000Y-93023000D01*
X99427000Y-93023000D01*
X98679750Y-93023000D01*
X98573000Y-93129750D01*
X98570934Y-93600000D01*
X98127000Y-93600000D01*
X98127000Y-92400000D01*
X98570934Y-92400000D01*
X98573000Y-92870250D01*
X98679750Y-92977000D01*
X99427000Y-92977000D01*
X99427000Y-92079750D01*
X99473000Y-92079750D01*
X99473000Y-92977000D01*
X100220250Y-92977000D01*
X100327000Y-92870250D01*
X100329066Y-92400000D01*
X100320822Y-92316293D01*
X100296405Y-92235804D01*
X100256755Y-92161624D01*
X100203395Y-92096605D01*
X100138376Y-92043245D01*
X100064196Y-92003595D01*
X99983707Y-91979178D01*
X99900000Y-91970934D01*
X99579750Y-91973000D01*
X99473000Y-92079750D01*
X99427000Y-92079750D01*
X99320250Y-91973000D01*
X99000000Y-91970934D01*
X98916293Y-91979178D01*
X98835804Y-92003595D01*
X98761624Y-92043245D01*
X98696605Y-92096605D01*
X98643245Y-92161624D01*
X98603595Y-92235804D01*
X98579178Y-92316293D01*
X98570934Y-92400000D01*
X98127000Y-92400000D01*
X98127000Y-91294066D01*
X99250000Y-91294066D01*
X99333707Y-91285822D01*
X99414196Y-91261405D01*
X99488376Y-91221755D01*
X99494170Y-91217000D01*
X99718171Y-91217000D01*
X99739671Y-91228492D01*
X99771634Y-91238188D01*
X99802526Y-91250984D01*
X99835318Y-91257507D01*
X99867286Y-91267204D01*
X99900535Y-91270479D01*
X99933321Y-91277000D01*
X99966748Y-91277000D01*
X100000000Y-91280275D01*
X100033252Y-91277000D01*
X100066679Y-91277000D01*
X100099465Y-91270479D01*
X100132714Y-91267204D01*
X100164682Y-91257507D01*
X100197474Y-91250984D01*
X100228366Y-91238188D01*
X100260329Y-91228492D01*
X100289788Y-91212746D01*
X100320680Y-91199950D01*
X100348480Y-91181375D01*
X100377940Y-91165628D01*
X100403765Y-91144434D01*
X100431563Y-91125860D01*
X100455202Y-91102221D01*
X100481027Y-91081027D01*
X100502221Y-91055202D01*
X100525860Y-91031563D01*
X100544434Y-91003765D01*
X100565628Y-90977940D01*
X100581375Y-90948480D01*
X100599950Y-90920680D01*
X100612746Y-90889788D01*
X100628492Y-90860329D01*
X100638188Y-90828366D01*
X100650984Y-90797474D01*
X100657507Y-90764682D01*
X100667204Y-90732714D01*
X100670479Y-90699465D01*
X100677000Y-90666679D01*
X100677000Y-90633252D01*
X100680275Y-90600000D01*
X100677000Y-90566748D01*
X100677000Y-90533321D01*
X100670479Y-90500535D01*
X100667204Y-90467286D01*
X100657507Y-90435318D01*
X100650984Y-90402526D01*
X100638188Y-90371634D01*
X100628492Y-90339671D01*
X100612746Y-90310212D01*
X100599950Y-90279320D01*
X100581375Y-90251520D01*
X100565628Y-90222060D01*
X100544435Y-90196236D01*
X100525860Y-90168437D01*
X100442222Y-90084799D01*
X100421027Y-90058973D01*
X100317941Y-89974372D01*
X100200330Y-89911508D01*
X100072715Y-89872796D01*
X99973252Y-89863000D01*
X99973245Y-89863000D01*
X99940000Y-89859726D01*
X99906755Y-89863000D01*
X99678516Y-89863000D01*
X99677000Y-89719750D01*
X99570250Y-89613000D01*
X98493000Y-89613000D01*
X98493000Y-89633000D01*
X98447000Y-89633000D01*
X98447000Y-89613000D01*
X97369750Y-89613000D01*
X97263000Y-89719750D01*
X97260934Y-89915000D01*
X97269178Y-89998707D01*
X97289289Y-90065000D01*
X97269178Y-90131293D01*
X97260934Y-90215000D01*
X97260934Y-90865000D01*
X97269178Y-90948707D01*
X97293595Y-91029196D01*
X97333245Y-91103376D01*
X97386605Y-91168395D01*
X97451624Y-91221755D01*
X97525804Y-91261405D01*
X97573000Y-91275722D01*
X97573000Y-95000000D01*
X97575440Y-95024776D01*
X97582667Y-95048601D01*
X97594403Y-95070557D01*
X97610197Y-95089803D01*
X97629443Y-95105597D01*
X97651399Y-95117333D01*
X97675224Y-95124560D01*
X97700000Y-95127000D01*
X99073000Y-95127000D01*
X99073000Y-107548000D01*
X72452000Y-107548000D01*
X72452000Y-103212451D01*
X82052524Y-103212451D01*
X82063114Y-103265698D01*
X82140859Y-103503656D01*
X82263533Y-103721874D01*
X82426422Y-103911967D01*
X82623267Y-104066629D01*
X82846502Y-104179917D01*
X83087549Y-104247477D01*
X83287000Y-104160044D01*
X83287000Y-103013000D01*
X83333000Y-103013000D01*
X83333000Y-104160044D01*
X83532451Y-104247477D01*
X83773498Y-104179917D01*
X83996733Y-104066629D01*
X84193578Y-103911967D01*
X84356467Y-103721874D01*
X84479141Y-103503656D01*
X84556886Y-103265698D01*
X84567476Y-103212451D01*
X84480024Y-103013000D01*
X83333000Y-103013000D01*
X83287000Y-103013000D01*
X82139976Y-103013000D01*
X82052524Y-103212451D01*
X72452000Y-103212451D01*
X72452000Y-103010000D01*
X89470934Y-103010000D01*
X89479178Y-103093707D01*
X89503595Y-103174196D01*
X89543245Y-103248376D01*
X89596605Y-103313395D01*
X89661624Y-103366755D01*
X89735804Y-103406405D01*
X89816293Y-103430822D01*
X89900000Y-103439066D01*
X90570250Y-103437000D01*
X90677000Y-103330250D01*
X90677000Y-101733000D01*
X90723000Y-101733000D01*
X90723000Y-103330250D01*
X90829750Y-103437000D01*
X91500000Y-103439066D01*
X91583707Y-103430822D01*
X91664196Y-103406405D01*
X91738376Y-103366755D01*
X91803395Y-103313395D01*
X91856755Y-103248376D01*
X91896405Y-103174196D01*
X91920822Y-103093707D01*
X91929066Y-103010000D01*
X91927000Y-101839750D01*
X91820250Y-101733000D01*
X90723000Y-101733000D01*
X90677000Y-101733000D01*
X89579750Y-101733000D01*
X89473000Y-101839750D01*
X89470934Y-103010000D01*
X72452000Y-103010000D01*
X72452000Y-98432451D01*
X74822524Y-98432451D01*
X74833114Y-98485698D01*
X74910859Y-98723656D01*
X75033533Y-98941874D01*
X75196422Y-99131967D01*
X75393267Y-99286629D01*
X75616502Y-99399917D01*
X75857549Y-99467477D01*
X76057000Y-99380044D01*
X76057000Y-98233000D01*
X76103000Y-98233000D01*
X76103000Y-99380044D01*
X76302451Y-99467477D01*
X76543498Y-99399917D01*
X76766733Y-99286629D01*
X76963578Y-99131967D01*
X77126467Y-98941874D01*
X77249141Y-98723656D01*
X77326886Y-98485698D01*
X77337476Y-98432451D01*
X77250024Y-98233000D01*
X76103000Y-98233000D01*
X76057000Y-98233000D01*
X74909976Y-98233000D01*
X74822524Y-98432451D01*
X72452000Y-98432451D01*
X72452000Y-74452000D01*
X116548000Y-74452000D01*
X116548000Y-86350957D01*
G37*
%TD.AperFunction*%
%TD*%
M02*
